<svg width="26" height="33" xmlns="http://www.w3.org/2000/svg" xmlns:xlink="http://www.w3.org/1999/xlink" xml:space="preserve" overflow="hidden"><defs><clipPath id="clip0"><rect x="223" y="424" width="26" height="33"/></clipPath></defs><g clip-path="url(#clip0)" transform="translate(-223 -424)"><path d="M26 19.0381 26 23.6875C26 25.5962 24.752 27.5172 22.2438 28.9854 17.2028 31.9341 8.98071 31.9708 3.89082 29.0466 1.33365 27.5784 0.0489412 25.6452 0.0489412 23.712L0.0489412 19.0626C0.0489412 20.9958 1.33365 22.9289 3.89082 24.3972 8.98071 27.3214 17.2028 27.2847 22.2438 24.336 24.752 22.8555 26 20.9468 26 19.0381L26 19.0381Z" fill="#FA7564" transform="matrix(1 0 0 1.02515 223 424.501)"/><path d="M22.1459 13.6913C27.248 16.6033 27.2847 21.3751 22.2438 24.3238 17.2028 27.2847 8.98071 27.3092 3.89082 24.3849-1.19906 21.4729-1.248 16.7134 3.79294 13.7525 8.83388 10.8038 17.056 10.7793 22.1459 13.6913Z" fill="#D43E3E" transform="matrix(1 0 0 1.02515 223 424.501)"/><path d="M25.9755 13.2753 25.9755 17.9247C25.9755 19.8334 24.7275 21.7544 22.2193 23.2226 17.1784 26.1835 8.95624 26.208 3.86635 23.2838 1.30918 21.8155 0.0244706 19.8824 0.0244706 17.9492L0.0244706 13.2998C0.0244706 15.2329 1.30918 17.1661 3.86635 18.6344 8.96847 21.5586 17.1784 21.5219 22.2193 18.5732 24.7275 17.0927 25.9755 15.184 25.9755 13.2753L25.9755 13.2753Z" fill="#FA7564" transform="matrix(1 0 0 1.02515 223 424.501)"/><path d="M22.1336 7.92847C27.2235 10.8527 27.2725 15.6122 22.2315 18.5609 17.1906 21.5096 8.96847 21.5464 3.87859 18.6221-1.22353 15.7101-1.27247 10.9506 3.76847 8.00188 8.80941 5.04094 17.0315 5.01647 22.1336 7.92847Z" fill="#D43E3E" transform="matrix(1 0 0 1.02515 223 424.501)"/><path d="M25.9511 7.51247 25.9511 12.1619C25.9511 14.0706 24.7031 15.9915 22.1948 17.4598 17.1539 20.4207 8.944 20.4452 3.84188 17.5209 1.28471 16.0405 0 14.1073 0 12.1741L0 7.52471C0 9.45788 1.28471 11.3911 3.84188 12.8593 8.944 15.7835 17.1539 15.7468 22.1948 12.7981 24.7153 11.3299 25.9633 9.42118 25.9511 7.51247L25.9511 7.51247Z" fill="#FA7564" transform="matrix(1 0 0 1.02515 223 424.501)"/><path d="M22.1092 2.16565C27.2113 5.07765 27.248 9.84941 22.2071 12.7981 17.1661 15.7468 8.944 15.7835 3.85412 12.8593-1.23576 9.94729-1.28471 5.18776 3.75624 2.22682 8.79718-0.721882 17.0193-0.746353 22.1092 2.16565Z" fill="#D43E3E" transform="matrix(1 0 0 1.02515 223 424.501)"/></g></svg>