<svg width="26" height="32" xmlns="http://www.w3.org/2000/svg" xmlns:xlink="http://www.w3.org/1999/xlink" xml:space="preserve" overflow="hidden"><defs><clipPath id="clip0"><rect x="563" y="220" width="26" height="32"/></clipPath></defs><g clip-path="url(#clip0)" transform="translate(-563 -220)"><path d="M25.8462 18.9255 25.8462 23.5474C25.8462 25.4448 24.6055 27.3544 22.1121 28.8139 17.101 31.7573 8.92757 31.7816 3.8678 28.8747 1.32576 27.4152 0.0486516 25.4934 0.0364887 23.5717L0.0364887 18.9498C0.0364887 20.8715 1.31359 22.7933 3.85564 24.2528 8.92757 27.1597 17.0889 27.1233 22.1 24.192 24.6055 22.7203 25.8462 20.8229 25.8462 18.9255L25.8462 18.9255Z" fill="#025A82" transform="matrix(1.00595 0 0 1 563 220.486)"/><path d="M22.0148 13.6103C27.0868 16.5172 27.1233 21.2486 22.1121 24.1798 17.101 27.1111 8.92757 27.1476 3.8678 24.2407-1.19196 21.3459-1.24062 16.6145 3.78266 13.6711 8.78161 10.7398 16.9551 10.7155 22.0148 13.6103Z" fill="#024462" transform="matrix(1.00595 0 0 1 563 220.486)"/><path d="M25.8218 13.1967 25.8218 17.8186C25.8218 19.7161 24.5812 21.6256 22.0878 23.0852 17.0767 26.0164 8.90324 26.0529 3.84348 23.146 1.28927 21.6864 0.0243258 19.7647 0.0121629 17.843L0.0121629 13.2211C0.0121629 15.1428 1.28927 17.0645 3.83131 18.5241 8.90324 21.431 17.0645 21.3945 22.0757 18.4633 24.5812 16.9916 25.8218 15.0942 25.8218 13.1967L25.8218 13.1967Z" fill="#025A82" transform="matrix(1.00595 0 0 1 563 220.486)"/><path d="M21.9905 7.88156C27.0624 10.7885 27.0989 15.5199 22.0878 18.4511 17.0767 21.3945 8.90324 21.4189 3.84348 18.5119-1.21629 15.6172-1.26494 10.8858 3.75833 7.95453 8.75729 5.01111 16.9308 4.98679 21.9905 7.88156Z" fill="#024462" transform="matrix(1.00595 0 0 1 563 220.486)"/><path d="M25.8097 7.45586 25.8097 12.0778C25.8097 13.9752 24.5691 15.8847 22.0757 17.3443 17.0645 20.2877 8.89108 20.312 3.83131 17.4051 1.2771 15.9456 0 14.0238 0 12.1021L0 7.48018C0 9.40192 1.2771 11.3237 3.81915 12.7832 8.89108 15.678 17.0524 15.6536 22.0635 12.7224 24.5569 11.2628 25.8097 9.36543 25.8097 7.45586L25.8097 7.45586Z" fill="#025A82" transform="matrix(1.00595 0 0 1 563 220.486)"/><path d="M21.9784 2.15283C27.0503 5.05976 27.0868 9.79113 22.0757 12.7224 17.0645 15.6536 8.89108 15.6901 3.83131 12.7832-1.22845 9.88844-1.2771 5.14491 3.74617 2.21365 8.74512-0.717611 16.9186-0.741937 21.9784 2.15283Z" fill="#024462" transform="matrix(1.00595 0 0 1 563 220.486)"/></g></svg>