<?xml version="1.0" standalone="no"?><!DOCTYPE svg PUBLIC "-//W3C//DTD SVG 1.1//EN" "http://www.w3.org/Graphics/SVG/1.1/DTD/svg11.dtd"><svg t="1721194850111" class="icon" viewBox="0 0 1024 1024" version="1.1" xmlns="http://www.w3.org/2000/svg" p-id="5244" xmlns:xlink="http://www.w3.org/1999/xlink" width="32" height="32"><path d="M390.485333 315.050667c-66.901333 0-121.514667 54.613333-121.514666 121.514666s54.613333 121.514667 121.514666 121.514667 121.514667-54.613333 121.514667-121.514667-54.613333-121.514667-121.514667-121.514666z m0 224.256c-56.661333 0-103.082667-46.08-103.082666-103.082667s46.08-103.082667 103.082666-103.082667 103.082667 46.08 103.082667 103.082667-46.08 103.082667-103.082667 103.082667z" fill="#08102B" p-id="5245"></path><path d="M390.485333 355.328c-44.714667 0-81.237333 36.181333-81.237333 81.237333 0 44.714667 36.522667 81.237333 81.237333 81.237334 44.714667 0 81.237333-36.181333 81.237334-81.237334 0-44.714667-36.181333-81.237333-81.237334-81.237333z m0 153.258667c-39.594667 0-72.021333-32.426667-72.021333-72.021334 0-39.594667 32.426667-72.021333 72.021333-72.021333s72.021333 32.426667 72.021334 72.021333c0 39.594667-32.085333 72.021333-72.021334 72.021334z" fill="#08102B" p-id="5246"></path><path d="M389.802667 211.968c-123.562667 0-223.914667 100.352-223.914667 223.914667 0 123.562667 100.352 223.914667 223.914667 223.914666 123.562667 0 223.914667-100.352 223.914666-223.914666 0-123.221333-100.352-223.914667-223.914666-223.914667z m0 429.397333c-113.322667 0-205.482667-92.16-205.482667-205.482666s92.16-205.482667 205.482667-205.482667 205.824 92.16 205.482666 205.482667c0 113.322667-92.16 205.482667-205.482666 205.482666z" fill="#08102B" p-id="5247"></path><path d="M389.802667 683.008c-65.877333 0-128-25.6-174.762667-72.362667S142.677333 501.76 142.677333 435.882667 168.277333 307.882667 215.04 261.12s108.885333-72.362667 174.762667-72.362667 128 25.6 174.762666 72.362667 72.362667 108.885333 72.362667 174.762667-25.6 128-72.362667 174.762666-108.544 72.362667-174.762666 72.362667z m0-485.034667c-131.413333 0-237.909333 106.837333-237.909334 237.909334s106.837333 237.909333 237.909334 237.909333 237.909333-106.837333 237.909333-237.909333S521.216 197.973333 389.802667 197.973333zM985.429333 744.448h-23.893333c-0.341333 0-1.024-0.341333-1.024-1.024-3.072-12.970667-8.533333-25.258667-15.018667-36.522667-0.341333-0.341333 0-1.024 0.341334-1.365333l16.725333-16.725333c3.754667-3.754667 5.802667-8.533333 5.802667-13.994667 0-5.12-2.048-10.24-5.802667-13.994667l-22.186667-22.186666c-3.754667-3.754667-8.533333-5.802667-13.994666-5.802667-5.12 0-10.24 2.048-13.994667 5.802667l-16.384 16.384c-0.341333 0.341333-1.024 0.341333-1.365333 0.341333-11.605333-6.826667-23.893333-12.288-37.205334-15.701333-0.682667 0-1.024-0.682667-1.024-1.024v-22.869334c0-10.922667-8.874667-19.456-19.456-19.456H805.546667c-10.922667 0-19.456 8.874667-19.456 19.456v22.186667c0 0.682667-0.341333 1.024-1.024 1.024-13.312 3.072-26.282667 8.533333-38.229334 15.36-0.341333 0.341333-1.024 0.341333-1.365333 0l-15.36-15.36c-3.754667-3.754667-8.533333-5.802667-13.994667-5.802667-5.12 0-10.24 2.048-13.994666 5.802667l-22.186667 22.186667c-3.754667 3.754667-5.802667 8.533333-5.802667 13.994666s2.048 10.24 5.802667 13.994667l15.018667 15.018667c0.341333 0.341333 0.341333 1.024 0 1.365333-7.168 11.946667-12.629333 24.917333-16.042667 38.570667 0 0.682667-0.682667 1.024-1.024 1.024h-20.821333c-10.922667 0-19.456 8.874667-19.456 19.456v31.744c0 10.922667 8.874667 19.456 19.456 19.456h20.821333c0.682667 0 1.024 0.341333 1.024 1.024 3.413333 13.653333 8.874667 26.624 16.042667 38.570666 0.341333 0.341333 0.341333 1.024 0 1.365334l-15.018667 15.018666c-3.754667 3.754667-5.802667 8.533333-5.802667 13.994667 0 5.12 2.048 10.24 5.802667 13.994667l22.186667 22.186666c7.509333 7.509333 19.797333 7.509333 27.648 0l15.36-15.36c0.341333-0.341333 1.024-0.341333 1.365333 0 11.946667 6.826667 24.917333 11.946667 38.229333 15.36 0.682667 0 1.024 0.682667 1.024 1.024v22.186667c0 10.922667 8.874667 19.456 19.456 19.456h31.744c10.922667 0 19.456-8.874667 19.456-19.797333v-22.869334c0-0.341333 0.341333-1.024 1.024-1.024 12.970667-3.413333 25.6-8.874667 37.205334-15.701333 0.341333-0.341333 1.024 0 1.365333 0.341333l16.384 16.384c7.509333 7.509333 19.797333 7.509333 27.648 0l22.528-22.186666c3.754667-3.754667 5.802667-8.533333 5.802667-13.994667 0-5.12-2.048-10.24-5.802667-13.994667l-16.725333-16.725333c-0.341333-0.341333-0.341333-1.024-0.341334-1.365333 6.485333-11.605333 11.605333-23.893333 15.018667-36.522667 0-0.682667 0.682667-1.024 1.024-1.024h23.893333c10.922667 0 19.456-8.874667 19.456-19.456v-31.744c0-11.605333-8.874667-20.48-19.456-20.48z m1.365334 51.2c0 0.682667-0.682667 1.365333-1.365334 1.365333h-23.893333c-8.874667 0-16.725333 6.144-18.773333 14.677334-2.730667 11.264-7.168 21.845333-13.312 32.085333-4.437333 7.509333-3.072 17.408 3.072 23.552l16.725333 16.725333c0.341333 0.341333 0.341333 0.682667 0.341333 1.024 0 0.341333 0 0.682667-0.341333 1.024l-22.186667 22.186667c-0.341333 0.341333-1.365333 0.341333-1.706666 0l-16.384-16.384c-6.144-6.485333-16.042667-7.509333-23.893334-3.072-10.24 6.144-21.162667 10.581333-32.426666 13.653333-8.533333 2.389333-14.677333 10.24-14.677334 18.773334v22.869333c0 0.682667-0.682667 1.365333-1.365333 1.365333h-31.744c-0.682667 0-1.365333-0.682667-1.365333-1.365333v-22.186667c0-9.216-6.144-16.725333-15.018667-19.114666-11.605333-2.730667-22.869333-7.168-33.450667-13.312-3.072-1.706667-6.485333-2.730667-9.898666-2.730667-5.12 0-10.24 2.048-13.994667 5.802667l-15.36 15.36c-0.341333 0.341333-1.365333 0.341333-1.706667 0l-22.186666-22.186667c-0.341333-0.341333-0.341333-0.682667-0.341334-1.024 0-0.341333 0-0.682667 0.341334-1.024l15.018666-15.018667c6.144-6.485333 7.509333-16.384 2.730667-23.893333-6.144-10.581333-10.922667-21.845333-13.994667-33.792-2.048-8.533333-9.898667-14.677333-18.773333-14.677333h-20.821333c-0.682667 0-1.365333-0.682667-1.365334-1.365334v-31.744c0-0.682667 0.682667-1.365333 1.365334-1.365333h20.821333c8.874667 0 16.725333-5.802667 18.773333-14.677333 3.072-11.946667 7.850667-23.210667 13.994667-33.792 4.778667-7.850667 3.413333-17.408-2.730667-23.893334l-15.018666-15.018666c-0.341333-0.341333-0.341333-0.682667-0.341334-1.024 0-0.341333 0-0.682667 0.341334-1.024l22.186666-22.186667c0.341333-0.341333 1.365333-0.341333 1.706667 0l15.36 15.36c6.144 6.144 16.042667 7.509333 23.552 3.072 10.581333-5.802667 21.504-10.581333 33.450667-13.312 8.874667-2.048 15.018667-9.898667 15.018666-19.114667v-22.186666c0-0.682667 0.682667-1.365333 1.365334-1.365334h31.744c0.682667 0 1.365333 0.682667 1.365333 1.365334v22.869333c0 8.874667 5.802667 16.725333 14.677333 18.773333 11.605333 3.072 22.186667 7.509333 32.426667 13.653334 7.509333 4.437333 17.408 3.413333 23.893333-3.072l16.384-16.384c0.341333-0.341333 1.365333-0.341333 1.706667 0l22.528 22.186666c0.341333 0.341333 0.341333 0.682667 0.341333 1.024 0 0.341333 0 0.682667-0.341333 1.024l-16.725333 16.725334c-6.144 6.144-7.509333 16.042667-3.072 23.552 5.802667 10.24 10.24 20.821333 13.312 32.085333 2.048 8.533333 9.898667 14.677333 18.773333 14.677333h23.893333c0.682667 0 1.365333 0.682667 1.365334 1.365334v33.109333z" fill="#08102B" p-id="5248"></path><path d="M755.370667 499.370667c-2.389333-4.778667-6.826667-8.874667-11.946667-10.581334l-45.056-22.186666c1.024-10.24 1.365333-20.48 1.365333-30.72s-0.341333-20.48-1.365333-30.72l45.056-22.186667c5.12-1.706667 9.557333-5.461333 11.946667-10.581333 2.730667-5.12 3.072-11.264 1.365333-16.725334L733.866667 285.013333c-1.706667-5.461333-5.461333-9.898667-10.922667-12.629333-4.778667-2.389333-10.581333-3.072-15.701333-1.365333l-49.493334 8.533333c-10.581333-17.749333-22.528-34.474667-36.181333-49.834667l23.210667-44.714666c3.072-4.437333 4.437333-10.24 3.413333-15.701334-1.024-5.802667-4.096-10.922667-8.874667-14.336l-60.416-43.690666c-4.778667-3.413333-10.581333-4.778667-16.042666-3.754667-5.461333 1.024-10.24 3.754667-13.653334 8.192l-35.157333 35.84c-18.432-8.192-37.888-14.336-58.026667-18.773333l-7.168-49.493334c-0.341333-11.605333-9.898667-20.821333-21.504-20.821333h-74.410666c-11.605333 0-21.162667 9.557333-21.504 20.821333L324.266667 132.778667c-20.48 4.437333-40.277333 10.581333-59.050667 18.773333L230.4 115.712c-7.168-9.216-20.48-11.264-30.037333-4.096L139.946667 155.306667c-4.778667 3.413333-7.850667 8.533333-8.874667 14.336-1.024 5.461333 0.341333 10.922667 3.413333 15.701333l23.210667 44.373333c-13.653333 15.36-25.941333 32.085333-36.181333 49.493334l-49.493334-8.533334c-5.12-1.706667-10.922667-1.024-15.701333 1.365334-5.12 2.730667-8.874667 7.168-10.922667 12.629333l-22.869333 70.656c-3.754667 11.264 2.389333 23.210667 13.312 27.306667l45.056 22.186666c-1.024 10.24-1.365333 20.48-1.365333 30.72s0.341333 20.48 1.365333 30.72l-45.056 22.186667c-10.922667 4.096-16.725333 16.042667-13.312 27.306667l22.869333 70.656c3.754667 11.264 15.701333 17.408 26.624 14.336l49.493334-8.533334c10.581333 17.749333 22.528 34.474667 36.181333 49.834667l-23.210667 44.714667c-3.072 4.437333-4.437333 10.24-3.413333 15.701333 1.024 5.802667 4.096 10.922667 8.874667 14.336l60.416 43.690667c4.778667 3.413333 10.581333 4.778667 16.042666 3.754666 5.461333-1.024 10.24-3.754667 13.653334-8.192L265.898667 720.213333c18.432 8.192 37.888 14.336 58.026666 18.773334L331.093333 788.48c0.341333 11.605333 9.898667 20.821333 21.504 20.821333h74.410667c11.605333 0 21.162667-9.216 21.504-20.821333l7.168-49.493333c19.797333-4.437333 39.594667-10.581333 58.368-18.773334l35.157333 35.84c7.168 9.216 20.48 11.264 30.037334 4.096l60.416-43.690666c9.557333-6.826667 11.946667-20.138667 5.12-29.696l-23.210667-44.373334c13.653333-15.36 25.941333-32.085333 36.181333-49.493333l49.493334 8.533333c5.12 1.706667 10.922667 1.024 15.701333-1.365333 5.12-2.730667 8.874667-7.168 10.922667-12.629333l22.869333-70.656c2.048-6.144 1.365333-11.946667-1.365333-17.408z m-15.701334 11.264l-22.869333 70.656c-0.682667 1.706667-2.389333 2.730667-4.096 2.048l-0.682667-0.341334-63.488-10.581333-3.072 5.461333c-11.264 20.48-25.258667 39.253333-41.301333 56.32l-4.437333 4.778667 29.696 57.002667 0.341333 0.682666c1.024 1.365333 0.682667 3.754667-0.682667 4.778667l-60.416 43.690667c-1.365333 1.024-3.754667 0.682667-4.778666-0.682667l-0.341334-0.682667-44.714666-45.738666-5.802667 2.730666c-21.162667 9.898667-43.690667 17.066667-66.56 21.504l-6.485333 1.365334-9.557334 63.488v0.682666c0 1.706667-1.706667 3.413333-3.413333 3.413334h-74.410667c-1.706667 0-3.413333-1.706667-3.413333-3.413334v-0.682666L339.968 723.626667l-6.485333-1.365334c-22.528-4.437333-45.056-11.605333-65.877334-21.504l-5.802666-2.730666-44.714667 45.738666-0.341333 0.682667c-0.682667 1.024-1.706667 1.365333-2.048 1.365333s-1.706667 0-2.389334-0.682666l-60.416-43.690667c-1.024-0.682667-1.365333-1.706667-1.365333-2.048 0-0.682667 0-1.706667 0.682667-2.389333l0.341333-0.682667 29.696-57.002667-4.437333-4.778666c-16.042667-17.066667-30.037333-36.181333-41.301334-56.661334l-3.072-5.461333-62.805333 10.581333h-0.682667l-0.682666 0.341334c-1.706667 0.682667-3.754667-0.341333-4.096-2.048l-22.869334-70.656c-0.682667-1.706667 0.341333-3.754667 2.048-4.096l0.682667-0.341334 57.685333-28.672-0.682666-6.485333c-1.365333-11.605333-2.048-23.552-2.048-35.157333 0-11.605333 0.682667-23.210667 2.048-34.816l0.682666-6.485334-57.685333-28.672-0.682667-0.341333c-1.706667-0.682667-2.730667-2.389333-2.048-4.096l22.869334-70.997333c0.341333-1.024 1.365333-1.706667 1.706666-2.048 0.341333-0.341333 1.365333-0.682667 2.389334-0.341334l0.682666 0.341334 63.488 10.581333 3.072-5.461333c11.605333-20.48 25.258667-39.253333 41.301334-56.32l4.437333-4.778667-29.696-57.002667-1.365333-0.341333c-0.682667-1.024-0.682667-2.048-0.682667-2.389333 0-0.341333 0.341333-1.365333 1.365333-2.048l60.074667-44.373334c1.365333-1.024 3.754667-0.682667 4.778667 0.682667l0.341333 0.682667 45.056 46.08 5.802667-2.730667c21.162667-9.898667 43.690667-17.066667 66.56-21.504l6.485333-1.365333 9.557333-63.488v-0.682667c0-1.706667 1.706667-3.413333 3.413334-3.413333h74.410666c1.706667 0 3.413333 1.706667 3.413334 3.413333v0.682667l9.557333 63.488 6.485333 1.365333c22.528 4.437333 45.056 11.605333 65.877334 21.504l5.802666 2.730667L563.2 128l0.341333-0.682667c1.024-1.365333 3.072-1.706667 4.778667-0.682666l60.416 43.690666c1.024 0.682667 1.365333 1.706667 1.365333 2.048s0 1.706667-0.682666 2.389334l-0.341334 0.682666-29.696 57.002667 4.437334 4.778667c16.042667 17.066667 30.037333 36.181333 41.301333 56.661333l3.072 5.461333 63.488-10.922666 0.682667-0.341334c1.024-0.341333 2.048 0 2.389333 0.341334 0.341333 0.341333 1.365333 0.682667 1.706667 2.048l22.869333 70.656c0.341333 1.024 0 2.048-0.341333 2.389333-0.341333 0.341333-0.682667 1.365333-2.048 1.706667l-0.682667 0.341333-57.685333 28.672 0.682666 6.485333c1.365333 11.605333 2.048 23.552 2.048 35.157334 0 11.605333-0.682667 23.210667-2.048 34.816l-0.682666 6.485333 57.002666 28.330667 0.682667 0.341333 0.682667 0.341333c1.024 0.341333 1.706667 1.365333 2.048 1.706667 0.682667 0.682667 1.024 1.365333 0.682666 2.730667z" fill="#08102B" p-id="5249"></path><path d="M289.450667 502.442667s0 0.341333 0.341333 0.341333l-0.341333-0.341333zM325.290667 537.941333c-0.341333-0.341333-0.682667-0.682667-1.365334-0.682666 0.341333 0 0.682667 0.341333 1.365334 0.682666zM289.792 502.784c1.365333 2.048 3.072 4.096 4.437333 6.485333-1.365333-2.048-3.072-4.096-4.437333-6.485333zM318.805333 533.504c1.706667 1.365333 3.413333 2.389333 5.12 3.754667-1.706667-1.365333-3.413333-2.730667-5.12-3.754667zM325.290667 537.941333l-60.757334 60.757334c2.389333 1.706667 4.778667 3.754667 7.509334 5.461333l61.44-61.44c-3.072-1.365333-5.802667-3.072-8.192-4.778667z" fill="#08102B" p-id="5250"></path><path d="M323.925333 537.258667c-1.706667-1.024-3.413333-2.389333-5.12-3.754667-0.341333-0.341333-0.682667-0.341333-1.024-0.682667l-60.416 60.416c2.389333 2.048 4.778667 3.754667 7.168 5.802667l60.757334-60.757333c-0.682667-0.682667-1.024-1.024-1.365334-1.024zM294.229333 509.269333c-1.706667-2.048-3.072-4.096-4.437333-6.485333 0 0 0-0.341333-0.341333-0.341333-1.706667-2.730667-3.413333-5.461333-4.778667-8.192l-61.44 61.44c1.706667 2.389333 3.754667 5.12 5.802667 7.509333 2.048 2.389333 3.754667 4.778667 5.802666 7.168l60.416-60.416c-0.682667 0-0.682667-0.341333-1.024-0.682667zM456.021333 537.941333c0.341333-0.341333 0.682667-0.682667 1.024-0.682666 0 0-0.341333 0.341333-1.024 0.682666zM491.861333 502.442667c0 0.341333-0.341333 0.341333-0.341333 0.682666 0-0.341333 0-0.341333 0.341333-0.682666zM457.386667 537.258667c1.706667-1.365333 3.754667-2.389333 5.461333-3.754667-2.048 1.024-3.754667 2.389333-5.461333 3.754667zM487.082667 509.269333c1.365333-2.048 3.072-4.096 4.437333-6.144-1.365333 2.048-3.072 4.096-4.437333 6.144z" fill="#08102B" p-id="5251"></path><path d="M496.64 494.250667c-1.365333 2.730667-3.072 5.461333-4.778667 8.192 0 0.341333-0.341333 0.341333-0.341333 0.341333-1.365333 2.048-2.730667 4.096-4.437333 6.144-0.341333 0.341333-0.341333 0.682667-0.682667 1.024l59.392 59.392c2.048-2.389333 4.096-4.778667 5.802667-7.168 2.048-2.389333 3.754667-5.12 5.461333-7.509333l-60.416-60.416zM463.872 532.48c-0.341333 0.341333-0.682667 0.341333-1.024 0.682667-1.706667 1.365333-3.413333 2.730667-5.461333 3.754666-0.341333 0.341333-0.682667 0.682667-1.024 0.682667-2.730667 1.706667-5.461333 3.413333-8.192 4.778667l60.757333 60.757333c2.389333-1.706667 5.12-3.754667 7.509333-5.461333 2.389333-2.048 4.778667-3.754667 7.168-5.802667L463.872 532.48zM365.568 231.765333c-3.072 0.341333-6.144 0.682667-9.216 1.365334V320.853333c5.802667-1.706667 11.946667-3.072 18.090667-3.754666h0.341333V230.741333l-9.216 1.024zM415.744 232.106667l-9.216-1.024v85.674666h0.341333c6.144 0.682667 12.288 2.048 18.090667 3.754667V233.472c-3.072-0.682667-6.144-1.024-9.216-1.365333zM818.517333 730.453333c-27.648 0-50.176 22.528-50.176 50.176s22.528 50.176 50.176 50.176 50.176-22.528 50.176-50.176c0-27.306667-22.528-50.176-50.176-50.176z m0 93.184c-23.552 0-42.666667-19.114667-42.666666-42.666666s19.114667-42.666667 42.666666-42.666667 42.666667 19.114667 42.666667 42.666667-19.114667 42.666667-42.666667 42.666666z" fill="#08102B" p-id="5252"></path><path d="M818.517333 747.178667c-18.432 0-33.450667 15.018667-33.450666 33.450666s15.018667 33.450667 33.450666 33.450667 33.450667-15.018667 33.450667-33.450667-15.018667-33.450667-33.450667-33.450666z m0 63.488c-16.384 0-29.696-13.312-29.696-29.696 0-16.384 13.312-29.696 29.696-29.696 16.384 0 29.696 13.312 29.696 29.696 0 16.384-13.312 29.696-29.696 29.696z" fill="#08102B" p-id="5253"></path><path d="M818.176 687.786667c-51.2 0-92.842667 41.642667-92.842667 92.842666s41.642667 92.842667 92.842667 92.842667 92.842667-41.642667 92.842667-92.842667c-0.341333-51.2-41.642667-92.842667-92.842667-92.842666z m0 177.834666c-47.104 0-84.992-38.229333-84.992-84.992 0-47.104 38.229333-84.992 84.992-84.992 47.104 0 85.333333 38.229333 84.992 84.992 0 46.762667-38.229333 84.992-84.992 84.992z" fill="#08102B" p-id="5254"></path><path d="M818.176 883.029333c-27.306667 0-52.906667-10.581333-72.362667-30.037333-19.456-19.456-30.037333-45.056-30.037333-72.362667s10.581333-52.906667 30.037333-72.362666c19.456-19.456 45.056-30.037333 72.362667-30.037334s52.906667 10.581333 72.362667 30.037334c19.456 19.456 30.037333 45.056 30.037333 72.362666s-10.581333 52.906667-30.037333 72.362667c-19.456 19.456-45.056 30.037333-72.362667 30.037333z m0-201.045333c-54.272 0-98.645333 44.373333-98.645333 98.645333s44.373333 98.645333 98.645333 98.645334 98.645333-44.373333 98.645333-98.645334-44.373333-98.645333-98.645333-98.645333zM774.826667 809.301333z" fill="#08102B" p-id="5255"></path><path d="M790.186667 824.661333c-0.341333 0-0.341333-0.341333-0.682667-0.341333 0.341333 0 0.682667 0 0.682667 0.341333zM775.168 809.642667c0.682667 1.024 1.365333 1.706667 2.048 2.730666-1.024-1.024-1.706667-2.048-2.048-2.730666zM787.456 822.613333c0.682667 0.682667 1.365333 1.024 2.389333 1.706667-1.024-0.682667-1.706667-1.024-2.389333-1.706667zM846.506667 824.661333c0.341333 0 0.341333-0.341333 0.341333-0.341333l-0.341333 0.341333z" fill="#08102B" p-id="5256"></path></svg>