<?xml version="1.0" standalone="no"?><!DOCTYPE svg PUBLIC "-//W3C//DTD SVG 1.1//EN" "http://www.w3.org/Graphics/SVG/1.1/DTD/svg11.dtd"><svg t="1721210580984" class="icon" viewBox="0 0 1024 1024" version="1.1" xmlns="http://www.w3.org/2000/svg" p-id="25718" xmlns:xlink="http://www.w3.org/1999/xlink" width="32" height="32"><path d="M512 981.333333c259.2 0 469.333333-210.133333 469.333333-469.333333S771.2 42.666667 512 42.666667 42.666667 252.8 42.666667 512s210.133333 469.333333 469.333333 469.333333z" fill="#ED1C24" p-id="25719"></path><path d="M496.917333 697.749333a21.333333 21.333333 0 0 0 30.165334-30.165333L392.832 533.333333H682.666667a21.333333 21.333333 0 1 0 0-42.666666H392.832l134.250667-134.250667a21.333333 21.333333 0 0 0-30.165334-30.165333l-170.666666 170.666666a21.333333 21.333333 0 0 0 0 30.165334l170.666666 170.666666z" fill="#FFFFFF" p-id="25720"></path></svg>