<?xml version="1.0" standalone="no"?><!DOCTYPE svg PUBLIC "-//W3C//DTD SVG 1.1//EN" "http://www.w3.org/Graphics/SVG/1.1/DTD/svg11.dtd"><svg t="1721047706198" class="icon" viewBox="0 0 1024 1024" version="1.1" xmlns="http://www.w3.org/2000/svg" p-id="9519" xmlns:xlink="http://www.w3.org/1999/xlink" width="32" height="32"><path d="M656.411401 816.216293l-129.188408 151.290165v-162.242601h-30.445986v162.242601l-129.188408-151.290165-23.151128 19.769594 155.988995 182.675917a15.220963 15.220963 0 0 0 23.151128 0l155.988995-182.675917-23.155188-19.769594z" fill="#8B9EA4" p-id="9520"></path><path d="M651.03667 411.020813h304.459861v30.445986h-304.459861z" fill="#41494E" p-id="9521"></path><path d="M68.503469 411.020813h304.459861v30.445986h-304.459861z" fill="#728287" p-id="9522"></path><path d="M405.439049 60.891972h274.013875v182.675917h-274.013875z" fill="#292C32" p-id="9523"></path><path d="M344.547076 60.891972h274.013875v182.675917h-274.013875z" fill="#41494E" p-id="9524"></path><path d="M527.222993 628.863873h121.783945v162.953007h-121.783945z" fill="#292C32" p-id="9525"></path><path d="M374.993062 628.863873h213.121903v162.953007h-213.121903z" fill="#41494E" p-id="9526"></path><path d="M649.006938 670.032936l-60.891973-162.953007 121.783945 101.839793v61.113214z" fill="#FFA433" p-id="9527"></path><path d="M314.10109 670.032936V608.919722l334.905848-101.839793v162.953007z" fill="#FFC43B" p-id="9528"></path><path d="M671.354291 866.14974L588.114965 730.703667l60.891973 0.006089c48.896254 31.899275 87.197304 80.123687 108.590683 135.446074l-86.24333-0.00609z" fill="#ADF5FF" p-id="9529"></path><path d="M266.402379 866.15583c21.39338-55.322387 59.69443-103.548829 108.590683-135.446074l213.121903-0.006089c37.46886 31.899275 66.839088 80.123687 83.239326 135.446073l-404.951912 0.00609z" fill="#D6FAFF" p-id="9530"></path><path d="M649.006938 121.783944h60.891972V0h-60.891972l-89.308226 60.891972z" fill="#FFA433" p-id="9531"></path><path d="M314.10109 0h334.905848v121.783944h-334.905848z" fill="#FFC43B" p-id="9532"></path><path d="M190.287413 669.811695h60.891973V426.243806l-121.783945-60.891973z" fill="#292C32" p-id="9533"></path><path d="M129.395441 669.811695h60.891972V426.243806l-121.783944-60.891973z" fill="#41494E" p-id="9534"></path><path d="M7.611497 426.243806v243.567889h121.783944V334.905847z" fill="#5A656B" p-id="9535"></path><path d="M190.287413 426.243806h60.891973V182.675917h-60.891973l-89.308226 121.783944z" fill="#41494E" p-id="9536"></path><path d="M129.395441 426.243806h60.891972V182.675917h-60.891972l-89.308226 121.783944z" fill="#5A656B" p-id="9537"></path><path d="M7.611497 182.675917h121.783944v243.567889h-121.783944z" fill="#728287" p-id="9538"></path><path d="M955.496531 669.811695h60.891972V426.243806l-121.783944-60.891973z" fill="#292C32" p-id="9539"></path><path d="M894.604559 669.811695h60.891972V426.243806l-121.783944-60.891973z" fill="#41494E" p-id="9540"></path><path d="M772.820614 426.243806v243.567889h121.783945V334.905847z" fill="#5A656B" p-id="9541"></path><path d="M955.496531 426.243806h60.891972V182.675917h-60.891972l-89.308226 121.783944z" fill="#41494E" p-id="9542"></path><path d="M894.604559 426.243806h60.891972V182.675917h-60.891972l-89.308226 121.783944z" fill="#5A656B" p-id="9543"></path><path d="M772.820614 182.675917h121.783945v243.567889h-121.783945z" fill="#728287" p-id="9544"></path><path d="M649.006938 608.919722h60.891972V182.675917h-60.891972l-180.646185 213.121903z" fill="#ADF5FF" p-id="9545"></path><path d="M314.10109 487.135778v121.783944h121.783945l60.891972-182.675916z" fill="#5AECFF" p-id="9546"></path><path d="M435.885035 182.675917h-121.783945v304.459861h182.675917z" fill="#A3BBC0" p-id="9547"></path><path d="M435.885035 182.675917h213.121903v426.243805h-213.121903z" fill="#D6FAFF" p-id="9548"></path><path d="M649.006938 243.567889m-15.222994 0a15.222993 15.222993 0 1 0 30.445987 0 15.222993 15.222993 0 1 0-30.445987 0Z" fill="#5AECFF" p-id="9549"></path><path d="M649.006938 304.459861m-15.222994 0a15.222993 15.222993 0 1 0 30.445987 0 15.222993 15.222993 0 1 0-30.445987 0Z" fill="#5AECFF" p-id="9550"></path><path d="M649.006938 365.351833m-15.222994 0a15.222993 15.222993 0 1 0 30.445987 0 15.222993 15.222993 0 1 0-30.445987 0Z" fill="#5AECFF" p-id="9551"></path></svg>