<?xml version="1.0" standalone="no"?><!DOCTYPE svg PUBLIC "-//W3C//DTD SVG 1.1//EN" "http://www.w3.org/Graphics/SVG/1.1/DTD/svg11.dtd"><svg t="1721047816903" class="icon" viewBox="0 0 1024 1024" version="1.1" xmlns="http://www.w3.org/2000/svg" p-id="11302" xmlns:xlink="http://www.w3.org/1999/xlink" width="32" height="32"><path d="M461.595745 769.11291C518.55522 799.192632 583.514621 815.992478 652.313986 815.992478c113.91895 0 217.117998-46.079575 291.677312-120.798887L360.796674 111.998968A410.716214 410.716214 0 0 0 239.997788 403.676279c0 113.758951 46.079575 216.958 120.798886 291.517312 1.279988 1.279988 2.399978 2.399978 3.679966 3.519968l97.119105 70.399351z" fill="#54FEBD" p-id="11303"></path><path d="M880.311885 1023.99056a1.359987 1.359987 0 0 1-0.319997 0H15.999853a15.999853 15.999853 0 0 1-15.999853-15.999852c0-44.111593 35.887669-79.999263 79.999263-79.999263h735.993215a80.095262 80.095262 0 0 1 79.919263 76.431295A15.999853 15.999853 0 0 1 880.311885 1023.99056zM34.71968 991.990855h826.55238A48.095557 48.095557 0 0 0 815.992478 959.99115H79.999263a48.095557 48.095557 0 0 0-45.279583 31.999705z" fill="#1D1B4C" p-id="11304"></path><path d="M559.994838 959.99115H335.996903a15.983853 15.983853 0 0 1-15.391859-20.383812l61.759431-216.318006a16.031852 16.031852 0 0 1 30.783716 8.767919L357.196707 927.991445h181.598326l-55.951484-195.934194a15.999853 15.999853 0 0 1 30.783716-8.767919l61.759431 216.318006A15.983853 15.983853 0 0 1 559.994838 959.99115z" fill="#1D1B4C" p-id="11305"></path><path d="M700.313544 767.99292c-69.279361 0-137.822729-16.847845-198.190173-48.735551a15.983853 15.983853 0 1 1 14.927862-28.287739C572.842719 720.409359 636.218135 735.993215 700.313544 735.993215c100.703072 0 195.566197-37.167657 268.829522-105.007032L409.004229 70.831347C341.164855 144.110671 303.997198 238.957797 303.997198 339.676869c0 105.983023 41.23162 205.486106 116.094929 280.189417 1.08799 1.08799 1.919982 1.951982 2.895974 2.783974a16.015852 16.015852 0 0 1-21.023807 24.127778c-1.503986-1.311988-2.815974-2.607976-4.30396-4.079963C316.557082 561.770821 271.997493 454.219813 271.997493 339.676869c0-114.638943 44.559589-222.237951 125.502843-303.005207a15.999853 15.999853 0 0 1 22.607791 0.016l583.194624 583.194623a15.999853 15.999853 0 0 1 0.016 22.623792C922.551495 723.417331 814.952487 767.99292 700.313544 767.99292z" fill="#1D1B4C" p-id="11306"></path><path d="M386.668435 203.646123a15.999853 15.999853 0 0 1-14.367867-22.975789 361.756665 361.756665 0 0 1 27.423747-47.119565 15.999853 15.999853 0 1 1 26.335757 18.159832 330.668952 330.668952 0 0 0-24.991769 42.927605 15.999853 15.999853 0 0 1-14.399868 9.007917zM378.332512 489.003492a15.999853 15.999853 0 0 1-14.767864-9.871909c-29.27973-70.687348-35.439673-150.846609-17.35984-225.709919a15.999853 15.999853 0 0 1 31.087714 7.51993c-16.495848 68.31937-10.8799 141.470696 15.839854 205.934102a15.999853 15.999853 0 0 1-14.799864 22.127796zM447.99587 767.99292c-44.111593 0-79.999263-35.887669-79.999262-79.999262s35.887669-79.999263 79.999262-79.999263 79.999263 35.887669 79.999263 79.999263-35.887669 79.999263-79.999263 79.999262z m0-127.99882c-26.463756 0-47.999558 21.535801-47.999557 47.999558s21.535801 47.999558 47.999557 47.999557 47.999558-21.535801 47.999558-47.999557-21.535801-47.999558-47.999558-47.999558zM959.99115 127.99882a63.567414 63.567414 0 0 1-45.247583-18.751827C902.647679 97.167104 895.99174 81.087252 895.99174 63.99941s6.655939-33.167694 18.751827-45.263583c24.191777-24.159777 66.303389-24.159777 90.495166 0C1017.334621 30.847716 1023.99056 46.911568 1023.99056 63.99941s-6.655939 33.167694-18.751827 45.263583S977.078993 127.99882 959.99115 127.99882z m0-95.999115c-8.543921 0-16.575847 3.327969-22.623791 9.375914S927.991445 55.455489 927.991445 63.99941s3.327969 16.575847 9.375914 22.623791c12.095888 12.095888 33.151694 12.095888 45.247583 0C988.662886 80.575257 991.990855 72.543331 991.990855 63.99941s-3.327969-16.575847-9.375913-22.623791A31.759707 31.759707 0 0 0 959.99115 31.999705z" fill="#1D1B4C" p-id="11307"></path><path d="M692.473616 347.676795a15.967853 15.967853 0 0 1-11.311895-27.311748l233.597846-233.757845a15.999853 15.999853 0 0 1 22.623791 22.623791l-233.597846 233.757845a15.951853 15.951853 0 0 1-11.311896 4.687957z" fill="#1D1B4C" p-id="11308"></path><path d="M831.352336 486.555515a15.999853 15.999853 0 0 1-15.519857-19.951817l94.735127-372.636564a15.999853 15.999853 0 1 1 31.007714 7.903927l-94.719127 372.636565a15.999853 15.999853 0 0 1-15.487857 12.047889z" fill="#1D1B4C" p-id="11309"></path><path d="M552.634905 207.838084a15.999853 15.999853 0 0 1-3.903964-31.519709l373.436558-93.919135a15.999853 15.999853 0 0 1 7.807928 31.039714l-373.436558 93.919134c-1.311988 0.319997-2.623976 0.479996-3.919963 0.479996zM831.99233 639.9941c-4.159962 0-8.319923-1.759984-11.359895-4.639957A16.479848 16.479848 0 0 1 815.992478 623.994248c0-4.159962 1.759984-8.319923 4.639957-11.359896 5.919945-5.919945 16.799845-5.919945 22.71979 0 3.039972 3.039972 4.639957 7.199934 4.639958 11.359896 0 4.159962-1.599985 8.319923-4.639958 11.359895-3.039972 2.879973-7.199934 4.639957-11.359895 4.639957zM831.99233 575.99469c-4.159962 0-8.319923-1.759984-11.359895-4.639957a16.191851 16.191851 0 0 1 0-22.719791c6.079944-5.919945 16.639847-5.919945 22.71979 0 3.039972 3.039972 4.639957 7.199934 4.639958 11.359896 0 4.159962-1.599985 8.319923-4.639958 11.359895-3.039972 2.879973-7.199934 4.639957-11.359895 4.639957zM767.99292 639.9941c-4.159962 0-8.319923-1.759984-11.359895-4.639957-2.879973-3.039972-4.639957-7.199934-4.639957-11.359895 0-4.31996 1.759984-8.319923 4.639957-11.359896 5.919945-5.919945 16.799845-5.919945 22.71979 0 2.879973 3.039972 4.639957 7.039935 4.639958 11.359896 0 4.159962-1.759984 8.319923-4.639958 11.359895-3.039972 2.879973-7.039935 4.639957-11.359895 4.639957zM767.99292 703.99351c-4.159962 0-8.319923-1.759984-11.359895-4.639957-2.879973-3.039972-4.639957-7.199934-4.639957-11.359895 0-4.159962 1.759984-8.319923 4.639957-11.359896 5.919945-5.919945 16.799845-5.919945 22.71979 0 2.879973 3.039972 4.639957 7.199934 4.639958 11.359896 0 4.159962-1.759984 8.319923-4.639958 11.359895-3.039972 2.879973-7.199934 4.639957-11.359895 4.639957zM767.99292 575.99469c-4.159962 0-8.319923-1.599985-11.359895-4.639957A16.479848 16.479848 0 0 1 751.993068 559.994838c0-4.159962 1.759984-8.319923 4.639957-11.359896 5.919945-5.919945 16.799845-5.919945 22.71979 0 2.879973 3.039972 4.639957 7.199934 4.639958 11.359896 0 4.159962-1.759984 8.319923-4.639958 11.359895-3.039972 2.879973-7.199934 4.639957-11.359895 4.639957zM703.99351 639.9941c-4.31996 0-8.479922-1.759984-11.359895-4.639957-2.879973-3.039972-4.639957-7.199934-4.639957-11.359895 0-4.159962 1.759984-8.319923 4.639957-11.359896 5.919945-5.919945 16.639847-5.919945 22.71979 0 2.879973 3.039972 4.639957 7.199934 4.639958 11.359896 0 4.159962-1.759984 8.319923-4.639958 11.359895-3.039972 2.879973-7.039935 4.639957-11.359895 4.639957zM703.99351 703.99351c-4.31996 0-8.479922-1.759984-11.359895-4.639957A16.479848 16.479848 0 0 1 687.993658 687.993658c0-4.159962 1.759984-8.319923 4.639957-11.359896 5.759947-5.919945 16.799845-5.919945 22.71979 0 2.879973 3.039972 4.639957 7.199934 4.639958 11.359896 0 4.159962-1.759984 8.319923-4.639958 11.359895-3.039972 2.879973-7.039935 4.639957-11.359895 4.639957zM703.99351 575.99469c-4.159962 0-8.319923-1.759984-11.359895-4.639957-2.879973-3.039972-4.639957-7.199934-4.639957-11.359895 0-4.159962 1.759984-8.319923 4.639957-11.359896 5.919945-5.919945 16.799845-5.919945 22.71979 0 2.879973 3.039972 4.639957 7.199934 4.639958 11.359896 0 4.159962-1.759984 8.319923-4.639958 11.359895-3.039972 2.879973-7.199934 4.639957-11.359895 4.639957zM639.9941 639.9941c-4.159962 0-8.319923-1.759984-11.359895-4.639957-2.879973-3.039972-4.639957-7.199934-4.639957-11.359895 0-4.159962 1.759984-8.319923 4.639957-11.359896 5.919945-5.919945 16.799845-5.919945 22.71979 0 2.879973 3.039972 4.639957 7.199934 4.639958 11.359896 0 4.159962-1.759984 8.319923-4.799956 11.359895-2.879973 2.879973-7.039935 4.639957-11.199897 4.639957zM639.9941 703.99351c-4.159962 0-8.319923-1.759984-11.359895-4.639957-2.879973-3.039972-4.639957-7.199934-4.639957-11.359895 0-4.159962 1.759984-8.319923 4.639957-11.359896 5.919945-5.919945 16.799845-5.919945 22.71979 0 2.879973 3.039972 4.639957 7.199934 4.639958 11.359896 0 4.159962-1.759984 8.319923-4.639958 11.359895-3.039972 2.879973-7.039935 4.639957-11.359895 4.639957zM639.9941 575.99469c-4.159962 0-8.319923-1.759984-11.359895-4.639957-2.879973-3.039972-4.639957-7.199934-4.639957-11.359895 0-4.159962 1.759984-8.319923 4.639957-11.359896 6.079944-5.919945 16.799845-5.919945 22.71979 0 2.879973 3.039972 4.639957 7.199934 4.639958 11.359896 0 4.159962-1.759984 8.319923-4.799956 11.359895-2.879973 2.879973-6.879937 4.639957-11.199897 4.639957zM767.99292 511.99528c-4.159962 0-8.319923-1.759984-11.359895-4.639957-2.879973-3.039972-4.639957-7.199934-4.639957-11.359895 0-4.31996 1.759984-8.319923 4.639957-11.359896 5.919945-5.919945 16.799845-5.919945 22.71979 0 2.879973 3.039972 4.639957 7.039935 4.639958 11.359896 0 4.159962-1.759984 8.319923-4.639958 11.359895-3.039972 2.879973-7.039935 4.639957-11.359895 4.639957zM703.99351 447.99587c-4.159962 0-8.319923-1.759984-11.359895-4.639957-2.879973-3.039972-4.639957-7.199934-4.639957-11.359895 0-4.159962 1.759984-8.319923 4.639957-11.359896 5.919945-5.919945 16.799845-5.919945 22.71979 0 2.879973 3.039972 4.639957 7.199934 4.639958 11.359896 0 4.159962-1.759984 8.319923-4.639958 11.359895-3.039972 2.879973-7.199934 4.639957-11.359895 4.639957zM703.99351 511.99528c-4.31996 0-8.319923-1.759984-11.359895-4.639957-2.879973-3.039972-4.639957-7.199934-4.639957-11.359895 0-4.31996 1.759984-8.319923 4.639957-11.359896 5.759947-5.759947 16.639847-5.919945 22.71979 0 2.879973 3.039972 4.639957 7.199934 4.639958 11.359896 0 4.159962-1.759984 8.319923-4.639958 11.359895-3.039972 2.879973-7.039935 4.639957-11.359895 4.639957zM639.9941 447.99587c-4.159962 0-8.319923-1.759984-11.359895-4.639957-2.879973-3.039972-4.639957-7.199934-4.639957-11.359895 0-4.159962 1.759984-8.319923 4.639957-11.359896 5.919945-5.919945 16.799845-5.919945 22.71979 0 2.879973 3.039972 4.639957 7.199934 4.639958 11.359896 0 4.159962-1.759984 8.319923-4.799956 11.359895-2.879973 2.879973-7.039935 4.639957-11.199897 4.639957zM639.9941 511.99528c-4.31996 0-8.319923-1.759984-11.359895-4.639957-2.879973-3.039972-4.639957-7.199934-4.639957-11.359895 0-4.159962 1.759984-8.319923 4.639957-11.359896 5.919945-5.919945 16.799845-5.919945 22.71979 0 2.879973 3.039972 4.639957 7.199934 4.639958 11.359896 0 4.159962-1.759984 8.319923-4.639958 11.359895-3.039972 2.879973-7.039935 4.639957-11.359895 4.639957zM639.9941 383.99646c-4.159962 0-8.319923-1.759984-11.359895-4.639957-2.879973-3.039972-4.639957-7.199934-4.639957-11.359895 0-4.159962 1.759984-8.319923 4.639957-11.359896 6.079944-5.919945 16.639847-5.919945 22.71979 0 2.879973 3.039972 4.639957 7.199934 4.639958 11.359896 0 4.159962-1.759984 8.319923-4.639958 11.359895-3.039972 2.879973-7.039935 4.639957-11.359895 4.639957zM927.991445 463.995723a15.999853 15.999853 0 0 1-15.999852-15.999853v-31.999705a15.999853 15.999853 0 1 1 31.999705 0v31.999705a15.999853 15.999853 0 0 1-15.999853 15.999853z" fill="#1D1B4C" p-id="11310"></path><path d="M943.991298 447.99587h-31.999705a15.999853 15.999853 0 1 1 0-31.999705h31.999705a15.999853 15.999853 0 1 1 0 31.999705zM559.994838 95.999115c-4.159962 0-8.319923-1.759984-11.359896-4.639957A16.479848 16.479848 0 0 1 543.994985 79.999263c0-4.159962 1.759984-8.319923 4.639957-11.359896 5.919945-5.919945 16.639847-5.919945 22.719791 0 3.039972 3.039972 4.639957 7.199934 4.639957 11.359896 0 4.159962-1.759984 8.319923-4.639957 11.359895-3.039972 2.879973-7.199934 4.639957-11.359895 4.639957zM751.993068 63.99941a15.999853 15.999853 0 0 1-15.999853-15.999852V15.999853a15.999853 15.999853 0 1 1 31.999705 0v31.999705a15.999853 15.999853 0 0 1-15.999852 15.999852z" fill="#1D1B4C" p-id="11311"></path><path d="M767.99292 47.999558h-31.999705a15.999853 15.999853 0 1 1 0-31.999705h31.999705a15.999853 15.999853 0 1 1 0 31.999705zM975.991003 191.99823c-4.159962 0-8.319923-1.759984-11.359896-4.639957a16.191851 16.191851 0 0 1 0-22.719791c5.919945-5.919945 16.639847-5.919945 22.719791 0 2.879973 3.039972 4.639957 7.199934 4.639957 11.359896 0 4.159962-1.759984 8.319923-4.639957 11.359895-3.039972 2.879973-7.199934 4.639957-11.359895 4.639957zM1007.990708 335.996903c-4.159962 0-8.319923-1.599985-11.359896-4.639958-2.879973-3.039972-4.639957-7.199934-4.639957-11.359895 0-4.159962 1.759984-8.319923 4.639957-11.359895 6.079944-5.919945 16.639847-5.919945 22.719791 0 2.879973 3.039972 4.639957 7.199934 4.639957 11.359895 0 4.159962-1.759984 8.319923-4.639957 11.359895-3.039972 3.039972-7.199934 4.639957-11.359895 4.639958z" fill="#1D1B4C" p-id="11312"></path></svg>