<?xml version="1.0" standalone="no"?><!DOCTYPE svg PUBLIC "-//W3C//DTD SVG 1.1//EN" "http://www.w3.org/Graphics/SVG/1.1/DTD/svg11.dtd"><svg t="1721047986957" class="icon" viewBox="0 0 1024 1024" version="1.1" xmlns="http://www.w3.org/2000/svg" p-id="21424" xmlns:xlink="http://www.w3.org/1999/xlink" width="32" height="32"><path d="M360.000024 487.983924h303.999952v447.99993h-303.999952z" fill="#40C4FF" p-id="21425"></path><path d="M663.999976 943.983853h-303.999952a7.999999 7.999999 0 0 1-7.999999-7.999999v-447.99993a7.999999 7.999999 0 0 1 7.999999-7.999999h303.999952a7.999999 7.999999 0 0 1 7.999999 7.999999v447.99993a7.999999 7.999999 0 0 1-7.999999 7.999999z m-295.999954-15.999998h287.999956v-431.999932H368.000022v431.999932z" fill="#263238" p-id="21426"></path><path d="M580.783989 1023.98384h-137.567978c-14.655998 0-28.335996-6.559999-37.487994-17.999997l-51.983992-64.99199a7.967999 7.967999 0 0 1 6.239999-12.991998h303.999952a7.983999 7.983999 0 0 1 6.239999 12.991998l-51.983992 64.99199a47.695993 47.695993 0 0 1-37.455994 17.999997z m-204.143968-79.999987l41.599994 51.999991c6.095999 7.631999 15.199998 11.999998 24.991996 11.999999H580.799989a31.839995 31.839995 0 0 0 24.991996-11.999999l41.599994-51.999991H376.640021z" fill="#263238" p-id="21427"></path><path d="M504.000001 391.983939c106.031983 0 191.99997-85.967987 191.99997-191.99997h-383.99994c0 106.047983 85.967987 191.99997 191.99997 191.99997z" fill="#FFD740" p-id="21428"></path><path d="M504.000001 399.983938c-110.287983 0-199.999969-89.711986-199.999969-199.999969a7.999999 7.999999 0 0 1 7.999999-7.999999h383.99994a7.999999 7.999999 0 0 1 7.999999 7.999999c0 110.287983-89.711986 199.999969-199.999969 199.999969z m-183.823971-191.99997c4.207999 97.759985 85.039987 175.999973 183.823971 175.999972s179.631972-78.239988 183.823972-175.999972H320.17603z" fill="#263238" p-id="21429"></path><path d="M504.000001 351.983945a7.999999 7.999999 0 0 1 0-15.999997 136.335979 136.335979 0 0 0 128.23998-90.671986 8.079999 8.079999 0 0 1 10.223999-4.88 8.031999 8.031999 0 0 1 4.879999 10.223999 152.431976 152.431976 0 0 1-143.343978 101.327984zM663.999976 495.983923h-303.999952a7.999999 7.999999 0 0 1-5.663999-13.663998l75.007988-74.991989a7.999999 7.999999 0 0 1 11.311998 11.311999l-61.34399 61.32799h263.839959l-70.04799-63.02399a7.999999 7.999999 0 1 1 10.687999-11.903998l85.551986 76.991988a7.999999 7.999999 0 0 1-5.343999 13.951998zM328.000029 863.983865H48.000072a7.999999 7.999999 0 0 1-7.999998-7.999999v-287.999955a7.999999 7.999999 0 0 1 7.999998-7.999998h279.999957a7.999999 7.999999 0 0 1 0 15.999997h-271.999958v271.999958h271.999958a7.999999 7.999999 0 0 1 0 15.999997z" fill="#263238" p-id="21430"></path><path d="M128.00006 863.983865a7.999999 7.999999 0 0 1-7.999999-7.999999v-287.999955a7.999999 7.999999 0 0 1 15.999998 0v287.999955a7.999999 7.999999 0 0 1-7.999999 7.999999zM208.000047 863.983865a7.999999 7.999999 0 0 1-7.999998-7.999999v-287.999955a7.999999 7.999999 0 0 1 15.999997 0v287.999955a7.999999 7.999999 0 0 1-7.999999 7.999999zM288.000035 863.983865a7.999999 7.999999 0 0 1-7.999999-7.999999v-287.999955a7.999999 7.999999 0 0 1 15.999998 0v287.999955a7.999999 7.999999 0 0 1-7.999999 7.999999z" fill="#263238" p-id="21431"></path><path d="M328.000029 719.983888H48.000072a7.999999 7.999999 0 0 1 0-15.999998h279.999957a7.999999 7.999999 0 0 1 0 15.999998z" fill="#263238" p-id="21432"></path><path d="M472.000006 599.983906h79.999988v191.99997h-79.999988z" fill="#FFFFFF" p-id="21433"></path><path d="M551.999994 799.983875h-79.999988a7.999999 7.999999 0 0 1-7.999999-7.999999v-191.99997a7.999999 7.999999 0 0 1 7.999999-7.999998h79.999988a7.999999 7.999999 0 0 1 7.999999 7.999998v191.99997a7.999999 7.999999 0 0 1-7.999999 7.999999z m-71.999989-15.999997h63.99999v-175.999973h-63.99999v175.999973zM551.999994 559.983913h-79.999988a7.999999 7.999999 0 0 1 0-15.999998h79.999988a7.999999 7.999999 0 0 1 0 15.999998zM504.000001 95.983985c-22.063997 0-39.999994-17.935997-39.999994-39.999994s17.935997-39.999994 39.999994-39.999993S543.999995 33.919995 543.999995 55.983991s-17.935997 39.999994-39.999994 39.999994z m0-63.99999c-13.231998 0-23.999996 10.767998-23.999996 23.999996s10.767998 23.999996 23.999996 23.999997 23.999996-10.767998 23.999997-23.999997-10.767998-23.999996-23.999997-23.999996z" fill="#263238" p-id="21434"></path><path d="M475.776006 175.983973a7.983999 7.983999 0 0 1-7.967999-8.943999l10.079998-85.663987a7.807999 7.807999 0 0 1 8.879999-7.007999c4.383999 0.512 7.535999 4.479999 7.007999 8.879999l-10.079999 85.663987a7.967999 7.967999 0 0 1-7.919998 7.071999zM532.223997 175.983973a7.999999 7.999999 0 0 1-7.919999-7.055999l-10.079998-85.663987a7.999999 7.999999 0 0 1 7.007999-8.879999 7.903999 7.903999 0 0 1 8.879998 7.007999l10.079999 85.663987a7.999999 7.999999 0 0 1-7.967999 8.927999zM839.999949 47.983993h-63.99999a7.999999 7.999999 0 0 1 0-15.999998h63.99999a7.999999 7.999999 0 0 1 0 15.999998z" fill="#263238" p-id="21435"></path><path d="M807.999954 79.983988a7.999999 7.999999 0 0 1-7.999999-7.999999v-63.99999a7.999999 7.999999 0 0 1 15.999998 0v63.99999a7.999999 7.999999 0 0 1-7.999999 7.999999zM943.999933 151.983976h-63.99999a7.999999 7.999999 0 0 1 0-15.999997h63.99999a7.999999 7.999999 0 0 1 0 15.999997z" fill="#263238" p-id="21436"></path><path d="M911.999938 183.983971a7.999999 7.999999 0 0 1-7.999999-7.999998v-63.99999a7.999999 7.999999 0 0 1 15.999997 0v63.99999a7.999999 7.999999 0 0 1-7.999998 7.999998zM64.00007 407.983936H48.000072a7.999999 7.999999 0 0 1 0-15.999997h15.999998a7.999999 7.999999 0 0 1 0 15.999997zM296.000034 407.983936H96.000065a7.999999 7.999999 0 0 1 0-15.999997h199.999969a7.999999 7.999999 0 0 1 0 15.999997zM975.999928 407.983936h-15.999998a7.999999 7.999999 0 0 1 0-15.999997h15.999998a7.999999 7.999999 0 0 1 0 15.999997zM927.999935 407.983936H727.999966a7.999999 7.999999 0 0 1 0-15.999997H927.999935a7.999999 7.999999 0 0 1 0 15.999997zM975.999928 863.983865H695.999971a7.999999 7.999999 0 0 1 0-15.999997h271.999958v-271.999958h-271.999958a7.999999 7.999999 0 0 1 0-15.999997H975.999928a7.999999 7.999999 0 0 1 7.999998 7.999998v287.999955a7.999999 7.999999 0 0 1-7.999998 7.999999z" fill="#263238" p-id="21437"></path><path d="M895.99994 863.983865a7.999999 7.999999 0 0 1-7.999999-7.999999v-287.999955a7.999999 7.999999 0 0 1 15.999998 0v287.999955a7.999999 7.999999 0 0 1-7.999999 7.999999z" fill="#263238" p-id="21438"></path><path d="M815.999953 863.983865a7.999999 7.999999 0 0 1-7.999999-7.999999v-287.999955a7.999999 7.999999 0 0 1 15.999997 0v287.999955a7.999999 7.999999 0 0 1-7.999998 7.999999z" fill="#263238" p-id="21439"></path><path d="M735.999965 863.983865a7.999999 7.999999 0 0 1-7.999999-7.999999v-287.999955a7.999999 7.999999 0 0 1 15.999998 0v287.999955a7.999999 7.999999 0 0 1-7.999999 7.999999z" fill="#263238" p-id="21440"></path><path d="M975.999928 719.983888H695.999971a7.999999 7.999999 0 0 1 0-15.999998H975.999928a7.999999 7.999999 0 0 1 0 15.999998z" fill="#263238" p-id="21441"></path></svg>