<?xml version="1.0" standalone="no"?><!DOCTYPE svg PUBLIC "-//W3C//DTD SVG 1.1//EN" "http://www.w3.org/Graphics/SVG/1.1/DTD/svg11.dtd"><svg t="1721047809432" class="icon" viewBox="0 0 1024 1024" version="1.1" xmlns="http://www.w3.org/2000/svg" p-id="11141" xmlns:xlink="http://www.w3.org/1999/xlink" width="32" height="32"><path d="M902.24 774.24A470.24 470.24 0 0 1 648.64 848c-130.56 0-248.64-52.96-334.24-138.4C228.96 624 176 505.92 176 375.36c0-93.28 27.04-180.32 73.76-253.6l652.48 652.48z" fill="#54FEBD" p-id="11142"></path><path d="M1008 288a16 16 0 0 1-16-16c0-132.336-107.664-240-240-240a16 16 0 1 1 0-32c149.984 0 272 122.016 272 272a16 16 0 0 1-16 16z" fill="#1D1B4C" p-id="11143"></path><path d="M912 288a16 16 0 0 1-16-16c0-79.408-64.592-144-144-144a16 16 0 1 1 0-32c97.04 0 176 78.96 176 176a16 16 0 0 1-16 16zM784 288a47.616 47.616 0 0 1-33.952-14.08C740.992 264.912 736 252.848 736 240s5.008-24.912 14.08-33.952c18.032-18.08 49.776-18.128 67.872 0.032 9.056 9.008 14.048 21.072 14.048 33.92s-5.008 24.912-14.08 33.952A47.584 47.584 0 0 1 784 288z m0-64a15.824 15.824 0 0 0-11.296 4.672c-3.04 3.04-4.704 7.04-4.704 11.328s1.664 8.304 4.672 11.296c6.064 6.08 16.624 6.064 22.624 0.032 3.04-3.04 4.704-7.04 4.704-11.328s-1.664-8.304-4.672-11.296A15.84 15.84 0 0 0 784 224z" fill="#1D1B4C" p-id="11144"></path><path d="M680.64 359.36a16 16 0 0 1-11.312-27.312l80.8-80.8a16 16 0 1 1 22.624 22.624l-80.8 80.8a15.952 15.952 0 0 1-11.312 4.688z" fill="#1D1B4C" p-id="11145"></path><path d="M680.672 832c-130.512 0-253.232-50.832-345.552-143.12C242.832 596.56 192 473.84 192 343.328c0-124.16 46.608-242.496 131.248-333.248 11.84-12.688 33.824-12.96 46.192-0.608L1014.528 654.56c6.176 6.176 9.632 14.72 9.472 23.44a31.568 31.568 0 0 1-10.064 22.72A486.992 486.992 0 0 1 680.672 832zM346.816 32.096A453.728 453.728 0 0 0 224 343.328c0 121.968 47.504 236.656 133.76 322.928C444 752.48 558.688 800 680.656 800a455.168 455.168 0 0 0 311.44-122.656L346.816 32.096z" fill="#1D1B4C" p-id="11146"></path><path d="M286.336 256a16 16 0 0 1-15.456-20.224c0.816-2.96 1.664-5.92 2.544-8.88a16 16 0 1 1 30.688 9.088c-0.816 2.72-1.6 5.488-2.352 8.24a16 16 0 0 1-15.424 11.776zM302.592 518.304a16 16 0 0 1-14.784-9.888 418.016 418.016 0 0 1-23.728-78.4 429.04 429.04 0 0 1-4.64-137.008c1.136-8.752 9.12-14.768 17.92-13.84a16 16 0 0 1 13.84 17.92 396.8 396.8 0 0 0 4.256 126.72 385.696 385.696 0 0 0 21.92 72.368 16 16 0 0 1-14.784 22.128zM320 800c-52.944 0-96-43.056-96-96a95.792 95.792 0 0 1 72.208-92.944c8.544-2.24 17.264 2.992 19.456 11.552s-2.992 17.28-11.552 19.456A63.856 63.856 0 0 0 256 704c0 35.296 28.704 64 64 64a63.856 63.856 0 0 0 61.936-48.112 16 16 0 1 1 31.008 7.904A95.792 95.792 0 0 1 320 800z" fill="#1D1B4C" p-id="11147"></path><path d="M188.784 960a16.032 16.032 0 0 1-14.576-22.576l80.32-178.24a16.032 16.032 0 0 1 29.184 13.152l-80.32 178.24a16 16 0 0 1-14.608 9.424zM451.216 960c-6.112 0-11.936-3.52-14.608-9.44l-79.6-176.96a15.808 15.808 0 0 1-2.032-7.84c0-8.832 7.056-16 15.904-16h0.16a16 16 0 0 1 14.608 9.44l80.16 178.24A16 16 0 0 1 451.2 960zM624 1024H16a16 16 0 1 1 0-32h608a16 16 0 1 1 0 32zM736 752c-4.16 0-8.32-1.76-11.36-4.64-2.88-3.04-4.64-7.2-4.64-11.36s1.76-8.32 4.64-11.36c6.08-5.92 16.64-5.92 22.72 0 2.88 3.04 4.64 7.2 4.64 11.36s-1.76 8.32-4.64 11.36c-3.04 2.88-7.2 4.64-11.36 4.64zM800 688a16.128 16.128 0 0 1-16-16c0-4.16 1.76-8.32 4.64-11.36 5.76-5.92 16.8-5.92 22.72 0 2.88 3.04 4.64 7.2 4.64 11.36s-1.76 8.32-4.64 11.36c-3.04 2.88-7.04 4.64-11.36 4.64zM736 688a16.128 16.128 0 0 1-16-16c0-4.32 1.76-8.32 4.64-11.36 5.92-5.92 16.8-5.92 22.72 0 2.88 3.04 4.64 7.2 4.64 11.36s-1.76 8.32-4.64 11.36c-3.04 2.88-7.04 4.64-11.36 4.64zM736 624c-4.16 0-8.32-1.76-11.36-4.64A16.8 16.8 0 0 1 720 608c0-4.32 1.76-8.32 4.64-11.36 5.92-5.92 16.8-5.92 22.72 0 2.88 3.04 4.64 7.2 4.64 11.36s-1.76 8.32-4.64 11.36c-3.04 2.88-7.2 4.64-11.36 4.64zM672 752c-4.32 0-8.32-1.76-11.36-4.64-2.88-3.04-4.64-7.2-4.64-11.36s1.76-8.32 4.64-11.36c6.08-5.92 16.64-5.92 22.72 0 2.88 3.04 4.64 7.2 4.64 11.36s-1.76 8.32-4.8 11.36c-2.88 2.88-7.04 4.64-11.2 4.64zM608 752c-4.16 0-8.32-1.76-11.36-4.64-2.88-3.04-4.64-7.2-4.64-11.36s1.76-8.32 4.64-11.36c5.92-5.92 16.64-5.92 22.72 0 2.88 3.04 4.64 7.2 4.64 11.36s-1.76 8.32-4.64 11.36c-3.04 2.88-7.2 4.64-11.36 4.64zM544 752c-4.16 0-8.32-1.76-11.36-4.64-2.88-3.04-4.64-7.04-4.64-11.36 0-4.32 1.76-8.32 4.64-11.36 6.08-5.92 16.64-5.92 22.72 0 2.88 3.04 4.64 7.2 4.64 11.36s-1.76 8.32-4.64 11.36c-3.04 2.88-7.2 4.64-11.36 4.64zM400 752c-4.32 0-8.32-1.76-11.36-4.64-2.88-3.04-4.64-7.2-4.64-11.36s1.76-8.32 4.64-11.36c5.92-5.92 16.64-5.92 22.72 0 2.88 3.04 4.64 7.2 4.64 11.36s-1.76 8.32-4.64 11.36c-3.04 2.88-7.2 4.64-11.36 4.64zM672 688a16.128 16.128 0 0 1-16-16c0-4.32 1.76-8.32 4.64-11.36 5.92-5.92 16.8-5.92 22.72 0 2.88 3.04 4.64 7.2 4.64 11.36s-1.76 8.32-4.64 11.36c-3.04 2.88-7.2 4.64-11.36 4.64zM608 688a16 16 0 0 1-11.36-4.8 15.84 15.84 0 0 1-4.64-11.2c0-4.32 1.76-8.32 4.64-11.36 5.92-5.92 16.8-5.92 22.72 0 2.88 3.04 4.64 7.04 4.64 11.36 0 4.32-1.76 8.32-4.8 11.36-2.88 2.88-6.88 4.64-11.2 4.64zM672 624c-4.16 0-8.32-1.76-11.36-4.64-2.88-3.04-4.64-7.2-4.64-11.36s1.76-8.32 4.64-11.36c5.92-5.92 16.8-5.92 22.72 0 2.88 3.04 4.64 7.2 4.64 11.36s-1.76 8.32-4.64 11.36c-3.04 2.88-7.2 4.64-11.36 4.64zM608 624c-4.32 0-8.32-1.76-11.36-4.64-2.88-3.04-4.64-7.2-4.64-11.36s1.76-8.32 4.64-11.36c5.92-5.92 16.8-5.92 22.72 0 2.88 3.04 4.64 7.2 4.64 11.36s-1.76 8.32-4.64 11.36c-3.04 2.88-7.2 4.64-11.36 4.64zM544 624c-4.16 0-8.32-1.76-11.36-4.64A16.8 16.8 0 0 1 528 608c0-4.32 1.76-8.32 4.64-11.36 5.92-5.92 16.8-5.92 22.72 0 2.88 3.04 4.64 7.2 4.64 11.36s-1.76 8.32-4.64 11.36c-3.04 2.88-7.2 4.64-11.36 4.64zM672 560c-4.16 0-8.32-1.76-11.36-4.64A16.8 16.8 0 0 1 656 544c0-4.32 1.76-8.32 4.64-11.36 6.08-5.92 16.8-5.92 22.72 0 2.88 3.04 4.64 7.2 4.64 11.36s-1.76 8.32-4.64 11.36c-3.04 2.88-7.2 4.64-11.36 4.64zM608 560c-4.16 0-8.32-1.76-11.36-4.64-2.88-3.04-4.64-7.2-4.64-11.36s1.76-8.32 4.64-11.36c5.92-5.92 16.8-5.92 22.72 0 2.88 3.04 4.64 7.2 4.64 11.36s-1.76 8.32-4.64 11.36c-3.04 2.88-7.2 4.64-11.36 4.64zM608 496c-4.16 0-8.32-1.76-11.36-4.64-2.88-3.04-4.64-7.04-4.64-11.36 0-4.32 1.76-8.32 4.64-11.36 5.92-5.92 16.8-5.92 22.72 0 2.88 3.04 4.64 7.2 4.64 11.36s-1.76 8.32-4.64 11.36c-3.04 2.88-7.04 4.64-11.36 4.64zM544 496c-4.32 0-8.32-1.76-11.36-4.64-2.88-3.04-4.64-7.2-4.64-11.36s1.76-8.32 4.64-11.36c6.08-5.92 16.8-5.92 22.72 0 2.88 3.04 4.64 7.2 4.64 11.36s-1.76 8.32-4.64 11.36c-3.04 2.88-7.04 4.64-11.36 4.64z" fill="#1D1B4C" p-id="11148"></path><path d="M513.664 1024h-384a16 16 0 0 1-16-16v-48c0-17.648 14.368-32 32-32h352c17.648 0 32 14.352 32 32v48a16 16 0 0 1-16 16z m-368-32h352v-32h-352v32zM951.2 743.2a15.952 15.952 0 0 1-11.312-4.688l-654.4-654.4a16 16 0 1 1 22.624-22.624l654.4 654.4a16 16 0 0 1-11.312 27.312zM800 752c-4.16 0-8.32-1.76-11.36-4.64-2.88-3.04-4.64-7.2-4.64-11.36s1.76-8.32 4.64-11.36c6.08-5.92 16.64-5.92 22.72 0 2.88 3.04 4.64 7.2 4.64 11.36s-1.76 8.32-4.64 11.36c-3.04 2.88-7.2 4.64-11.36 4.64z" fill="#1D1B4C" p-id="11149"></path></svg>