<?xml version="1.0" encoding="UTF-8" standalone="no"?>
<!DOCTYPE svg PUBLIC "-//W3C//DTD SVG 1.1//EN" "http://www.w3.org/Graphics/SVG/1.1/DTD/svg11.dtd">
<!-- Created with Vectornator (http://vectornator.io/) -->
<svg height="100%" stroke-miterlimit="10" style="fill-rule:nonzero;clip-rule:evenodd;stroke-linecap:round;stroke-linejoin:round;" version="1.1" viewBox="0 0 166.17 165.79" width="100%" xml:space="preserve" xmlns="http://www.w3.org/2000/svg" xmlns:vectornator="http://vectornator.io" xmlns:xlink="http://www.w3.org/1999/xlink">
<defs/>
<clipPath id="ArtboardFrame">
<rect height="165.79" width="166.17" x="0" y="0"/>
</clipPath>
<g clip-path="url(#ArtboardFrame)" id="Untitled" vectornator:layerName="Untitled">
<g opacity="1">
<g opacity="1">
<path d="M51.58 60.53L64.65 73.6C65.25 74.2 65.25 75.16 64.65 75.76C64.05 76.36 63.09 76.36 62.49 75.76L49.42 62.68C48.82 62.08 48.82 61.12 49.42 60.52C50.01 59.93 50.98 59.93 51.58 60.53Z" fill="#3e4546" fill-rule="nonzero" opacity="1" stroke="none"/>
<path d="M64.42 47.68L77.49 60.75C78.09 61.35 78.09 62.31 77.49 62.91C76.89 63.51 75.93 63.51 75.33 62.91L62.26 49.84C61.66 49.24 61.66 48.28 62.26 47.68C62.86 47.08 63.83 47.08 64.42 47.68Z" fill="#3e4546" fill-rule="nonzero" opacity="1" stroke="none"/>
</g>
<path d="M30.44 1.81L66 37.37C68.41 39.78 68.41 43.69 66 46.1L47.84 64.26C45.43 66.67 41.52 66.67 39.11 64.26L3.55 28.7C1.14 26.29 1.14 22.38 3.55 19.97L21.7 1.81C24.11-0.6 28.02-0.6 30.44 1.81Z" fill="#bf0100" fill-rule="nonzero" opacity="1" stroke="none"/>
<path d="M32.61 33.03L20.25 45.4L22.41 47.56L34.77 35.19L55.84 56.26L58 54.1L36.93 33.03L49.3 20.67L49.3 20.67L47.14 18.51L47.14 18.51L34.77 30.88L13.7 9.81L11.55 11.97L32.61 33.03Z" fill="#edf5f7" fill-rule="nonzero" opacity="1" stroke="none"/>
<g opacity="1">
<path d="M116.33 103.91L103.26 90.84C102.66 90.24 102.66 89.28 103.26 88.68C103.86 88.08 104.82 88.08 105.42 88.68L118.49 101.75C119.09 102.35 119.09 103.31 118.49 103.91C117.89 104.5 116.93 104.5 116.33 103.91Z" fill="#3e4546" fill-rule="nonzero" opacity="1" stroke="none"/>
<path d="M103.49 116.75L90.42 103.68C89.82 103.08 89.82 102.12 90.42 101.52C91.02 100.92 91.98 100.92 92.58 101.52L105.65 114.59C106.25 115.19 106.25 116.15 105.65 116.75C105.05 117.35 104.08 117.35 103.49 116.75Z" fill="#3e4546" fill-rule="nonzero" opacity="1" stroke="none"/>
</g>
<g opacity="1">
<path d="M60.5 105.68C53.9 99.07 50.59 91.67 53.1 89.15C55.62 86.63 63.01 89.94 69.61 96.55C76.21 103.16 79.52 110.55 77 113.07C74.49 115.6 67.1 112.28 60.5 105.68Z" fill="#90a6b4" fill-rule="nonzero" opacity="1" stroke="none"/>
<path d="M76.93 113.15C76.88 113.2 76.83 113.24 76.77 113.28C76.76 113.28 76.76 113.29 76.75 113.29C76.69 113.33 76.63 113.38 76.57 113.42C76.55 113.43 76.54 113.44 76.52 113.45C76.47 113.48 76.42 113.51 76.36 113.54C76.35 113.55 76.34 113.55 76.33 113.56C76.27 113.59 76.2 113.62 76.13 113.65C76.11 113.66 76.09 113.66 76.08 113.67C76.03 113.69 75.98 113.71 75.92 113.73C75.9 113.74 75.88 113.74 75.86 113.75C75.79 113.77 75.72 113.79 75.65 113.81L75.64 113.81C75.57 113.83 75.5 113.84 75.43 113.85C75.41 113.85 75.39 113.86 75.36 113.86C75.3 113.87 75.25 113.88 75.19 113.88C75.17 113.88 75.15 113.89 75.13 113.89C75.05 113.9 74.97 113.91 74.89 113.91C74.88 113.91 74.87 113.91 74.86 113.91C74.79 113.91 74.72 113.92 74.65 113.92C74.62 113.92 74.6 113.92 74.57 113.92C74.5 113.92 74.44 113.92 74.37 113.92C74.35 113.92 74.33 113.92 74.3 113.92C74.21 113.92 74.13 113.91 74.04 113.9C74.02 113.9 74 113.9 73.99 113.89C73.91 113.88 73.84 113.87 73.76 113.86C73.73 113.86 73.71 113.85 73.68 113.85C73.6 113.84 73.51 113.83 73.43 113.81C73.42 113.81 73.4 113.81 73.39 113.8C73.29 113.78 73.19 113.76 73.09 113.74C73.06 113.73 73.04 113.73 73.01 113.72C72.92 113.7 72.84 113.68 72.75 113.66C72.73 113.65 72.71 113.65 72.69 113.65C72.58 113.62 72.47 113.59 72.35 113.56C72.32 113.55 72.3 113.55 72.27 113.54C72.16 113.51 72.06 113.48 71.95 113.44C71.94 113.44 71.92 113.43 71.91 113.43C71.78 113.39 71.65 113.34 71.51 113.29C71.48 113.28 71.46 113.27 71.43 113.26C71.3 113.21 71.17 113.16 71.03 113.11C71.01 113.1 70.99 113.09 70.97 113.08C70.81 113.02 70.65 112.95 70.48 112.88C70.46 112.87 70.44 112.86 70.42 112.85C70.26 112.78 70.09 112.7 69.92 112.62C69.89 112.61 69.86 112.59 69.83 112.58C69.75 112.54 69.68 112.51 69.6 112.47C69.56 112.45 69.52 112.43 69.49 112.41C69.41 112.37 69.33 112.33 69.25 112.29C69.22 112.27 69.18 112.26 69.15 112.24C69.04 112.18 68.93 112.12 68.82 112.06C68.8 112.05 68.78 112.04 68.77 112.03C68.67 111.98 68.58 111.93 68.48 111.87C68.45 111.86 68.43 111.84 68.4 111.83C68.21 111.72 68.02 111.61 67.83 111.5C67.81 111.49 67.78 111.47 67.76 111.46C67.57 111.35 67.38 111.23 67.19 111.11C67.17 111.1 67.14 111.08 67.12 111.07C66.92 110.95 66.73 110.82 66.53 110.68C66.51 110.67 66.49 110.66 66.47 110.64C66.26 110.5 66.06 110.36 65.85 110.22C65.84 110.21 65.83 110.2 65.82 110.2C65.6 110.05 65.39 109.89 65.17 109.73L65.16 109.72C64.95 109.56 64.73 109.4 64.51 109.23C64.49 109.22 64.48 109.21 64.46 109.19C64.26 109.03 64.05 108.87 63.84 108.7C63.82 108.68 63.8 108.66 63.77 108.65C63.57 108.49 63.37 108.32 63.17 108.15C63.15 108.13 63.13 108.12 63.11 108.1C62.78 107.82 62.45 107.53 62.11 107.23C62.1 107.22 62.09 107.21 62.07 107.2C61.81 106.97 61.55 106.72 61.29 106.48C61.27 106.46 61.25 106.44 61.23 106.42C61.01 106.21 60.79 106 60.58 105.78C60.54 105.74 60.5 105.7 60.46 105.66C60.27 105.47 60.08 105.28 59.9 105.09C59.89 105.08 59.88 105.07 59.87 105.06C59.66 104.84 59.45 104.62 59.24 104.4C59.23 104.39 59.22 104.38 59.21 104.37C59.02 104.16 58.82 103.95 58.64 103.73C58.62 103.71 58.61 103.69 58.59 103.67C58.41 103.47 58.23 103.26 58.06 103.06C58.04 103.04 58.02 103.01 58 102.99C57.83 102.79 57.66 102.58 57.49 102.38C57.47 102.36 57.45 102.33 57.43 102.31C57.26 102.1 57.09 101.88 56.92 101.67C56.91 101.66 56.9 101.64 56.89 101.63C56.71 101.4 56.53 101.16 56.36 100.93C56.35 100.92 56.34 100.9 56.33 100.89C56.16 100.65 55.99 100.42 55.82 100.18C55.81 100.16 55.79 100.14 55.78 100.12C55.6 99.86 55.43 99.61 55.26 99.35C55.24 99.32 55.23 99.3 55.21 99.27C55.14 99.16 55.07 99.05 55 98.94C54.98 98.91 54.96 98.88 54.94 98.85C54.86 98.72 54.78 98.59 54.7 98.46C54.69 98.44 54.67 98.41 54.66 98.39C54.57 98.24 54.48 98.09 54.39 97.94C54.38 97.93 54.38 97.92 54.37 97.91C54.28 97.76 54.2 97.6 54.11 97.45C54.1 97.43 54.08 97.4 54.07 97.38C53.96 97.18 53.85 96.98 53.75 96.78C53.74 96.77 53.74 96.76 53.73 96.75C53.63 96.54 53.53 96.34 53.43 96.13C53.41 96.09 53.39 96.05 53.37 96.01C53.35 95.96 53.32 95.9 53.3 95.85C53.28 95.81 53.26 95.76 53.24 95.72C53.22 95.67 53.19 95.62 53.17 95.57C53.15 95.53 53.13 95.48 53.12 95.44C53.1 95.39 53.08 95.34 53.06 95.29C53.04 95.25 53.03 95.2 53.01 95.16C52.99 95.11 52.97 95.06 52.95 95.01C52.93 94.97 52.92 94.92 52.9 94.88C52.88 94.83 52.86 94.78 52.85 94.74C52.83 94.7 52.82 94.65 52.8 94.61C52.78 94.56 52.77 94.52 52.75 94.47C52.74 94.43 52.72 94.39 52.71 94.34C52.69 94.29 52.68 94.25 52.66 94.2C52.65 94.16 52.63 94.12 52.62 94.08C52.61 94.03 52.59 93.99 52.58 93.94C52.57 93.9 52.56 93.86 52.54 93.82C52.53 93.77 52.51 93.73 52.5 93.68C52.49 93.64 52.48 93.6 52.47 93.56C52.46 93.52 52.45 93.47 52.44 93.43C52.43 93.39 52.42 93.35 52.41 93.31C52.4 93.27 52.39 93.22 52.38 93.18C52.37 93.14 52.36 93.1 52.35 93.06C52.34 93.02 52.33 92.98 52.32 92.93C52.31 92.89 52.31 92.85 52.3 92.81C52.29 92.77 52.29 92.73 52.28 92.69C52.27 92.65 52.27 92.61 52.26 92.58C52.25 92.54 52.25 92.5 52.24 92.46C52.23 92.42 52.23 92.39 52.23 92.35C52.23 92.31 52.22 92.27 52.22 92.23C52.22 92.19 52.21 92.16 52.21 92.12C52.21 92.08 52.2 92.04 52.2 92C52.2 91.96 52.19 91.93 52.19 91.89C52.19 91.85 52.19 91.81 52.18 91.78C52.18 91.75 52.18 91.71 52.18 91.68C52.18 91.64 52.18 91.61 52.18 91.57C52.18 91.54 52.18 91.5 52.18 91.47C52.18 91.43 52.18 91.4 52.18 91.36C52.18 91.33 52.18 91.29 52.18 91.26C52.18 91.22 52.18 91.19 52.19 91.15C52.19 91.12 52.19 91.09 52.2 91.05C52.2 91.02 52.21 90.98 52.21 90.95C52.21 90.92 52.22 90.89 52.22 90.86C52.22 90.83 52.23 90.79 52.24 90.76C52.24 90.73 52.25 90.7 52.26 90.67C52.27 90.64 52.27 90.6 52.28 90.57C52.29 90.54 52.29 90.51 52.3 90.48C52.31 90.45 52.32 90.42 52.32 90.39C52.33 90.36 52.33 90.33 52.34 90.31C52.35 90.28 52.36 90.25 52.37 90.22C52.38 90.19 52.39 90.17 52.4 90.14C52.41 90.11 52.42 90.08 52.43 90.05C52.44 90.02 52.45 90 52.46 89.97C52.47 89.94 52.49 89.91 52.5 89.88C52.51 89.86 52.52 89.83 52.53 89.81C52.54 89.78 52.56 89.75 52.57 89.73C52.58 89.71 52.59 89.68 52.61 89.66C52.63 89.63 52.64 89.61 52.66 89.58C52.67 89.56 52.69 89.54 52.7 89.52C52.72 89.49 52.74 89.47 52.76 89.44C52.77 89.42 52.79 89.4 52.8 89.38C52.82 89.35 52.85 89.32 52.87 89.29C52.88 89.28 52.89 89.26 52.91 89.25C52.95 89.21 52.99 89.17 53.03 89.13L36.23 106C36.19 106.04 36.15 106.08 36.11 106.12C36.1 106.13 36.09 106.15 36.07 106.16C36.05 106.19 36.02 106.22 36 106.25C35.99 106.27 35.97 106.29 35.96 106.31C35.94 106.34 35.92 106.36 35.9 106.39C35.89 106.41 35.87 106.43 35.86 106.45C35.84 106.48 35.83 106.5 35.81 106.53C35.8 106.55 35.79 106.58 35.77 106.6C35.76 106.63 35.74 106.66 35.73 106.68C35.72 106.7 35.71 106.73 35.7 106.75C35.69 106.78 35.67 106.81 35.66 106.84C35.65 106.86 35.64 106.89 35.63 106.92C35.62 106.95 35.61 106.98 35.6 107.01C35.59 107.04 35.58 107.06 35.57 107.09C35.56 107.12 35.55 107.15 35.54 107.18C35.53 107.21 35.52 107.24 35.52 107.26C35.51 107.29 35.5 107.32 35.5 107.35C35.49 107.38 35.49 107.41 35.48 107.44C35.47 107.47 35.47 107.5 35.46 107.54C35.45 107.57 35.45 107.6 35.44 107.63C35.43 107.66 35.43 107.7 35.42 107.73C35.42 107.76 35.41 107.79 35.41 107.82C35.41 107.85 35.4 107.89 35.4 107.92C35.4 107.95 35.39 107.98 35.39 108.01C35.39 108.05 35.38 108.08 35.38 108.12C35.38 108.15 35.38 108.19 35.38 108.22C35.38 108.26 35.38 108.29 35.38 108.33C35.38 108.36 35.38 108.4 35.38 108.43C35.38 108.47 35.38 108.5 35.38 108.54C35.38 108.57 35.38 108.61 35.38 108.64C35.38 108.68 35.38 108.72 35.39 108.75C35.39 108.79 35.39 108.82 35.4 108.86C35.4 108.9 35.41 108.94 35.41 108.98C35.41 109.02 35.42 109.05 35.42 109.09C35.42 109.13 35.43 109.17 35.43 109.21C35.43 109.25 35.44 109.28 35.44 109.32C35.45 109.36 35.45 109.4 35.46 109.44C35.47 109.48 35.47 109.52 35.48 109.55C35.49 109.59 35.49 109.63 35.5 109.67C35.51 109.71 35.51 109.75 35.52 109.79C35.53 109.83 35.54 109.87 35.55 109.92C35.56 109.96 35.57 110 35.58 110.04C35.59 110.08 35.6 110.13 35.61 110.17C35.62 110.21 35.63 110.25 35.64 110.29C35.65 110.33 35.66 110.38 35.67 110.42C35.68 110.46 35.69 110.5 35.7 110.54C35.71 110.58 35.72 110.63 35.74 110.67C35.75 110.71 35.76 110.75 35.78 110.79C35.79 110.84 35.81 110.88 35.82 110.93C35.83 110.97 35.85 111.01 35.86 111.06C35.87 111.11 35.89 111.15 35.91 111.2C35.92 111.24 35.94 111.28 35.95 111.33C35.97 111.38 35.98 111.42 36 111.47C36.02 111.51 36.03 111.56 36.05 111.6C36.07 111.65 36.09 111.7 36.1 111.74C36.12 111.78 36.13 111.83 36.15 111.87C36.17 111.92 36.19 111.97 36.21 112.02C36.23 112.06 36.24 112.11 36.26 112.15C36.28 112.2 36.3 112.25 36.32 112.3C36.34 112.34 36.36 112.39 36.37 112.43C36.39 112.48 36.41 112.53 36.44 112.58C36.46 112.62 36.48 112.66 36.5 112.71C36.52 112.76 36.55 112.82 36.57 112.87C36.59 112.91 36.6 112.94 36.62 112.98L36.62 112.99C36.71 113.19 36.81 113.4 36.92 113.61C36.93 113.62 36.93 113.63 36.94 113.64C37.04 113.84 37.15 114.04 37.26 114.24C37.26 114.25 37.27 114.26 37.27 114.27C37.28 114.29 37.29 114.3 37.3 114.32C37.38 114.47 37.47 114.62 37.56 114.78C37.57 114.79 37.57 114.8 37.58 114.81C37.67 114.96 37.76 115.11 37.85 115.26C37.86 115.27 37.87 115.29 37.87 115.3C37.87 115.31 37.88 115.32 37.88 115.32C37.96 115.45 38.04 115.58 38.12 115.71C38.14 115.74 38.16 115.77 38.18 115.8C38.25 115.91 38.32 116.02 38.39 116.13C38.4 116.15 38.42 116.17 38.43 116.19C38.43 116.2 38.44 116.2 38.44 116.21C38.61 116.47 38.78 116.72 38.96 116.98C38.97 116.99 38.97 117 38.98 117C38.99 117.01 39 117.02 39 117.03C39.16 117.27 39.33 117.5 39.51 117.74C39.52 117.75 39.52 117.76 39.53 117.76L39.54 117.77C39.71 118 39.89 118.24 40.07 118.47C40.07 118.48 40.08 118.48 40.08 118.49C40.09 118.5 40.1 118.51 40.1 118.52C40.26 118.73 40.43 118.95 40.61 119.16C40.62 119.17 40.63 119.18 40.63 119.19C40.64 119.2 40.65 119.22 40.66 119.23C40.83 119.43 41 119.64 41.17 119.84C41.18 119.85 41.19 119.87 41.2 119.88C41.21 119.89 41.22 119.9 41.23 119.91C41.4 120.11 41.58 120.32 41.76 120.52C41.77 120.53 41.78 120.54 41.79 120.56C41.8 120.57 41.8 120.57 41.81 120.58C42 120.79 42.19 121 42.38 121.21C42.39 121.22 42.39 121.22 42.4 121.23L42.41 121.24C42.61 121.46 42.82 121.68 43.04 121.9C43.04 121.9 43.04 121.91 43.05 121.91C43.06 121.92 43.06 121.92 43.07 121.93C43.25 122.12 43.44 122.31 43.63 122.5C43.66 122.53 43.69 122.56 43.72 122.59C43.73 122.6 43.74 122.61 43.75 122.62C43.97 122.84 44.18 123.05 44.4 123.26C44.41 123.27 44.42 123.28 44.43 123.29C44.44 123.3 44.45 123.31 44.46 123.31C44.72 123.56 44.98 123.8 45.24 124.03C45.25 124.04 45.25 124.04 45.26 124.05C45.27 124.06 45.27 124.06 45.28 124.07C45.61 124.37 45.94 124.66 46.28 124.94C46.29 124.95 46.3 124.95 46.3 124.96C46.31 124.97 46.32 124.98 46.34 124.99C46.54 125.16 46.74 125.32 46.94 125.49C46.96 125.51 46.98 125.53 47.01 125.54C47.22 125.71 47.42 125.87 47.62 126.03C47.64 126.04 47.65 126.05 47.67 126.07C47.89 126.24 48.1 126.4 48.32 126.56L48.33 126.57C48.55 126.73 48.77 126.89 48.98 127.04C48.99 127.05 49 127.06 49.01 127.06C49.22 127.21 49.42 127.35 49.63 127.48C49.65 127.49 49.67 127.51 49.69 127.52C49.89 127.65 50.08 127.78 50.28 127.9C50.3 127.91 50.33 127.93 50.35 127.94C50.54 128.06 50.74 128.18 50.93 128.3C50.95 128.31 50.98 128.33 51 128.34C51.19 128.45 51.38 128.57 51.57 128.67C51.58 128.68 51.59 128.68 51.61 128.69C51.62 128.7 51.64 128.7 51.65 128.71C51.75 128.76 51.85 128.82 51.94 128.87C51.96 128.88 51.97 128.89 51.99 128.9C52.1 128.96 52.21 129.02 52.33 129.08C52.36 129.1 52.39 129.11 52.43 129.13C52.51 129.17 52.59 129.21 52.67 129.25C52.71 129.27 52.74 129.29 52.78 129.31C52.86 129.35 52.93 129.39 53.01 129.42C53.03 129.43 53.06 129.44 53.08 129.45C53.09 129.45 53.1 129.46 53.1 129.46C53.27 129.54 53.43 129.61 53.6 129.69C53.62 129.7 53.64 129.71 53.66 129.72C53.82 129.79 53.99 129.86 54.15 129.92C54.16 129.92 54.17 129.93 54.19 129.94C54.2 129.94 54.21 129.95 54.22 129.95C54.35 130 54.49 130.05 54.62 130.1C54.64 130.11 54.67 130.12 54.69 130.13C54.82 130.18 54.96 130.22 55.09 130.27L55.1 130.27C55.11 130.27 55.12 130.28 55.13 130.28C55.24 130.31 55.34 130.35 55.45 130.38C55.48 130.39 55.5 130.4 55.53 130.4C55.64 130.43 55.76 130.46 55.87 130.49C55.88 130.49 55.88 130.49 55.89 130.49C55.9 130.49 55.92 130.5 55.93 130.5C56.02 130.52 56.11 130.54 56.19 130.56C56.22 130.57 56.24 130.57 56.27 130.58C56.37 130.6 56.47 130.62 56.57 130.64L56.58 130.64C56.59 130.64 56.6 130.64 56.61 130.64C56.69 130.65 56.78 130.67 56.86 130.68C56.89 130.68 56.91 130.69 56.94 130.69C57.02 130.7 57.09 130.71 57.17 130.72C57.18 130.72 57.2 130.72 57.21 130.72L57.22 130.72C57.31 130.73 57.4 130.73 57.48 130.74C57.5 130.74 57.52 130.74 57.55 130.74C57.62 130.74 57.68 130.74 57.75 130.74C57.76 130.74 57.78 130.74 57.79 130.74C57.8 130.74 57.81 130.74 57.82 130.74C57.89 130.74 57.96 130.74 58.03 130.73C58.04 130.73 58.05 130.73 58.06 130.73C58.14 130.73 58.22 130.72 58.3 130.71C58.31 130.71 58.31 130.71 58.32 130.71C58.33 130.71 58.35 130.71 58.36 130.7C58.42 130.69 58.48 130.68 58.53 130.68C58.55 130.68 58.57 130.67 58.6 130.67C58.67 130.66 58.74 130.64 58.81 130.63L58.82 130.63L58.82 130.63C58.89 130.61 58.96 130.59 59.03 130.57C59.05 130.56 59.07 130.56 59.09 130.55C59.14 130.53 59.19 130.51 59.25 130.49C59.26 130.49 59.27 130.48 59.29 130.48C59.3 130.48 59.3 130.47 59.31 130.47C59.38 130.44 59.44 130.41 59.51 130.38C59.52 130.37 59.53 130.37 59.54 130.36C59.59 130.33 59.65 130.3 59.7 130.27C59.71 130.26 59.72 130.26 59.73 130.25C59.74 130.25 59.74 130.24 59.75 130.24C59.81 130.2 59.87 130.16 59.93 130.11C59.94 130.11 59.94 130.1 59.95 130.1C60 130.06 60.06 130.01 60.11 129.97C60.12 129.96 60.13 129.96 60.13 129.95C60.15 129.93 60.16 129.92 60.18 129.9L77.05 113.05C76.98 113.1 76.96 113.12 76.93 113.15Z" fill="#90a6b4" fill-rule="nonzero" opacity="1" stroke="none"/>
</g>
<g opacity="1">
<path d="M77.53 88.64C69.22 80.33 64.83 71.25 67.71 68.36C70.6 65.47 79.67 69.87 87.98 78.18C96.29 86.49 100.68 95.57 97.8 98.46C94.91 101.35 85.84 96.95 77.53 88.64Z" fill="#edf5f7" fill-rule="nonzero" opacity="1" stroke="none"/>
<path d="M97.72 98.54C97.66 98.59 97.6 98.64 97.54 98.69C97.53 98.69 97.53 98.7 97.52 98.7C97.45 98.75 97.38 98.8 97.31 98.84C97.29 98.85 97.27 98.86 97.25 98.87C97.19 98.9 97.13 98.94 97.07 98.97C97.06 98.98 97.04 98.98 97.03 98.99C96.96 99.03 96.88 99.06 96.8 99.09C96.78 99.1 96.76 99.1 96.74 99.11C96.68 99.13 96.62 99.15 96.56 99.17C96.54 99.18 96.51 99.18 96.49 99.19C96.41 99.21 96.32 99.23 96.24 99.25C96.23 99.25 96.23 99.25 96.22 99.25C96.14 99.27 96.06 99.28 95.98 99.29C95.95 99.29 95.93 99.3 95.9 99.3C95.83 99.31 95.76 99.31 95.69 99.32C95.66 99.32 95.64 99.32 95.62 99.33C95.53 99.34 95.43 99.34 95.34 99.34C95.33 99.34 95.31 99.34 95.3 99.34C95.22 99.34 95.13 99.34 95.04 99.34C95.01 99.34 94.98 99.34 94.95 99.34C94.87 99.34 94.79 99.33 94.71 99.32C94.68 99.32 94.66 99.32 94.63 99.31C94.53 99.3 94.42 99.29 94.31 99.27C94.29 99.27 94.27 99.26 94.25 99.26C94.16 99.25 94.07 99.23 93.97 99.22C93.94 99.21 93.9 99.21 93.87 99.2C93.77 99.18 93.67 99.16 93.57 99.14C93.55 99.14 93.54 99.13 93.52 99.13C93.4 99.1 93.27 99.07 93.15 99.04C93.12 99.03 93.09 99.02 93.05 99.02C92.95 98.99 92.84 98.96 92.73 98.93C92.7 98.92 92.68 98.92 92.65 98.91C92.51 98.87 92.38 98.83 92.24 98.78C92.21 98.77 92.18 98.76 92.14 98.75C92.01 98.71 91.88 98.66 91.75 98.62C91.73 98.61 91.72 98.61 91.7 98.6C91.54 98.54 91.38 98.48 91.22 98.42C91.19 98.41 91.16 98.4 91.13 98.38C90.97 98.32 90.81 98.25 90.64 98.18C90.61 98.17 90.59 98.16 90.56 98.15C90.36 98.06 90.17 97.97 89.97 97.88C89.95 97.87 89.92 97.86 89.89 97.84C89.69 97.74 89.48 97.65 89.28 97.54C89.24 97.52 89.2 97.5 89.17 97.48C89.08 97.43 88.98 97.38 88.89 97.33C88.84 97.31 88.8 97.28 88.75 97.26C88.65 97.21 88.55 97.16 88.46 97.1C88.42 97.08 88.38 97.06 88.34 97.03C88.2 96.95 88.07 96.88 87.93 96.8C87.91 96.79 87.89 96.77 87.86 96.76C87.74 96.69 87.63 96.62 87.51 96.55C87.48 96.53 87.45 96.51 87.42 96.49C87.19 96.35 86.95 96.21 86.72 96.06C86.69 96.04 86.66 96.02 86.63 96.01C86.39 95.86 86.16 95.71 85.92 95.55C85.89 95.53 85.86 95.51 85.84 95.49C85.6 95.33 85.35 95.16 85.11 94.99C85.09 94.97 85.06 94.96 85.04 94.94C84.79 94.76 84.53 94.58 84.27 94.39C84.26 94.38 84.24 94.37 84.23 94.36C83.96 94.16 83.69 93.96 83.42 93.76C83.41 93.76 83.41 93.75 83.41 93.75C83.14 93.55 82.87 93.34 82.61 93.13C82.59 93.11 82.57 93.1 82.55 93.08C82.29 92.88 82.04 92.67 81.78 92.46C81.75 92.44 81.73 92.41 81.7 92.39C81.45 92.18 81.2 91.97 80.95 91.76C80.93 91.74 80.9 91.72 80.88 91.7C80.46 91.34 80.05 90.97 79.63 90.6C79.61 90.59 79.6 90.57 79.58 90.56C79.25 90.26 78.93 89.96 78.61 89.65C78.58 89.63 78.56 89.6 78.53 89.58C78.26 89.32 77.98 89.05 77.71 88.78C77.66 88.73 77.61 88.68 77.56 88.63C77.32 88.39 77.08 88.15 76.85 87.91C76.84 87.9 76.83 87.88 76.81 87.87C76.54 87.59 76.28 87.32 76.02 87.04C76.01 87.03 76 87.02 75.99 87C75.74 86.74 75.5 86.47 75.26 86.2C75.24 86.18 75.22 86.15 75.2 86.13C74.97 85.87 74.75 85.62 74.53 85.36C74.5 85.33 74.48 85.3 74.45 85.27C74.23 85.01 74.02 84.76 73.8 84.5C73.78 84.47 73.75 84.44 73.73 84.41C73.51 84.14 73.3 83.88 73.09 83.61C73.08 83.59 73.06 83.57 73.05 83.55C72.82 83.26 72.59 82.97 72.37 82.68C72.36 82.66 72.35 82.65 72.33 82.63C72.11 82.34 71.89 82.04 71.68 81.75C71.66 81.73 71.64 81.7 71.63 81.68C71.4 81.36 71.18 81.04 70.96 80.73C70.94 80.7 70.92 80.66 70.89 80.63C70.8 80.49 70.71 80.36 70.62 80.22C70.6 80.18 70.57 80.14 70.55 80.11C70.44 79.95 70.34 79.79 70.24 79.63C70.22 79.6 70.2 79.57 70.19 79.55C70.07 79.36 69.96 79.18 69.84 78.99C69.83 78.98 69.83 78.97 69.82 78.96C69.71 78.77 69.59 78.58 69.49 78.4C69.47 78.37 69.46 78.34 69.44 78.31C69.3 78.06 69.16 77.81 69.03 77.57C69.02 77.56 69.02 77.55 69.01 77.53C68.87 77.27 68.74 77.02 68.62 76.77C68.6 76.72 68.57 76.67 68.55 76.62C68.52 76.55 68.49 76.49 68.45 76.42C68.42 76.37 68.4 76.32 68.38 76.26C68.35 76.2 68.32 76.13 68.29 76.07C68.27 76.02 68.24 75.96 68.22 75.91C68.19 75.85 68.16 75.79 68.14 75.73C68.12 75.68 68.09 75.62 68.07 75.57C68.04 75.51 68.02 75.45 67.99 75.39C67.97 75.34 67.95 75.28 67.92 75.23C67.9 75.17 67.87 75.11 67.85 75.06C67.83 75.01 67.81 74.95 67.79 74.9C67.77 74.84 67.75 74.79 67.72 74.73C67.7 74.68 67.68 74.63 67.66 74.57C67.64 74.51 67.62 74.46 67.6 74.4C67.58 74.35 67.56 74.3 67.55 74.25C67.53 74.19 67.51 74.14 67.49 74.08C67.47 74.03 67.46 73.98 67.44 73.93C67.42 73.87 67.4 73.82 67.39 73.77C67.37 73.72 67.36 73.67 67.35 73.62C67.33 73.57 67.32 73.51 67.3 73.46C67.29 73.41 67.27 73.36 67.26 73.32C67.25 73.27 67.23 73.21 67.22 73.16C67.21 73.11 67.2 73.06 67.18 73.02C67.17 72.97 67.15 72.92 67.14 72.87C67.13 72.82 67.12 72.78 67.11 72.73C67.1 72.68 67.09 72.63 67.08 72.58C67.07 72.53 67.06 72.49 67.05 72.44C67.04 72.39 67.03 72.34 67.02 72.29C67.01 72.25 67 72.2 67 72.16C66.99 72.11 66.98 72.06 66.98 72.02C66.97 71.98 66.97 71.93 66.96 71.89C66.95 71.84 66.95 71.8 66.94 71.75C66.93 71.71 66.93 71.66 66.93 71.62C66.93 71.57 66.92 71.53 66.92 71.48C66.92 71.44 66.91 71.4 66.91 71.35C66.91 71.31 66.9 71.26 66.9 71.22C66.9 71.18 66.9 71.14 66.89 71.1C66.89 71.06 66.89 71.01 66.89 70.97C66.89 70.93 66.89 70.89 66.89 70.85C66.89 70.81 66.89 70.77 66.89 70.72C66.89 70.68 66.89 70.64 66.89 70.6C66.89 70.56 66.89 70.52 66.9 70.48C66.9 70.44 66.91 70.41 66.91 70.37C66.91 70.33 66.92 70.29 66.92 70.25C66.92 70.21 66.93 70.18 66.93 70.14C66.94 70.1 66.94 70.06 66.95 70.02C66.96 69.99 66.96 69.95 66.97 69.92C66.98 69.88 66.99 69.85 66.99 69.81C67 69.78 67 69.74 67.01 69.71C67.02 69.67 67.03 69.64 67.04 69.6C67.05 69.57 67.06 69.54 67.07 69.51C67.08 69.47 67.09 69.44 67.11 69.41C67.12 69.38 67.13 69.35 67.14 69.32C67.15 69.29 67.17 69.25 67.18 69.22C67.19 69.19 67.2 69.16 67.22 69.14C67.24 69.11 67.25 69.07 67.27 69.04C67.28 69.01 67.3 68.99 67.31 68.96C67.33 68.93 67.35 68.9 67.37 68.86C67.38 68.84 67.4 68.81 67.41 68.79C67.43 68.76 67.45 68.73 67.48 68.69C67.49 68.67 67.51 68.65 67.52 68.63C67.55 68.6 67.57 68.56 67.6 68.53C67.61 68.51 67.63 68.5 67.64 68.48C67.68 68.43 67.73 68.38 67.77 68.34L41.29 94.77C41.24 94.82 41.2 94.86 41.16 94.91C41.15 94.93 41.13 94.94 41.12 94.96C41.09 94.99 41.07 95.03 41.04 95.06C41.02 95.08 41.01 95.1 41 95.12C40.98 95.15 40.96 95.18 40.93 95.22C40.91 95.24 40.9 95.27 40.89 95.29C40.87 95.32 40.85 95.35 40.83 95.39C40.82 95.42 40.8 95.44 40.79 95.47C40.77 95.5 40.76 95.53 40.74 95.57C40.73 95.6 40.72 95.63 40.7 95.65C40.69 95.68 40.67 95.72 40.66 95.75C40.65 95.78 40.64 95.81 40.63 95.84C40.62 95.87 40.61 95.91 40.59 95.94C40.58 95.97 40.57 96 40.56 96.03C40.55 96.07 40.54 96.1 40.53 96.14C40.52 96.17 40.51 96.21 40.51 96.24C40.5 96.28 40.49 96.31 40.49 96.35C40.48 96.38 40.48 96.42 40.47 96.45C40.46 96.49 40.46 96.53 40.45 96.57C40.45 96.61 40.44 96.64 40.44 96.68C40.44 96.72 40.43 96.76 40.43 96.8C40.43 96.84 40.42 96.87 40.42 96.91C40.42 96.95 40.41 96.99 40.41 97.03C40.41 97.07 40.41 97.11 40.41 97.14C40.41 97.18 40.41 97.22 40.41 97.27C40.41 97.31 40.41 97.35 40.41 97.39C40.41 97.43 40.41 97.48 40.41 97.52C40.41 97.56 40.41 97.6 40.42 97.64C40.42 97.68 40.42 97.73 40.43 97.77C40.43 97.81 40.44 97.85 40.44 97.9C40.44 97.95 40.45 97.99 40.45 98.04C40.45 98.08 40.46 98.13 40.46 98.17C40.47 98.22 40.47 98.26 40.48 98.31C40.49 98.35 40.49 98.4 40.5 98.44C40.51 98.49 40.52 98.54 40.52 98.58C40.53 98.62 40.54 98.67 40.54 98.71C40.55 98.76 40.56 98.81 40.57 98.86C40.58 98.91 40.59 98.95 40.6 99C40.61 99.05 40.62 99.1 40.63 99.15C40.64 99.2 40.65 99.24 40.66 99.29C40.67 99.34 40.69 99.39 40.7 99.44C40.71 99.49 40.72 99.53 40.74 99.58C40.75 99.63 40.77 99.68 40.78 99.74C40.79 99.79 40.81 99.84 40.82 99.88C40.84 99.93 40.85 99.99 40.87 100.04C40.88 100.09 40.9 100.14 40.92 100.19C40.94 100.24 40.95 100.3 40.97 100.35C40.99 100.4 41 100.45 41.02 100.5C41.04 100.56 41.06 100.61 41.08 100.67C41.1 100.72 41.12 100.77 41.13 100.82C41.15 100.88 41.17 100.93 41.19 100.99C41.21 101.04 41.23 101.09 41.25 101.15C41.27 101.21 41.29 101.26 41.32 101.32C41.34 101.37 41.36 101.42 41.38 101.48C41.4 101.54 41.43 101.6 41.45 101.66C41.47 101.71 41.49 101.76 41.52 101.82C41.55 101.88 41.57 101.94 41.6 102C41.62 102.05 41.65 102.11 41.67 102.16C41.7 102.22 41.73 102.28 41.75 102.34C41.77 102.39 41.8 102.45 41.82 102.5C41.85 102.56 41.88 102.63 41.91 102.69C41.93 102.74 41.96 102.79 41.98 102.85C42.01 102.91 42.04 102.98 42.08 103.05C42.1 103.1 42.12 103.14 42.15 103.19C42.15 103.19 42.15 103.2 42.16 103.2C42.29 103.45 42.42 103.7 42.55 103.96C42.56 103.97 42.56 103.99 42.57 104C42.7 104.24 42.84 104.49 42.98 104.74C42.99 104.75 42.99 104.76 43 104.77C43.01 104.79 43.02 104.81 43.03 104.83C43.14 105.02 43.25 105.2 43.36 105.39C43.37 105.4 43.38 105.41 43.38 105.43C43.49 105.62 43.61 105.8 43.73 105.99C43.74 106.01 43.75 106.02 43.76 106.04C43.77 106.05 43.77 106.06 43.78 106.07C43.88 106.23 43.99 106.39 44.09 106.55C44.11 106.59 44.14 106.62 44.16 106.66C44.25 106.8 44.34 106.93 44.43 107.07C44.45 107.09 44.46 107.12 44.48 107.14C44.49 107.15 44.49 107.16 44.5 107.16C44.71 107.48 44.94 107.79 45.17 108.12C45.18 108.13 45.18 108.14 45.19 108.15C45.2 108.16 45.21 108.18 45.22 108.19C45.43 108.48 45.65 108.78 45.87 109.07C45.88 109.08 45.88 109.09 45.89 109.1C45.89 109.11 45.9 109.11 45.9 109.12C46.12 109.41 46.35 109.7 46.58 109.99C46.59 110 46.59 110 46.59 110.01C46.6 110.02 46.61 110.03 46.62 110.05C46.83 110.31 47.04 110.58 47.26 110.85C47.27 110.86 47.28 110.88 47.29 110.89C47.3 110.91 47.32 110.92 47.33 110.94C47.54 111.2 47.76 111.45 47.98 111.71C47.99 111.73 48.01 111.74 48.02 111.76C48.03 111.77 48.04 111.79 48.06 111.8C48.28 112.06 48.51 112.31 48.73 112.57C48.74 112.58 48.76 112.6 48.77 112.61C48.78 112.62 48.79 112.63 48.79 112.64C49.03 112.91 49.27 113.17 49.52 113.44C49.53 113.45 49.54 113.46 49.54 113.47L49.55 113.48C49.81 113.76 50.07 114.04 50.34 114.31L50.35 114.32C50.36 114.33 50.37 114.34 50.38 114.35C50.61 114.59 50.85 114.83 51.09 115.07C51.13 115.11 51.16 115.14 51.2 115.18C51.21 115.19 51.23 115.21 51.24 115.22C51.51 115.49 51.79 115.76 52.06 116.02C52.07 116.03 52.09 116.05 52.1 116.06C52.11 116.07 52.12 116.08 52.13 116.09C52.45 116.4 52.78 116.7 53.1 117C53.11 117.01 53.11 117.01 53.12 117.02C53.13 117.03 53.14 117.03 53.15 117.04C53.56 117.42 53.98 117.79 54.4 118.14C54.41 118.15 54.42 118.16 54.43 118.17C54.44 118.18 54.46 118.19 54.47 118.21C54.72 118.42 54.97 118.64 55.22 118.84C55.25 118.86 55.27 118.89 55.3 118.91C55.56 119.12 55.81 119.33 56.07 119.53C56.09 119.55 56.11 119.56 56.13 119.58C56.4 119.79 56.67 120 56.93 120.2L56.94 120.21C57.21 120.42 57.48 120.62 57.75 120.81C57.76 120.82 57.78 120.83 57.79 120.84C58.05 121.03 58.3 121.21 58.56 121.38C58.58 121.4 58.61 121.41 58.63 121.43C58.88 121.6 59.12 121.76 59.36 121.93C59.39 121.95 59.42 121.97 59.44 121.99C59.68 122.15 59.92 122.3 60.15 122.45C60.18 122.47 60.21 122.49 60.23 122.5C60.47 122.65 60.7 122.79 60.94 122.93C60.95 122.94 60.97 122.95 60.98 122.96C61 122.97 61.01 122.98 61.03 122.99C61.15 123.06 61.27 123.13 61.39 123.2C61.41 123.21 61.43 123.22 61.45 123.23C61.59 123.31 61.73 123.39 61.86 123.46C61.9 123.48 61.94 123.5 61.98 123.52C62.08 123.57 62.18 123.63 62.28 123.68C62.33 123.7 62.37 123.73 62.42 123.75C62.52 123.8 62.61 123.85 62.71 123.9C62.74 123.91 62.77 123.93 62.79 123.94C62.8 123.94 62.81 123.95 62.82 123.95C63.03 124.05 63.23 124.15 63.43 124.25C63.45 124.26 63.48 124.27 63.5 124.28C63.7 124.37 63.9 124.46 64.1 124.55C64.11 124.56 64.13 124.56 64.14 124.57C64.15 124.57 64.16 124.58 64.17 124.58C64.33 124.65 64.5 124.72 64.66 124.78C64.69 124.79 64.72 124.8 64.75 124.82C64.91 124.88 65.07 124.95 65.23 125L65.24 125C65.25 125 65.26 125.01 65.28 125.01C65.41 125.06 65.54 125.1 65.67 125.14C65.7 125.15 65.73 125.16 65.77 125.17C65.91 125.22 66.05 125.26 66.18 125.3C66.19 125.3 66.19 125.3 66.2 125.31C66.22 125.32 66.24 125.32 66.25 125.32C66.36 125.35 66.46 125.38 66.57 125.41C66.6 125.42 66.63 125.43 66.67 125.44C66.79 125.47 66.92 125.5 67.04 125.53L67.05 125.53C67.06 125.53 67.07 125.53 67.09 125.54C67.19 125.56 67.29 125.58 67.39 125.6C67.42 125.61 67.46 125.61 67.49 125.62C67.58 125.64 67.68 125.65 67.77 125.66C67.79 125.66 67.8 125.67 67.82 125.67C67.83 125.67 67.83 125.67 67.84 125.67C67.95 125.68 68.05 125.7 68.16 125.71C68.19 125.71 68.21 125.71 68.24 125.72C68.32 125.73 68.4 125.73 68.48 125.74C68.5 125.74 68.51 125.74 68.53 125.74C68.54 125.74 68.56 125.74 68.57 125.74C68.66 125.74 68.74 125.74 68.83 125.74C68.84 125.74 68.86 125.74 68.87 125.74C68.97 125.74 69.06 125.73 69.15 125.73C69.16 125.73 69.17 125.73 69.18 125.73C69.2 125.73 69.21 125.73 69.23 125.73C69.3 125.72 69.37 125.72 69.44 125.71C69.47 125.71 69.49 125.7 69.52 125.7C69.6 125.69 69.68 125.68 69.76 125.66L69.77 125.66L69.77 125.66C69.86 125.64 69.94 125.62 70.02 125.6C70.04 125.59 70.07 125.59 70.09 125.58C70.15 125.56 70.21 125.54 70.27 125.52C70.28 125.52 70.3 125.51 70.31 125.51C70.32 125.51 70.32 125.5 70.33 125.5C70.41 125.47 70.49 125.44 70.56 125.4C70.57 125.39 70.59 125.39 70.6 125.38C70.66 125.35 70.72 125.32 70.78 125.28C70.79 125.27 70.8 125.27 70.81 125.26C70.82 125.26 70.83 125.25 70.83 125.24C70.9 125.2 70.97 125.15 71.04 125.1C71.05 125.1 71.05 125.09 71.06 125.09C71.12 125.04 71.18 124.99 71.24 124.94C71.25 124.93 71.26 124.93 71.27 124.92C71.29 124.9 71.31 124.88 71.33 124.86L97.8 98.46C97.77 98.49 97.74 98.52 97.72 98.54Z" fill="#3e4546" fill-rule="nonzero" opacity="1" stroke="none"/>
</g>
<path d="M70.55 72.7C69.89 72.04 69.89 70.97 70.55 70.31L80.11 60.75C80.77 60.09 81.84 60.09 82.5 60.75C83.16 61.41 83.16 62.48 82.5 63.14L72.94 72.7C72.28 73.36 71.21 73.36 70.55 72.7Z" fill="#bf0100" fill-rule="nonzero" opacity="1" stroke="none"/>
<path d="M93.44 95.59C92.78 94.93 92.78 93.86 93.44 93.2L103 83.64C103.66 82.98 104.73 82.98 105.39 83.64C106.05 84.3 106.05 85.37 105.39 86.03L95.83 95.59C95.17 96.25 94.1 96.25 93.44 95.59Z" fill="#bf0100" fill-rule="nonzero" opacity="1" stroke="none"/>
<path d="M79.73 86.06C79.07 85.4 79.07 84.33 79.73 83.67L89.29 74.11C89.95 73.45 91.02 73.45 91.68 74.11C92.34 74.77 92.34 75.84 91.68 76.5L82.12 86.06C81.46 86.72 80.39 86.72 79.73 86.06Z" fill="#bf0100" fill-rule="nonzero" opacity="1" stroke="none"/>
<g opacity="1">
<path d="M102.5 63.67C94.19 55.36 89.8 46.28 92.68 43.39C95.57 40.5 104.64 44.9 112.95 53.21C121.26 61.52 125.65 70.6 122.77 73.49C119.88 76.38 110.81 71.98 102.5 63.67Z" fill="#edf5f7" fill-rule="nonzero" opacity="1" stroke="none"/>
<path d="M122.69 73.57C122.63 73.62 122.57 73.67 122.51 73.72C122.5 73.72 122.5 73.73 122.49 73.73C122.42 73.78 122.35 73.83 122.28 73.87C122.26 73.88 122.24 73.89 122.22 73.9C122.16 73.93 122.1 73.97 122.04 74C122.03 74.01 122.01 74.01 122 74.02C121.93 74.06 121.85 74.09 121.77 74.12C121.75 74.13 121.73 74.13 121.71 74.14C121.65 74.16 121.59 74.18 121.53 74.2C121.51 74.21 121.48 74.21 121.46 74.22C121.38 74.24 121.29 74.26 121.21 74.28C121.2 74.28 121.2 74.28 121.19 74.28C121.11 74.3 121.03 74.31 120.95 74.32C120.92 74.32 120.9 74.33 120.87 74.33C120.8 74.34 120.73 74.34 120.66 74.35C120.64 74.35 120.61 74.35 120.59 74.36C120.5 74.37 120.4 74.37 120.31 74.37C120.3 74.37 120.28 74.37 120.27 74.37C120.19 74.37 120.1 74.37 120.01 74.37C119.98 74.37 119.95 74.37 119.92 74.37C119.84 74.37 119.76 74.36 119.68 74.35C119.65 74.35 119.63 74.35 119.6 74.34C119.5 74.33 119.39 74.32 119.28 74.3C119.26 74.3 119.24 74.29 119.22 74.29C119.13 74.28 119.04 74.26 118.94 74.25C118.91 74.24 118.87 74.24 118.84 74.23C118.74 74.21 118.64 74.19 118.54 74.17C118.52 74.17 118.51 74.16 118.49 74.16C118.37 74.13 118.25 74.1 118.12 74.07C118.09 74.06 118.06 74.05 118.02 74.04C117.92 74.01 117.81 73.98 117.7 73.95C117.67 73.94 117.65 73.94 117.62 73.93C117.48 73.89 117.35 73.85 117.21 73.8C117.18 73.79 117.15 73.78 117.11 73.77C116.98 73.73 116.85 73.68 116.72 73.64C116.7 73.63 116.69 73.63 116.67 73.62C116.51 73.56 116.35 73.5 116.19 73.44C116.16 73.43 116.13 73.42 116.1 73.4C115.94 73.34 115.78 73.27 115.61 73.2C115.58 73.19 115.56 73.18 115.53 73.17C115.33 73.08 115.14 72.99 114.94 72.9C114.91 72.89 114.89 72.88 114.86 72.86C114.66 72.76 114.46 72.67 114.25 72.56C114.21 72.54 114.17 72.52 114.14 72.5C114.05 72.45 113.95 72.4 113.86 72.35C113.81 72.33 113.77 72.3 113.72 72.28C113.62 72.23 113.52 72.18 113.43 72.12C113.39 72.1 113.35 72.08 113.31 72.05C113.17 71.97 113.04 71.9 112.9 71.82C112.88 71.81 112.86 71.79 112.83 71.78C112.71 71.71 112.59 71.64 112.48 71.57C112.45 71.55 112.42 71.53 112.39 71.51C112.16 71.37 111.92 71.23 111.69 71.08C111.66 71.06 111.63 71.04 111.6 71.03C111.36 70.88 111.13 70.73 110.89 70.57C110.86 70.55 110.83 70.53 110.81 70.51C110.57 70.35 110.32 70.18 110.08 70.01C110.06 69.99 110.03 69.98 110.01 69.96C109.76 69.78 109.5 69.6 109.24 69.41C109.23 69.4 109.21 69.39 109.2 69.38C108.93 69.18 108.66 68.98 108.39 68.78C108.38 68.78 108.38 68.77 108.37 68.77C108.1 68.57 107.83 68.36 107.57 68.15C107.55 68.13 107.53 68.12 107.51 68.1C107.25 67.9 107 67.69 106.74 67.48C106.71 67.46 106.69 67.43 106.66 67.41C106.41 67.2 106.16 66.99 105.91 66.78C105.89 66.76 105.86 66.74 105.84 66.72C105.42 66.36 105.01 65.99 104.59 65.62C104.57 65.61 104.56 65.59 104.54 65.58C104.22 65.28 103.89 64.98 103.57 64.67C103.54 64.65 103.52 64.62 103.49 64.6C103.22 64.34 102.94 64.07 102.67 63.8C102.62 63.75 102.57 63.7 102.52 63.65C102.28 63.41 102.04 63.17 101.81 62.93C101.8 62.92 101.79 62.9 101.77 62.89C101.5 62.61 101.24 62.34 100.98 62.06C100.97 62.05 100.96 62.04 100.95 62.02C100.7 61.76 100.46 61.49 100.22 61.22C100.2 61.2 100.18 61.17 100.16 61.15C99.93 60.89 99.71 60.64 99.49 60.38C99.46 60.35 99.44 60.32 99.41 60.29C99.19 60.03 98.98 59.78 98.76 59.52C98.74 59.49 98.71 59.46 98.69 59.43C98.47 59.16 98.26 58.9 98.05 58.63C98.04 58.61 98.02 58.59 98.01 58.57C97.78 58.28 97.55 57.99 97.33 57.7C97.32 57.68 97.31 57.67 97.29 57.65C97.07 57.36 96.85 57.06 96.64 56.77C96.62 56.75 96.6 56.72 96.59 56.7C96.36 56.38 96.14 56.06 95.92 55.75C95.9 55.72 95.88 55.68 95.85 55.65C95.76 55.51 95.67 55.38 95.58 55.24C95.56 55.2 95.53 55.16 95.51 55.13C95.4 54.97 95.3 54.81 95.2 54.65C95.18 54.62 95.16 54.59 95.15 54.57C95.03 54.38 94.92 54.2 94.8 54.01C94.79 54 94.79 53.99 94.78 53.98C94.67 53.79 94.55 53.6 94.45 53.42C94.43 53.39 94.42 53.36 94.4 53.33C94.26 53.08 94.12 52.83 93.99 52.59C93.98 52.58 93.98 52.57 93.97 52.55C93.83 52.29 93.7 52.04 93.58 51.79C93.56 51.74 93.53 51.69 93.51 51.64C93.48 51.57 93.45 51.51 93.41 51.44C93.38 51.39 93.36 51.34 93.34 51.28C93.31 51.22 93.28 51.15 93.25 51.09C93.23 51.04 93.2 50.98 93.18 50.93C93.15 50.87 93.12 50.81 93.1 50.75C93.08 50.7 93.05 50.64 93.03 50.59C93 50.53 92.98 50.47 92.95 50.41C92.93 50.36 92.91 50.3 92.88 50.25C92.86 50.19 92.83 50.13 92.81 50.07C92.79 50.02 92.77 49.96 92.75 49.91C92.73 49.85 92.71 49.8 92.68 49.74C92.66 49.69 92.64 49.64 92.62 49.58C92.6 49.52 92.58 49.47 92.56 49.41C92.54 49.36 92.52 49.31 92.51 49.26C92.49 49.2 92.47 49.15 92.45 49.09C92.43 49.04 92.42 48.99 92.4 48.94C92.38 48.89 92.36 48.83 92.35 48.78C92.33 48.73 92.32 48.68 92.31 48.63C92.29 48.58 92.28 48.52 92.26 48.47C92.25 48.42 92.23 48.37 92.22 48.33C92.21 48.28 92.19 48.22 92.18 48.17C92.17 48.12 92.15 48.07 92.14 48.03C92.13 47.98 92.11 47.93 92.1 47.88C92.09 47.83 92.08 47.79 92.07 47.74C92.06 47.69 92.05 47.64 92.04 47.59C92.03 47.54 92.02 47.5 92.01 47.45C92 47.4 91.99 47.35 91.98 47.3C91.97 47.26 91.96 47.21 91.96 47.17C91.95 47.12 91.94 47.07 91.94 47.03C91.93 46.99 91.93 46.94 91.92 46.9C91.91 46.85 91.91 46.81 91.9 46.76C91.89 46.72 91.89 46.67 91.89 46.63C91.89 46.58 91.88 46.54 91.88 46.49C91.88 46.45 91.87 46.41 91.87 46.36C91.87 46.32 91.86 46.27 91.86 46.23C91.86 46.19 91.86 46.15 91.85 46.11C91.85 46.07 91.85 46.02 91.85 45.98C91.85 45.94 91.85 45.9 91.85 45.86C91.85 45.82 91.85 45.78 91.85 45.73C91.85 45.69 91.85 45.65 91.85 45.61C91.85 45.57 91.85 45.53 91.86 45.49C91.86 45.45 91.87 45.41 91.87 45.38C91.87 45.34 91.88 45.3 91.88 45.26C91.88 45.22 91.89 45.19 91.89 45.15C91.9 45.11 91.9 45.07 91.91 45.03C91.92 45 91.92 44.96 91.93 44.93C91.94 44.89 91.95 44.86 91.95 44.82C91.96 44.79 91.96 44.75 91.97 44.72C91.98 44.68 91.99 44.65 92 44.61C92.01 44.58 92.02 44.55 92.03 44.52C92.04 44.48 92.05 44.45 92.07 44.42C92.08 44.39 92.09 44.36 92.1 44.33C92.11 44.3 92.13 44.26 92.14 44.23C92.15 44.2 92.16 44.17 92.18 44.15C92.2 44.12 92.21 44.08 92.23 44.05C92.24 44.02 92.26 44 92.27 43.97C92.29 43.94 92.31 43.91 92.33 43.87C92.34 43.85 92.36 43.82 92.37 43.8C92.39 43.77 92.41 43.74 92.44 43.7C92.45 43.68 92.47 43.66 92.48 43.64C92.51 43.61 92.53 43.57 92.56 43.54C92.57 43.52 92.59 43.51 92.6 43.49C92.64 43.44 92.69 43.39 92.73 43.35L73.35 62.7C73.3 62.75 73.26 62.79 73.22 62.84C73.21 62.86 73.19 62.87 73.18 62.89C73.15 62.92 73.13 62.96 73.1 62.99C73.08 63.01 73.07 63.03 73.06 63.05C73.04 63.08 73.02 63.11 72.99 63.15C72.97 63.17 72.96 63.2 72.95 63.22C72.93 63.25 72.91 63.28 72.89 63.32C72.88 63.35 72.86 63.37 72.85 63.4C72.83 63.43 72.82 63.46 72.8 63.5C72.79 63.53 72.78 63.56 72.76 63.58C72.75 63.61 72.73 63.65 72.72 63.68C72.71 63.71 72.7 63.74 72.69 63.77C72.68 63.8 72.67 63.84 72.65 63.87C72.64 63.9 72.63 63.93 72.62 63.96C72.61 64 72.6 64.03 72.59 64.07C72.58 64.1 72.57 64.14 72.57 64.17C72.56 64.21 72.55 64.24 72.55 64.28C72.54 64.31 72.54 64.35 72.53 64.38C72.52 64.42 72.52 64.46 72.51 64.5C72.51 64.54 72.5 64.57 72.5 64.61C72.5 64.65 72.49 64.69 72.49 64.73C72.49 64.77 72.48 64.8 72.48 64.84C72.48 64.88 72.47 64.92 72.47 64.96C72.47 65 72.47 65.04 72.47 65.07C72.47 65.11 72.47 65.15 72.47 65.2C72.47 65.24 72.47 65.28 72.47 65.32C72.47 65.36 72.47 65.41 72.47 65.45C72.47 65.49 72.47 65.53 72.48 65.57C72.48 65.61 72.48 65.66 72.49 65.7C72.49 65.74 72.5 65.78 72.5 65.83C72.5 65.88 72.51 65.92 72.51 65.97C72.51 66.01 72.52 66.06 72.52 66.1C72.53 66.15 72.53 66.19 72.54 66.24C72.55 66.28 72.55 66.33 72.56 66.37C72.57 66.42 72.57 66.47 72.58 66.51C72.59 66.55 72.6 66.6 72.6 66.64C72.61 66.69 72.62 66.74 72.63 66.79C72.64 66.84 72.65 66.88 72.66 66.93C72.67 66.98 72.68 67.03 72.69 67.08C72.7 67.13 72.71 67.17 72.72 67.22C72.73 67.27 72.75 67.32 72.76 67.37C72.77 67.42 72.78 67.46 72.8 67.51C72.81 67.56 72.83 67.61 72.84 67.67C72.85 67.72 72.87 67.77 72.88 67.81C72.9 67.86 72.91 67.92 72.93 67.97C72.94 68.02 72.96 68.07 72.98 68.12C73 68.17 73.02 68.23 73.03 68.28C73.05 68.33 73.06 68.38 73.08 68.43C73.1 68.49 73.12 68.54 73.14 68.6C73.16 68.65 73.18 68.7 73.19 68.75C73.21 68.81 73.23 68.86 73.25 68.92C73.27 68.97 73.29 69.02 73.31 69.08C73.33 69.14 73.35 69.19 73.38 69.25C73.4 69.3 73.42 69.35 73.44 69.41C73.46 69.47 73.49 69.53 73.51 69.59C73.53 69.64 73.55 69.69 73.58 69.75C73.61 69.81 73.63 69.87 73.66 69.93C73.68 69.98 73.71 70.04 73.73 70.09C73.76 70.15 73.79 70.21 73.81 70.27C73.83 70.32 73.86 70.38 73.88 70.43C73.91 70.49 73.94 70.56 73.97 70.62C73.99 70.67 74.02 70.72 74.04 70.78C74.07 70.84 74.1 70.91 74.14 70.98C74.16 71.03 74.18 71.07 74.21 71.12C74.21 71.12 74.21 71.13 74.22 71.13C74.35 71.38 74.48 71.63 74.61 71.89C74.62 71.9 74.62 71.92 74.63 71.93C74.76 72.17 74.9 72.42 75.04 72.67C75.05 72.68 75.05 72.69 75.06 72.7C75.07 72.72 75.08 72.74 75.09 72.76C75.2 72.95 75.31 73.13 75.42 73.32C75.43 73.33 75.44 73.34 75.44 73.36C75.55 73.55 75.67 73.73 75.79 73.92C75.8 73.94 75.81 73.96 75.82 73.97C75.83 73.98 75.83 73.99 75.84 74C75.94 74.16 76.05 74.32 76.15 74.48C76.17 74.52 76.2 74.55 76.22 74.59C76.31 74.73 76.4 74.86 76.49 75C76.51 75.02 76.52 75.05 76.54 75.07C76.55 75.08 76.55 75.09 76.56 75.09C76.77 75.41 77 75.72 77.23 76.05C77.24 76.06 77.24 76.07 77.25 76.08C77.26 76.09 77.27 76.11 77.28 76.12C77.49 76.41 77.71 76.71 77.93 77C77.94 77.01 77.94 77.02 77.95 77.03C77.95 77.04 77.96 77.04 77.96 77.05C78.18 77.34 78.41 77.63 78.64 77.92C78.64 77.93 78.65 77.93 78.65 77.94C78.66 77.95 78.67 77.96 78.68 77.98C78.89 78.24 79.1 78.51 79.32 78.78C79.33 78.79 79.34 78.81 79.35 78.82C79.36 78.84 79.38 78.85 79.39 78.87C79.6 79.13 79.82 79.38 80.04 79.64C80.05 79.66 80.07 79.67 80.08 79.69C80.09 79.7 80.1 79.72 80.12 79.73C80.34 79.99 80.57 80.24 80.79 80.5C80.8 80.51 80.82 80.53 80.83 80.54C80.84 80.55 80.85 80.56 80.86 80.57C81.1 80.84 81.34 81.1 81.59 81.37C81.6 81.38 81.61 81.39 81.61 81.4L81.62 81.41C81.88 81.69 82.14 81.97 82.41 82.24L82.42 82.25C82.43 82.26 82.44 82.27 82.45 82.28C82.68 82.52 82.92 82.76 83.16 83C83.2 83.04 83.23 83.07 83.27 83.11C83.28 83.12 83.3 83.14 83.31 83.15C83.58 83.42 83.86 83.69 84.13 83.95C84.14 83.96 84.16 83.98 84.17 83.99C84.18 84 84.19 84.01 84.2 84.02C84.52 84.33 84.85 84.63 85.17 84.93C85.18 84.94 85.18 84.94 85.19 84.95C85.2 84.96 85.21 84.96 85.22 84.97C85.63 85.35 86.05 85.72 86.47 86.07C86.48 86.08 86.49 86.09 86.5 86.1C86.51 86.11 86.53 86.12 86.54 86.14C86.79 86.35 87.04 86.57 87.29 86.77C87.32 86.79 87.34 86.82 87.37 86.84C87.63 87.05 87.88 87.26 88.14 87.46C88.16 87.48 88.18 87.49 88.2 87.51C88.47 87.72 88.74 87.93 89 88.13L89.01 88.14C89.28 88.35 89.55 88.55 89.82 88.74C89.83 88.75 89.85 88.76 89.86 88.77C90.12 88.96 90.37 89.14 90.63 89.31C90.65 89.33 90.68 89.34 90.7 89.36C90.95 89.53 91.19 89.69 91.43 89.86C91.46 89.88 91.49 89.9 91.51 89.92C91.75 90.08 91.99 90.23 92.22 90.38C92.25 90.4 92.28 90.42 92.3 90.43C92.54 90.58 92.77 90.72 93.01 90.86C93.02 90.87 93.04 90.88 93.05 90.89C93.07 90.9 93.08 90.91 93.1 90.92C93.22 90.99 93.34 91.06 93.46 91.13C93.48 91.14 93.5 91.15 93.52 91.16C93.66 91.24 93.8 91.32 93.93 91.39C93.97 91.41 94.01 91.43 94.05 91.45C94.15 91.5 94.25 91.56 94.35 91.61C94.4 91.63 94.44 91.66 94.49 91.68C94.59 91.73 94.68 91.78 94.78 91.83C94.81 91.84 94.84 91.86 94.86 91.87C94.87 91.87 94.88 91.88 94.89 91.88C95.1 91.98 95.3 92.08 95.5 92.18C95.52 92.19 95.55 92.2 95.57 92.21C95.77 92.3 95.97 92.39 96.17 92.48C96.18 92.49 96.2 92.49 96.21 92.5C96.22 92.5 96.23 92.51 96.24 92.51C96.4 92.58 96.57 92.65 96.73 92.71C96.76 92.72 96.79 92.73 96.82 92.75C96.98 92.81 97.14 92.88 97.3 92.93L97.31 92.93C97.32 92.93 97.33 92.94 97.35 92.94C97.48 92.99 97.61 93.03 97.74 93.07C97.77 93.08 97.8 93.09 97.84 93.1C97.98 93.15 98.12 93.19 98.25 93.23C98.26 93.23 98.26 93.23 98.27 93.24C98.29 93.25 98.31 93.25 98.32 93.25C98.43 93.28 98.53 93.31 98.64 93.34C98.67 93.35 98.7 93.36 98.74 93.37C98.86 93.4 98.99 93.43 99.11 93.46L99.12 93.46C99.13 93.46 99.14 93.46 99.16 93.47C99.26 93.49 99.36 93.51 99.46 93.53C99.49 93.54 99.53 93.54 99.56 93.55C99.65 93.57 99.75 93.58 99.84 93.59C99.86 93.59 99.87 93.6 99.89 93.6C99.9 93.6 99.9 93.6 99.91 93.6C100.02 93.61 100.12 93.63 100.23 93.64C100.26 93.64 100.28 93.64 100.31 93.65C100.39 93.66 100.47 93.66 100.55 93.67C100.57 93.67 100.58 93.67 100.6 93.67C100.61 93.67 100.63 93.67 100.64 93.67C100.73 93.67 100.81 93.67 100.9 93.67C100.91 93.67 100.93 93.67 100.94 93.67C101.04 93.67 101.13 93.67 101.22 93.66C101.23 93.66 101.24 93.66 101.25 93.66C101.27 93.66 101.28 93.66 101.3 93.66C101.37 93.65 101.44 93.65 101.51 93.64C101.54 93.64 101.56 93.63 101.59 93.63C101.67 93.62 101.75 93.61 101.83 93.59L101.84 93.59L101.84 93.59C101.93 93.57 102.01 93.55 102.09 93.53C102.11 93.52 102.14 93.52 102.16 93.51C102.22 93.49 102.28 93.47 102.34 93.45C102.35 93.45 102.37 93.44 102.38 93.44C102.39 93.44 102.39 93.43 102.4 93.43C102.48 93.4 102.56 93.37 102.63 93.33C102.64 93.32 102.66 93.32 102.67 93.31C102.73 93.28 102.79 93.25 102.85 93.21C102.86 93.2 102.87 93.2 102.88 93.19C102.89 93.19 102.9 93.18 102.9 93.17C102.97 93.13 103.04 93.08 103.11 93.03C103.12 93.03 103.12 93.02 103.13 93.02C103.19 92.97 103.25 92.92 103.31 92.87C103.32 92.86 103.33 92.86 103.34 92.85C103.36 92.83 103.38 92.81 103.4 92.79L122.73 73.48C122.74 73.52 122.71 73.54 122.69 73.57Z" fill="#3e4546" fill-rule="nonzero" opacity="1" stroke="none"/>
</g>
<g opacity="1">
<path d="M112.14 54.03C105.7 47.58 102.29 40.54 104.53 38.31C106.77 36.07 113.8 39.48 120.24 45.93C126.68 52.37 130.09 59.41 127.85 61.65C125.62 63.88 118.58 60.47 112.14 54.03Z" fill="#edf5f7" fill-rule="nonzero" opacity="1" stroke="none"/>
<path d="M127.79 61.7C127.75 61.74 127.7 61.78 127.65 61.82L127.64 61.83C127.59 61.87 127.53 61.91 127.48 61.94C127.47 61.95 127.45 61.96 127.44 61.97C127.39 62 127.35 62.02 127.3 62.05C127.29 62.06 127.28 62.06 127.27 62.07C127.21 62.1 127.15 62.12 127.09 62.15C127.07 62.16 127.06 62.16 127.04 62.17C126.99 62.19 126.95 62.2 126.9 62.22C126.88 62.23 126.86 62.23 126.85 62.24C126.79 62.26 126.72 62.27 126.66 62.29L126.65 62.29C126.59 62.3 126.52 62.31 126.46 62.32C126.44 62.32 126.42 62.33 126.4 62.33C126.35 62.34 126.29 62.34 126.24 62.35C126.22 62.35 126.2 62.35 126.18 62.35C126.11 62.35 126.03 62.36 125.96 62.36C125.95 62.36 125.94 62.36 125.93 62.36C125.86 62.36 125.8 62.36 125.73 62.36C125.71 62.36 125.68 62.36 125.66 62.36C125.6 62.36 125.54 62.35 125.47 62.35C125.45 62.35 125.43 62.35 125.41 62.34C125.33 62.33 125.25 62.32 125.16 62.31C125.14 62.31 125.13 62.31 125.11 62.3C125.04 62.29 124.97 62.28 124.89 62.27C124.86 62.27 124.84 62.26 124.81 62.26C124.73 62.25 124.65 62.23 124.57 62.21C124.56 62.21 124.55 62.21 124.53 62.2C124.44 62.18 124.34 62.16 124.24 62.13C124.22 62.12 124.19 62.12 124.17 62.11C124.09 62.09 124.01 62.07 123.92 62.04C123.9 62.03 123.88 62.03 123.86 62.02C123.76 61.99 123.65 61.96 123.54 61.92C123.52 61.91 123.49 61.9 123.47 61.9C123.37 61.87 123.27 61.83 123.17 61.8C123.16 61.8 123.15 61.79 123.13 61.79C123.01 61.75 122.88 61.7 122.76 61.65C122.74 61.64 122.71 61.63 122.69 61.62C122.57 61.57 122.44 61.52 122.31 61.46C122.29 61.45 122.27 61.44 122.25 61.43C122.1 61.36 121.94 61.29 121.79 61.22C121.77 61.21 121.75 61.2 121.73 61.19C121.57 61.12 121.42 61.04 121.26 60.96C121.23 60.95 121.2 60.93 121.17 60.91C121.1 60.87 121.02 60.83 120.95 60.8C120.91 60.78 120.88 60.76 120.84 60.74C120.76 60.7 120.69 60.66 120.61 60.62C120.58 60.6 120.55 60.59 120.52 60.57C120.41 60.51 120.31 60.45 120.2 60.39C120.18 60.38 120.17 60.37 120.15 60.36C120.06 60.31 119.97 60.25 119.88 60.2C119.86 60.19 119.83 60.17 119.81 60.16C119.63 60.05 119.45 59.94 119.26 59.83C119.24 59.82 119.22 59.8 119.19 59.79C119.01 59.68 118.82 59.56 118.64 59.43C118.62 59.42 118.6 59.4 118.57 59.39C118.38 59.27 118.19 59.14 118 59.01C117.98 59 117.96 58.99 117.95 58.97C117.75 58.83 117.55 58.69 117.35 58.55C117.34 58.54 117.33 58.54 117.32 58.53C117.11 58.38 116.9 58.22 116.69 58.06L116.68 58.05C116.47 57.89 116.26 57.73 116.06 57.57C116.05 57.56 116.03 57.55 116.01 57.53C115.81 57.37 115.61 57.21 115.42 57.05C115.4 57.03 115.38 57.01 115.36 57C115.17 56.84 114.97 56.68 114.78 56.51C114.76 56.49 114.74 56.48 114.72 56.46C114.4 56.18 114.08 55.9 113.75 55.6C113.74 55.59 113.73 55.58 113.71 55.57C113.46 55.34 113.21 55.1 112.95 54.86C112.93 54.84 112.91 54.82 112.89 54.8C112.68 54.6 112.46 54.39 112.25 54.18C112.21 54.14 112.17 54.1 112.13 54.06C111.94 53.87 111.76 53.69 111.58 53.5C111.57 53.49 111.56 53.48 111.55 53.47C111.34 53.26 111.14 53.04 110.94 52.82C110.93 52.81 110.92 52.8 110.91 52.79C110.72 52.58 110.53 52.38 110.35 52.17C110.33 52.15 110.32 52.13 110.3 52.11C110.12 51.91 109.95 51.71 109.78 51.51C109.76 51.49 109.74 51.46 109.72 51.44C109.55 51.24 109.38 51.04 109.22 50.85C109.2 50.83 109.18 50.81 109.16 50.78C108.99 50.57 108.82 50.37 108.66 50.16C108.65 50.15 108.64 50.13 108.63 50.12C108.45 49.89 108.28 49.67 108.11 49.44C108.1 49.43 108.09 49.42 108.08 49.4C107.91 49.17 107.74 48.94 107.58 48.72C107.57 48.7 107.55 48.68 107.54 48.66C107.36 48.41 107.19 48.17 107.02 47.92C107 47.89 106.99 47.87 106.97 47.84C106.9 47.73 106.83 47.63 106.76 47.53C106.74 47.5 106.72 47.47 106.7 47.44C106.62 47.31 106.54 47.19 106.46 47.07C106.45 47.05 106.43 47.03 106.42 47C106.33 46.85 106.24 46.71 106.15 46.57C106.14 46.56 106.14 46.55 106.13 46.54C106.04 46.39 105.96 46.25 105.87 46.1C105.86 46.08 105.84 46.05 105.83 46.03C105.72 45.84 105.61 45.64 105.51 45.45C105.5 45.44 105.5 45.43 105.49 45.42C105.38 45.22 105.28 45.03 105.18 44.83C105.16 44.79 105.14 44.75 105.12 44.71C105.1 44.66 105.07 44.61 105.05 44.56C105.03 44.52 105.01 44.48 104.99 44.44C104.97 44.39 104.94 44.34 104.92 44.29C104.9 44.25 104.88 44.21 104.86 44.17C104.84 44.12 104.82 44.07 104.8 44.03C104.78 43.99 104.76 43.95 104.75 43.91C104.73 43.86 104.71 43.82 104.69 43.77C104.67 43.73 104.66 43.69 104.64 43.65C104.62 43.6 104.6 43.56 104.58 43.51C104.56 43.47 104.55 43.43 104.53 43.39C104.51 43.35 104.5 43.3 104.48 43.26C104.46 43.22 104.45 43.18 104.43 43.14C104.41 43.1 104.4 43.05 104.38 43.01C104.37 42.97 104.35 42.93 104.34 42.89C104.32 42.85 104.31 42.8 104.3 42.76C104.29 42.72 104.27 42.68 104.26 42.64C104.25 42.6 104.23 42.55 104.22 42.51C104.21 42.47 104.2 42.43 104.19 42.4C104.18 42.36 104.16 42.32 104.15 42.27C104.14 42.23 104.13 42.2 104.12 42.16C104.11 42.12 104.1 42.08 104.09 42.04C104.08 42 104.07 41.97 104.06 41.93C104.05 41.89 104.04 41.85 104.03 41.81C104.02 41.77 104.01 41.74 104 41.7C103.99 41.66 103.98 41.62 103.97 41.58C103.96 41.54 103.96 41.51 103.95 41.47C103.94 41.43 103.94 41.39 103.93 41.36C103.92 41.33 103.92 41.29 103.91 41.26C103.9 41.22 103.9 41.18 103.89 41.15C103.88 41.12 103.88 41.08 103.88 41.05C103.87 41.01 103.87 40.98 103.87 40.94C103.87 40.91 103.86 40.87 103.86 40.84C103.86 40.8 103.85 40.77 103.85 40.73C103.85 40.7 103.84 40.67 103.84 40.63C103.84 40.6 103.84 40.56 103.83 40.53C103.83 40.5 103.83 40.47 103.83 40.44C103.83 40.41 103.83 40.37 103.83 40.34C103.83 40.31 103.83 40.28 103.83 40.25C103.83 40.22 103.83 40.18 103.83 40.15C103.83 40.12 103.83 40.09 103.83 40.06C103.83 40.03 103.83 40 103.84 39.97C103.84 39.94 103.84 39.91 103.85 39.88C103.85 39.85 103.86 39.82 103.86 39.79C103.86 39.76 103.87 39.73 103.87 39.71C103.87 39.68 103.88 39.65 103.88 39.62C103.88 39.59 103.89 39.57 103.89 39.54C103.9 39.51 103.9 39.48 103.91 39.45C103.92 39.42 103.92 39.4 103.93 39.37C103.94 39.34 103.95 39.31 103.95 39.29C103.96 39.27 103.96 39.24 103.97 39.22C103.98 39.19 103.99 39.17 104 39.14C104.01 39.12 104.02 39.09 104.02 39.07C104.03 39.04 104.04 39.02 104.05 38.99C104.06 38.97 104.07 38.95 104.08 38.92C104.09 38.89 104.1 38.87 104.12 38.84C104.13 38.82 104.14 38.8 104.15 38.78C104.16 38.75 104.18 38.73 104.19 38.71C104.2 38.69 104.21 38.67 104.22 38.65C104.24 38.62 104.25 38.6 104.27 38.58C104.28 38.56 104.29 38.55 104.3 38.53C104.32 38.5 104.34 38.48 104.36 38.45C104.37 38.44 104.38 38.42 104.39 38.41C104.42 38.37 104.46 38.34 104.49 38.3L96.67 46.1C96.63 46.14 96.6 46.17 96.57 46.21C96.56 46.22 96.55 46.24 96.54 46.25C96.52 46.28 96.5 46.3 96.48 46.33C96.47 46.35 96.46 46.36 96.45 46.38C96.43 46.4 96.42 46.43 96.4 46.45C96.39 46.47 96.38 46.49 96.37 46.51C96.36 46.53 96.34 46.56 96.33 46.58C96.32 46.6 96.31 46.62 96.3 46.64C96.29 46.67 96.27 46.69 96.26 46.72C96.25 46.74 96.24 46.76 96.23 46.79C96.22 46.82 96.21 46.84 96.2 46.87C96.19 46.89 96.18 46.92 96.18 46.94C96.17 46.97 96.16 46.99 96.15 47.02C96.14 47.04 96.14 47.07 96.13 47.09C96.12 47.12 96.11 47.15 96.11 47.17C96.1 47.2 96.1 47.22 96.09 47.25C96.08 47.28 96.08 47.31 96.07 47.34C96.06 47.37 96.06 47.39 96.06 47.42C96.05 47.45 96.05 47.48 96.05 47.51C96.05 47.54 96.04 47.57 96.04 47.59C96.04 47.62 96.03 47.65 96.03 47.68C96.03 47.71 96.03 47.74 96.02 47.77C96.02 47.8 96.02 47.83 96.01 47.87C96.01 47.9 96.01 47.93 96.01 47.96C96.01 47.99 96.01 48.03 96.01 48.06C96.01 48.09 96.01 48.12 96.01 48.15C96.01 48.18 96.01 48.22 96.01 48.25C96.01 48.28 96.01 48.31 96.01 48.34C96.01 48.37 96.01 48.41 96.02 48.44C96.02 48.47 96.02 48.5 96.03 48.54C96.03 48.58 96.04 48.61 96.04 48.65C96.04 48.68 96.05 48.72 96.05 48.75C96.05 48.79 96.06 48.82 96.06 48.86C96.06 48.89 96.07 48.93 96.07 48.96C96.08 49 96.08 49.03 96.09 49.07C96.1 49.1 96.1 49.14 96.11 49.17C96.12 49.21 96.12 49.25 96.13 49.28C96.14 49.32 96.14 49.35 96.15 49.39C96.16 49.43 96.17 49.47 96.18 49.51C96.19 49.55 96.2 49.58 96.21 49.62C96.22 49.66 96.23 49.7 96.24 49.74C96.25 49.78 96.26 49.81 96.27 49.85C96.28 49.89 96.29 49.93 96.3 49.97C96.31 50.01 96.32 50.04 96.33 50.08C96.34 50.12 96.35 50.16 96.37 50.2C96.38 50.24 96.39 50.28 96.41 50.31C96.42 50.35 96.44 50.39 96.45 50.44C96.46 50.48 96.48 50.52 96.49 50.56C96.5 50.6 96.52 50.65 96.53 50.69C96.54 50.73 96.56 50.77 96.57 50.81C96.59 50.85 96.6 50.9 96.62 50.94C96.63 50.98 96.65 51.02 96.67 51.06C96.69 51.1 96.7 51.15 96.72 51.19C96.74 51.23 96.75 51.27 96.77 51.31C96.79 51.36 96.81 51.4 96.83 51.45C96.85 51.49 96.86 51.53 96.88 51.57C96.9 51.62 96.92 51.66 96.94 51.71C96.96 51.75 96.98 51.79 96.99 51.83C97.01 51.88 97.03 51.92 97.05 51.97C97.07 52.01 97.09 52.05 97.11 52.09C97.13 52.14 97.16 52.19 97.18 52.24C97.2 52.28 97.22 52.32 97.24 52.36C97.26 52.41 97.29 52.46 97.31 52.51C97.33 52.55 97.34 52.58 97.36 52.62L97.36 52.63C97.46 52.82 97.56 53.02 97.67 53.22C97.68 53.23 97.68 53.24 97.69 53.25C97.79 53.44 97.9 53.63 98.01 53.82C98.01 53.83 98.02 53.84 98.02 53.85C98.03 53.87 98.04 53.88 98.05 53.9C98.13 54.04 98.22 54.19 98.31 54.34C98.32 54.35 98.32 54.36 98.33 54.37C98.42 54.51 98.51 54.66 98.6 54.8C98.61 54.81 98.62 54.83 98.63 54.84C98.63 54.85 98.64 54.86 98.64 54.86C98.72 54.98 98.8 55.11 98.88 55.24C98.9 55.27 98.92 55.3 98.94 55.33C99.01 55.43 99.08 55.54 99.15 55.65C99.16 55.67 99.18 55.69 99.19 55.71C99.19 55.72 99.2 55.72 99.2 55.73C99.37 55.98 99.54 56.22 99.72 56.47C99.73 56.48 99.73 56.49 99.74 56.49C99.75 56.5 99.76 56.51 99.76 56.52C99.92 56.75 100.09 56.97 100.26 57.2C100.27 57.21 100.27 57.22 100.28 57.22L100.29 57.23C100.46 57.46 100.64 57.68 100.81 57.91L100.82 57.92C100.83 57.93 100.84 57.94 100.84 57.95C101 58.16 101.17 58.36 101.34 58.57C101.35 58.58 101.36 58.59 101.36 58.6C101.37 58.61 101.38 58.62 101.39 58.64C101.55 58.84 101.72 59.04 101.89 59.23C101.9 59.24 101.91 59.25 101.92 59.27C101.93 59.28 101.94 59.29 101.95 59.3C102.12 59.5 102.3 59.7 102.47 59.9C102.48 59.91 102.49 59.92 102.5 59.93C102.51 59.94 102.51 59.94 102.52 59.95C102.7 60.16 102.89 60.36 103.08 60.57C103.09 60.58 103.09 60.58 103.1 60.59L103.11 60.6C103.31 60.82 103.51 61.03 103.72 61.25C103.72 61.25 103.72 61.26 103.73 61.26C103.74 61.27 103.74 61.27 103.75 61.28C103.93 61.47 104.11 61.65 104.3 61.84C104.33 61.87 104.36 61.9 104.39 61.93C104.4 61.94 104.41 61.95 104.42 61.96C104.63 62.17 104.84 62.38 105.06 62.58C105.07 62.59 105.08 62.6 105.09 62.61C105.1 62.62 105.11 62.63 105.12 62.63C105.37 62.87 105.62 63.1 105.87 63.33C105.88 63.34 105.88 63.34 105.89 63.35C105.9 63.36 105.9 63.36 105.91 63.37C106.23 63.66 106.55 63.95 106.88 64.22C106.89 64.23 106.9 64.23 106.9 64.24C106.91 64.25 106.92 64.26 106.93 64.27C107.12 64.44 107.32 64.6 107.51 64.76C107.53 64.78 107.55 64.8 107.57 64.81C107.77 64.97 107.97 65.13 108.16 65.29C108.18 65.3 108.19 65.31 108.21 65.33C108.42 65.5 108.63 65.66 108.83 65.81L108.84 65.82C109.05 65.98 109.26 66.14 109.47 66.29C109.48 66.3 109.49 66.31 109.5 66.31C109.7 66.45 109.9 66.6 110.09 66.73C110.11 66.74 110.13 66.76 110.14 66.77C110.33 66.9 110.52 67.03 110.71 67.15C110.73 67.16 110.75 67.18 110.78 67.19C110.97 67.31 111.15 67.43 111.33 67.55C111.35 67.56 111.37 67.58 111.4 67.59C111.58 67.7 111.77 67.82 111.95 67.92C111.96 67.93 111.97 67.93 111.98 67.94C111.99 67.95 112 67.95 112.02 67.96C112.11 68.02 112.21 68.07 112.3 68.12C112.31 68.13 112.33 68.14 112.35 68.15C112.46 68.21 112.56 68.27 112.67 68.33C112.7 68.35 112.73 68.36 112.76 68.38C112.84 68.42 112.91 68.46 112.99 68.5C113.03 68.52 113.06 68.54 113.1 68.56C113.17 68.6 113.25 68.64 113.32 68.67C113.34 68.68 113.36 68.69 113.39 68.7C113.4 68.7 113.4 68.71 113.41 68.71C113.57 68.79 113.73 68.87 113.88 68.94C113.9 68.95 113.92 68.96 113.94 68.97C114.1 69.04 114.25 69.11 114.4 69.18C114.41 69.19 114.42 69.19 114.43 69.2C114.44 69.2 114.45 69.21 114.46 69.21C114.59 69.26 114.71 69.32 114.84 69.37C114.86 69.38 114.89 69.39 114.91 69.4C115.04 69.45 115.16 69.5 115.29 69.54L115.3 69.54C115.31 69.54 115.32 69.55 115.33 69.55C115.43 69.59 115.53 69.62 115.63 69.65C115.65 69.66 115.68 69.67 115.7 69.67C115.81 69.71 115.91 69.74 116.02 69.77C116.03 69.77 116.03 69.77 116.04 69.77C116.05 69.77 116.07 69.78 116.08 69.78C116.16 69.8 116.25 69.83 116.33 69.85C116.36 69.86 116.38 69.86 116.41 69.87C116.51 69.89 116.6 69.92 116.7 69.94C116.7 69.94 116.7 69.94 116.71 69.94C116.72 69.94 116.73 69.94 116.74 69.95C116.82 69.97 116.9 69.98 116.98 70C117.01 70 117.03 70.01 117.06 70.01C117.13 70.02 117.2 70.03 117.28 70.04C117.29 70.04 117.31 70.04 117.32 70.05L117.33 70.05C117.41 70.06 117.5 70.07 117.58 70.08C117.6 70.08 117.62 70.08 117.64 70.09C117.7 70.1 117.76 70.1 117.83 70.1C117.84 70.1 117.86 70.1 117.87 70.1C117.88 70.1 117.89 70.1 117.9 70.1C117.97 70.1 118.03 70.1 118.1 70.1C118.11 70.1 118.12 70.1 118.13 70.1C118.2 70.1 118.28 70.1 118.35 70.09C118.36 70.09 118.36 70.09 118.37 70.09C118.38 70.09 118.4 70.09 118.41 70.09C118.46 70.09 118.52 70.08 118.57 70.07C118.59 70.07 118.61 70.07 118.63 70.06C118.69 70.05 118.76 70.04 118.82 70.03L118.83 70.03L118.83 70.03C118.9 70.02 118.96 70 119.02 69.98C119.04 69.98 119.06 69.97 119.07 69.96C119.12 69.95 119.17 69.93 119.21 69.91C119.22 69.91 119.23 69.9 119.24 69.9C119.25 69.9 119.25 69.9 119.26 69.89C119.32 69.87 119.38 69.84 119.44 69.81C119.45 69.81 119.46 69.8 119.47 69.79C119.52 69.77 119.57 69.74 119.61 69.71C119.62 69.71 119.63 69.7 119.64 69.7C119.65 69.7 119.65 69.69 119.66 69.69C119.72 69.66 119.77 69.62 119.82 69.58L119.83 69.57C119.88 69.53 119.92 69.49 119.97 69.45C119.98 69.44 119.98 69.44 119.99 69.43C120.01 69.42 120.02 69.4 120.04 69.39L127.86 61.59C127.84 61.66 127.81 61.68 127.79 61.7Z" fill="#3e4546" fill-rule="nonzero" opacity="1" stroke="none"/>
</g>
<g opacity="1">
<path d="M115.89 50.28C109.45 43.83 106.04 36.79 108.28 34.56C110.52 32.32 117.55 35.73 123.99 42.18C130.43 48.62 133.84 55.66 131.6 57.9C129.37 60.13 122.33 56.73 115.89 50.28Z" fill="#edf5f7" fill-rule="nonzero" opacity="1" stroke="none"/>
<path d="M131.54 57.96C131.5 58 131.45 58.04 131.4 58.08L131.39 58.09C131.34 58.13 131.28 58.17 131.23 58.2C131.22 58.21 131.2 58.22 131.19 58.23C131.14 58.26 131.1 58.28 131.05 58.31C131.04 58.32 131.03 58.32 131.02 58.33C130.96 58.36 130.9 58.38 130.84 58.41C130.82 58.42 130.81 58.42 130.79 58.43C130.74 58.45 130.7 58.46 130.65 58.48C130.63 58.49 130.61 58.49 130.6 58.5C130.54 58.52 130.47 58.53 130.4 58.55L130.39 58.55C130.33 58.56 130.26 58.57 130.2 58.58C130.18 58.58 130.16 58.59 130.14 58.59C130.09 58.6 130.03 58.6 129.98 58.61C129.96 58.61 129.94 58.61 129.92 58.61C129.85 58.61 129.77 58.62 129.7 58.62C129.69 58.62 129.68 58.62 129.67 58.62C129.6 58.62 129.54 58.62 129.47 58.62C129.45 58.62 129.42 58.62 129.4 58.62C129.34 58.62 129.28 58.61 129.21 58.61C129.19 58.61 129.17 58.61 129.15 58.6C129.07 58.59 128.99 58.58 128.9 58.57C128.88 58.57 128.87 58.56 128.85 58.56C128.78 58.55 128.71 58.54 128.63 58.53C128.6 58.53 128.58 58.52 128.55 58.52C128.47 58.51 128.39 58.49 128.31 58.47C128.3 58.47 128.29 58.47 128.27 58.46C128.18 58.44 128.08 58.42 127.98 58.39C127.96 58.38 127.93 58.38 127.91 58.37C127.83 58.35 127.75 58.33 127.66 58.3C127.64 58.29 127.62 58.29 127.6 58.28C127.5 58.25 127.39 58.22 127.28 58.18C127.26 58.17 127.23 58.16 127.21 58.16C127.11 58.13 127.01 58.09 126.91 58.06C126.9 58.06 126.89 58.05 126.87 58.05C126.75 58.01 126.62 57.96 126.5 57.91C126.48 57.9 126.45 57.89 126.43 57.88C126.31 57.83 126.18 57.78 126.05 57.72C126.03 57.71 126.01 57.7 125.99 57.69C125.84 57.62 125.68 57.55 125.53 57.48C125.51 57.47 125.49 57.46 125.47 57.45C125.31 57.38 125.16 57.3 125 57.22C124.97 57.21 124.94 57.19 124.91 57.17C124.84 57.13 124.76 57.09 124.69 57.06C124.65 57.04 124.62 57.02 124.58 57C124.5 56.96 124.43 56.92 124.35 56.88C124.32 56.86 124.29 56.85 124.26 56.83C124.15 56.77 124.05 56.71 123.94 56.65C123.92 56.64 123.91 56.63 123.89 56.62C123.8 56.57 123.71 56.51 123.62 56.46C123.6 56.45 123.57 56.43 123.55 56.42C123.37 56.31 123.19 56.2 123 56.09C122.98 56.08 122.96 56.06 122.93 56.05C122.75 55.94 122.56 55.82 122.38 55.69C122.36 55.68 122.34 55.66 122.31 55.65C122.12 55.53 121.93 55.4 121.74 55.27C121.72 55.26 121.7 55.25 121.69 55.23C121.49 55.09 121.29 54.95 121.09 54.81C121.08 54.8 121.07 54.8 121.06 54.79C120.85 54.64 120.64 54.48 120.43 54.32L120.42 54.31C120.21 54.15 120.01 53.99 119.8 53.83C119.78 53.82 119.77 53.81 119.75 53.79C119.55 53.63 119.35 53.47 119.16 53.31C119.14 53.29 119.12 53.28 119.1 53.26C118.91 53.1 118.71 52.94 118.52 52.77C118.5 52.75 118.48 52.74 118.46 52.72C118.14 52.44 117.82 52.16 117.49 51.86C117.48 51.85 117.47 51.84 117.45 51.83C117.2 51.6 116.95 51.36 116.69 51.12C116.67 51.1 116.65 51.08 116.63 51.06C116.42 50.86 116.2 50.65 115.99 50.44C115.95 50.4 115.91 50.36 115.87 50.32C115.68 50.13 115.5 49.95 115.32 49.76C115.31 49.75 115.3 49.74 115.29 49.73C115.08 49.52 114.88 49.3 114.68 49.08C114.67 49.07 114.66 49.06 114.65 49.05C114.46 48.84 114.27 48.64 114.09 48.43C114.07 48.41 114.06 48.39 114.04 48.37C113.86 48.17 113.69 47.97 113.52 47.77C113.5 47.75 113.48 47.72 113.46 47.7C113.29 47.5 113.12 47.3 112.96 47.11C112.94 47.09 112.92 47.07 112.9 47.04C112.73 46.83 112.56 46.63 112.4 46.42C112.39 46.41 112.38 46.39 112.37 46.38C112.19 46.15 112.02 45.93 111.85 45.7C111.84 45.69 111.83 45.68 111.82 45.66C111.65 45.43 111.48 45.2 111.32 44.98C111.31 44.96 111.29 44.94 111.28 44.92C111.1 44.67 110.93 44.43 110.76 44.18C110.74 44.15 110.73 44.13 110.71 44.1C110.64 44 110.57 43.89 110.5 43.79C110.48 43.76 110.46 43.73 110.44 43.7C110.36 43.57 110.28 43.45 110.2 43.33C110.19 43.31 110.17 43.29 110.16 43.26C110.07 43.11 109.98 42.97 109.89 42.83C109.88 42.82 109.88 42.81 109.87 42.8C109.78 42.65 109.7 42.51 109.61 42.36C109.6 42.34 109.58 42.31 109.57 42.29C109.46 42.1 109.35 41.9 109.25 41.71C109.24 41.7 109.24 41.69 109.23 41.68C109.12 41.48 109.02 41.29 108.92 41.09C108.9 41.05 108.88 41.01 108.86 40.97C108.83 40.92 108.81 40.87 108.79 40.82C108.77 40.78 108.75 40.74 108.73 40.7C108.71 40.65 108.68 40.6 108.66 40.55C108.64 40.51 108.62 40.47 108.6 40.43C108.58 40.38 108.56 40.33 108.54 40.29C108.52 40.25 108.5 40.21 108.49 40.17C108.47 40.12 108.45 40.08 108.43 40.03C108.41 39.99 108.4 39.95 108.38 39.91C108.36 39.86 108.34 39.82 108.32 39.77C108.3 39.73 108.29 39.69 108.27 39.65C108.25 39.61 108.24 39.56 108.22 39.52C108.2 39.48 108.19 39.44 108.17 39.4C108.15 39.36 108.14 39.31 108.12 39.27C108.11 39.23 108.09 39.19 108.08 39.15C108.06 39.11 108.05 39.06 108.04 39.02C108.03 38.98 108.01 38.94 108 38.9C107.99 38.86 107.97 38.81 107.96 38.77C107.95 38.73 107.94 38.69 107.93 38.66C107.92 38.62 107.9 38.58 107.89 38.53C107.88 38.49 107.87 38.46 107.86 38.42C107.85 38.38 107.84 38.34 107.83 38.3C107.82 38.26 107.81 38.23 107.8 38.19C107.79 38.15 107.78 38.11 107.77 38.07C107.76 38.03 107.75 38 107.74 37.96C107.73 37.92 107.72 37.88 107.71 37.84C107.7 37.8 107.69 37.77 107.69 37.73C107.68 37.69 107.68 37.65 107.67 37.62C107.66 37.59 107.66 37.55 107.65 37.52C107.64 37.48 107.64 37.45 107.63 37.41C107.62 37.38 107.62 37.34 107.62 37.31C107.61 37.27 107.61 37.24 107.61 37.2C107.61 37.17 107.6 37.13 107.6 37.1C107.6 37.06 107.59 37.03 107.59 36.99C107.59 36.96 107.58 36.93 107.58 36.89C107.58 36.86 107.58 36.82 107.57 36.79C107.57 36.76 107.57 36.73 107.57 36.7C107.57 36.67 107.57 36.63 107.57 36.6C107.57 36.57 107.57 36.54 107.57 36.51C107.57 36.48 107.57 36.44 107.57 36.41C107.57 36.38 107.57 36.35 107.57 36.32C107.57 36.29 107.57 36.26 107.58 36.23C107.58 36.2 107.58 36.17 107.59 36.14C107.59 36.11 107.6 36.08 107.6 36.05C107.6 36.02 107.61 35.99 107.61 35.97C107.61 35.94 107.62 35.91 107.62 35.88C107.62 35.85 107.63 35.83 107.63 35.8C107.64 35.77 107.64 35.74 107.65 35.71C107.66 35.68 107.66 35.66 107.67 35.63C107.68 35.6 107.69 35.57 107.69 35.55C107.7 35.53 107.7 35.5 107.71 35.48C107.72 35.45 107.73 35.43 107.74 35.4C107.75 35.38 107.76 35.35 107.76 35.33C107.77 35.3 107.78 35.28 107.79 35.25C107.8 35.23 107.81 35.21 107.82 35.18C107.83 35.15 107.84 35.13 107.86 35.1C107.87 35.08 107.88 35.06 107.89 35.04C107.9 35.01 107.92 34.99 107.93 34.97C107.94 34.95 107.95 34.93 107.96 34.91C107.98 34.88 107.99 34.86 108.01 34.84C108.02 34.82 108.03 34.81 108.04 34.79C108.06 34.76 108.08 34.74 108.1 34.71C108.11 34.7 108.12 34.68 108.13 34.67C108.16 34.63 108.2 34.6 108.23 34.56L104.47 38.3C104.43 38.34 104.4 38.37 104.37 38.41C104.36 38.42 104.35 38.44 104.34 38.45C104.32 38.48 104.3 38.5 104.28 38.53C104.27 38.55 104.26 38.56 104.25 38.58C104.23 38.6 104.22 38.63 104.2 38.65C104.19 38.67 104.18 38.69 104.17 38.71C104.16 38.73 104.14 38.76 104.13 38.78C104.12 38.8 104.11 38.82 104.1 38.84C104.09 38.87 104.07 38.89 104.06 38.92C104.05 38.94 104.04 38.96 104.03 38.99C104.02 39.02 104.01 39.04 104 39.07C103.99 39.09 103.98 39.12 103.98 39.14C103.97 39.17 103.96 39.19 103.95 39.22C103.94 39.24 103.94 39.27 103.93 39.29C103.92 39.32 103.91 39.35 103.91 39.37C103.9 39.4 103.9 39.42 103.89 39.45C103.88 39.48 103.88 39.51 103.87 39.54C103.86 39.57 103.86 39.59 103.86 39.62C103.85 39.65 103.85 39.68 103.85 39.71C103.85 39.74 103.84 39.77 103.84 39.79C103.84 39.82 103.83 39.85 103.83 39.88C103.83 39.91 103.83 39.94 103.82 39.97C103.82 40 103.82 40.03 103.81 40.07C103.81 40.1 103.81 40.13 103.81 40.16C103.81 40.19 103.81 40.23 103.81 40.26C103.81 40.29 103.81 40.32 103.81 40.35C103.81 40.38 103.81 40.42 103.81 40.45C103.81 40.48 103.81 40.51 103.81 40.54C103.81 40.57 103.81 40.61 103.82 40.64C103.82 40.67 103.82 40.7 103.83 40.74C103.83 40.78 103.84 40.81 103.84 40.85C103.84 40.88 103.85 40.92 103.85 40.95C103.85 40.99 103.86 41.02 103.86 41.06C103.86 41.09 103.87 41.13 103.87 41.16C103.88 41.2 103.88 41.23 103.89 41.27C103.9 41.3 103.9 41.34 103.91 41.37C103.92 41.41 103.92 41.45 103.93 41.48C103.94 41.52 103.94 41.55 103.95 41.59C103.96 41.63 103.97 41.67 103.98 41.71C103.99 41.75 104 41.78 104.01 41.82C104.02 41.86 104.03 41.9 104.04 41.94C104.05 41.98 104.06 42.01 104.07 42.05C104.08 42.09 104.09 42.13 104.1 42.17C104.11 42.21 104.12 42.24 104.13 42.28C104.14 42.32 104.15 42.36 104.17 42.4C104.18 42.44 104.19 42.48 104.21 42.51C104.22 42.55 104.24 42.59 104.25 42.64C104.26 42.68 104.28 42.72 104.29 42.76C104.3 42.8 104.32 42.85 104.33 42.89C104.34 42.93 104.36 42.97 104.37 43.01C104.39 43.05 104.4 43.1 104.42 43.14C104.43 43.18 104.45 43.22 104.47 43.26C104.49 43.3 104.5 43.35 104.52 43.39C104.54 43.43 104.55 43.47 104.57 43.51C104.59 43.56 104.61 43.6 104.63 43.65C104.65 43.69 104.66 43.73 104.68 43.77C104.7 43.82 104.72 43.86 104.74 43.91C104.76 43.95 104.78 43.99 104.79 44.03C104.81 44.08 104.83 44.12 104.85 44.17C104.87 44.21 104.89 44.25 104.91 44.29C104.93 44.34 104.96 44.39 104.98 44.44C105 44.48 105.02 44.52 105.04 44.56C105.06 44.61 105.09 44.66 105.11 44.71C105.13 44.75 105.14 44.78 105.16 44.82L105.16 44.83C105.26 45.02 105.36 45.22 105.47 45.42C105.48 45.43 105.48 45.44 105.49 45.45C105.59 45.64 105.7 45.83 105.81 46.02C105.81 46.03 105.82 46.04 105.82 46.05C105.83 46.07 105.84 46.08 105.85 46.1C105.93 46.24 106.02 46.39 106.11 46.54C106.12 46.55 106.12 46.56 106.13 46.57C106.22 46.71 106.31 46.86 106.4 47C106.41 47.01 106.42 47.03 106.43 47.04C106.43 47.05 106.44 47.06 106.44 47.06C106.52 47.18 106.6 47.31 106.68 47.44C106.7 47.47 106.72 47.5 106.74 47.53C106.81 47.63 106.88 47.74 106.95 47.85C106.96 47.87 106.98 47.89 106.99 47.91C106.99 47.92 107 47.92 107 47.93C107.17 48.18 107.34 48.42 107.52 48.67C107.53 48.68 107.53 48.69 107.54 48.69C107.55 48.7 107.56 48.71 107.56 48.72C107.72 48.95 107.89 49.17 108.06 49.4C108.07 49.41 108.07 49.42 108.08 49.42L108.09 49.43C108.26 49.66 108.44 49.88 108.61 50.11L108.62 50.12C108.63 50.13 108.64 50.14 108.64 50.15C108.8 50.36 108.97 50.56 109.14 50.77C109.15 50.78 109.16 50.79 109.16 50.8C109.17 50.81 109.18 50.82 109.19 50.84C109.35 51.04 109.52 51.24 109.69 51.43C109.7 51.44 109.71 51.45 109.72 51.47C109.73 51.48 109.74 51.49 109.75 51.5C109.92 51.7 110.1 51.9 110.27 52.1C110.28 52.11 110.29 52.12 110.3 52.13C110.31 52.14 110.31 52.14 110.32 52.15C110.5 52.36 110.69 52.56 110.88 52.77C110.89 52.78 110.89 52.78 110.9 52.79L110.91 52.8C111.11 53.02 111.31 53.23 111.52 53.45C111.52 53.45 111.52 53.46 111.53 53.46C111.54 53.47 111.54 53.47 111.55 53.48C111.73 53.67 111.91 53.85 112.1 54.04C112.13 54.07 112.16 54.1 112.19 54.13C112.2 54.14 112.21 54.15 112.22 54.16C112.43 54.37 112.64 54.58 112.86 54.78C112.87 54.79 112.88 54.8 112.89 54.81C112.9 54.82 112.91 54.83 112.92 54.83C113.17 55.07 113.42 55.3 113.67 55.53C113.68 55.54 113.68 55.54 113.69 55.55C113.7 55.56 113.7 55.56 113.71 55.57C114.03 55.86 114.35 56.15 114.68 56.42C114.69 56.43 114.7 56.43 114.7 56.44C114.71 56.45 114.72 56.46 114.73 56.47C114.92 56.64 115.12 56.8 115.31 56.96C115.33 56.98 115.35 57 115.37 57.01C115.57 57.17 115.77 57.33 115.96 57.49C115.98 57.5 115.99 57.51 116.01 57.53C116.22 57.69 116.43 57.86 116.63 58.01L116.64 58.02C116.85 58.18 117.06 58.34 117.27 58.49C117.28 58.5 117.29 58.51 117.3 58.51C117.5 58.65 117.7 58.8 117.89 58.93C117.91 58.94 117.93 58.96 117.94 58.97C118.13 59.1 118.32 59.23 118.51 59.35C118.53 59.36 118.55 59.38 118.58 59.39C118.77 59.51 118.95 59.63 119.13 59.75C119.15 59.76 119.17 59.78 119.2 59.79C119.38 59.9 119.57 60.02 119.75 60.12C119.76 60.13 119.77 60.13 119.78 60.14C119.79 60.15 119.8 60.15 119.82 60.16C119.91 60.22 120.01 60.27 120.1 60.32C120.11 60.33 120.13 60.34 120.15 60.35C120.26 60.41 120.36 60.47 120.47 60.53C120.5 60.55 120.53 60.56 120.56 60.58C120.64 60.62 120.71 60.66 120.79 60.7C120.83 60.72 120.86 60.74 120.9 60.76C120.97 60.8 121.05 60.84 121.12 60.87C121.14 60.88 121.16 60.89 121.19 60.9C121.2 60.9 121.2 60.91 121.21 60.91C121.37 60.99 121.53 61.07 121.68 61.14C121.7 61.15 121.72 61.16 121.74 61.17C121.9 61.24 122.05 61.31 122.2 61.38C122.21 61.39 122.22 61.39 122.23 61.4C122.24 61.4 122.25 61.41 122.26 61.41C122.39 61.46 122.51 61.52 122.64 61.57C122.66 61.58 122.69 61.59 122.71 61.6C122.84 61.65 122.96 61.7 123.09 61.74L123.1 61.74C123.11 61.74 123.12 61.75 123.13 61.75C123.23 61.79 123.33 61.82 123.43 61.85C123.45 61.86 123.48 61.87 123.5 61.87C123.61 61.9 123.71 61.94 123.82 61.97C123.83 61.97 123.83 61.97 123.84 61.98C123.85 61.98 123.87 61.99 123.88 61.99C123.96 62.01 124.05 62.04 124.13 62.06C124.16 62.07 124.18 62.07 124.21 62.08C124.31 62.1 124.4 62.13 124.5 62.15C124.5 62.15 124.5 62.15 124.51 62.15C124.52 62.15 124.53 62.15 124.54 62.16C124.62 62.18 124.7 62.19 124.78 62.21C124.81 62.21 124.83 62.22 124.86 62.22C124.93 62.23 125 62.24 125.08 62.25C125.09 62.25 125.11 62.25 125.12 62.26L125.13 62.26C125.21 62.27 125.3 62.28 125.38 62.29C125.4 62.29 125.42 62.29 125.44 62.29C125.5 62.3 125.56 62.3 125.63 62.3C125.64 62.3 125.66 62.3 125.67 62.3C125.68 62.3 125.69 62.3 125.7 62.3C125.77 62.3 125.83 62.3 125.9 62.3C125.91 62.3 125.92 62.3 125.93 62.3C126 62.3 126.08 62.3 126.15 62.29C126.16 62.29 126.16 62.29 126.17 62.29C126.18 62.29 126.2 62.29 126.21 62.29C126.26 62.29 126.32 62.28 126.37 62.27C126.39 62.27 126.41 62.27 126.43 62.26C126.49 62.25 126.56 62.24 126.62 62.23L126.63 62.23L126.63 62.23C126.7 62.22 126.76 62.2 126.82 62.18C126.84 62.18 126.86 62.17 126.87 62.16C126.92 62.15 126.97 62.13 127.01 62.11C127.02 62.11 127.03 62.1 127.04 62.1C127.05 62.1 127.05 62.1 127.06 62.09C127.12 62.07 127.18 62.04 127.24 62.01C127.25 62.01 127.26 62 127.27 62C127.32 61.98 127.37 61.95 127.41 61.92C127.42 61.92 127.43 61.91 127.44 61.91C127.45 61.91 127.45 61.9 127.46 61.9C127.52 61.87 127.57 61.83 127.62 61.79L127.63 61.78C127.68 61.74 127.72 61.7 127.77 61.66C127.78 61.65 127.78 61.65 127.79 61.64C127.81 61.63 127.82 61.61 127.84 61.6L131.6 57.86C131.58 57.92 131.56 57.94 131.54 57.96Z" fill="#90a6b4" fill-rule="nonzero" opacity="1" stroke="none"/>
</g>
<path d="M137.47 162.62L101.91 127.06C99.5 124.65 99.5 120.74 101.91 118.33L120.06 100.18C122.47 97.77 126.38 97.77 128.79 100.18L164.35 135.74C166.76 138.15 166.76 142.06 164.35 144.47L146.2 162.62C143.79 165.03 139.88 165.03 137.47 162.62Z" fill="#bf0100" fill-rule="nonzero" opacity="1" stroke="none"/>
<path d="M26.0247 139.762C7.74057 121.478-3.47584 103.05 0.972193 98.602C5.42022 94.1539 23.8483 105.37 42.1325 123.655C60.4167 141.939 71.6331 160.367 67.185 164.815C62.737 169.263 44.3089 158.046 26.0247 139.762Z" fill="#3e4546" fill-rule="nonzero" opacity="1" stroke="none"/>
<path d="M12.56 153.61C12.3 153.35 12.14 153.01 12.12 152.62C12.07 151.78 12.71 151.06 13.55 151.01L63.22 148.11C64.06 148.06 64.78 148.7 64.83 149.54C64.88 150.38 64.24 151.1 63.4 151.15L13.73 154.05C13.27 154.08 12.86 153.91 12.56 153.61Z" fill="#bf0100" fill-rule="nonzero" opacity="1" stroke="none"/>
<path d="M12.56 153.61C12.26 153.31 12.09 152.89 12.12 152.44L15.04 102.63C15.09 101.79 15.81 101.15 16.65 101.2C17.49 101.25 18.13 101.97 18.08 102.81L15.16 152.62C15.11 153.46 14.39 154.1 13.55 154.05C13.16 154.03 12.82 153.87 12.56 153.61Z" fill="#bf0100" fill-rule="nonzero" opacity="1" stroke="none"/>
<path d="M12.56 153.61C11.96 153.01 11.96 152.05 12.56 151.45L41.25 122.76C41.85 122.16 42.81 122.16 43.41 122.76C44.01 123.36 44.01 124.32 43.41 124.92L14.72 153.61C14.12 154.21 13.16 154.21 12.56 153.61Z" fill="#bf0100" fill-rule="nonzero" opacity="1" stroke="none"/>
<path d="M11.9993 154.164C9.85928 152.024 8.85572 149.558 9.75782 148.655C10.6599 147.753 13.1261 148.757 15.2661 150.897C17.4062 153.037 18.4097 155.503 17.5076 156.405C16.6055 157.307 14.1394 156.304 11.9993 154.164Z" fill="#3e4546" fill-rule="nonzero" opacity="1" stroke="none"/>
<g opacity="1">
<path d="M10.08 156.09C11.3 157.31 11.95 158.65 11.52 159.07C11.1 159.49 9.76 158.85 8.54 157.63C7.32 156.41 6.67 155.07 7.1 154.65C7.52 154.22 8.86 154.87 10.08 156.09Z" fill="#90a6b4" fill-rule="nonzero" opacity="1" stroke="none"/>
<path d="M7.11 154.63C7.12 154.62 7.13 154.61 7.14 154.61L7.14 154.61C7.15 154.6 7.16 154.6 7.17 154.59L7.18 154.59C7.19 154.58 7.2 154.58 7.21 154.58C7.21 154.58 7.21 154.58 7.22 154.58C7.23 154.57 7.24 154.57 7.25 154.57L7.26 154.57C7.27 154.57 7.28 154.56 7.29 154.56L7.3 154.56C7.31 154.56 7.32 154.55 7.34 154.55L7.34 154.55C7.35 154.55 7.36 154.55 7.38 154.54L7.39 154.54C7.4 154.54 7.41 154.54 7.42 154.54L7.43 154.54C7.44 154.54 7.46 154.54 7.47 154.54C7.47 154.54 7.47 154.54 7.48 154.54C7.49 154.54 7.5 154.54 7.52 154.54L7.53 154.54C7.54 154.54 7.55 154.54 7.57 154.54L7.58 154.54C7.6 154.54 7.61 154.54 7.63 154.55L7.64 154.55C7.65 154.55 7.67 154.55 7.68 154.56L7.69 154.56C7.7 154.56 7.72 154.57 7.73 154.57C7.73 154.57 7.73 154.57 7.74 154.57C7.76 154.57 7.78 154.58 7.79 154.58L7.8 154.58C7.82 154.58 7.83 154.59 7.85 154.59L7.86 154.59C7.88 154.6 7.9 154.6 7.92 154.61L7.93 154.61C7.95 154.62 7.97 154.62 7.99 154.63C7.99 154.63 7.99 154.63 8 154.63C8.02 154.64 8.05 154.65 8.07 154.66C8.07 154.66 8.08 154.66 8.08 154.67C8.1 154.68 8.13 154.69 8.15 154.7L8.16 154.7C8.19 154.71 8.22 154.73 8.25 154.74C8.25 154.74 8.26 154.74 8.26 154.75C8.29 154.76 8.32 154.78 8.35 154.79C8.36 154.79 8.36 154.8 8.37 154.8C8.38 154.81 8.4 154.81 8.41 154.82C8.42 154.82 8.42 154.83 8.43 154.83C8.44 154.84 8.46 154.85 8.47 154.85C8.48 154.85 8.48 154.86 8.49 154.86C8.51 154.87 8.53 154.88 8.55 154.89C8.55 154.89 8.56 154.89 8.56 154.9C8.58 154.91 8.59 154.92 8.61 154.93L8.62 154.94C8.65 154.96 8.69 154.98 8.72 155L8.73 155.01C8.76 155.03 8.8 155.05 8.83 155.08L8.84 155.09C8.88 155.11 8.91 155.14 8.95 155.16C8.95 155.16 8.96 155.16 8.96 155.17C9 155.2 9.04 155.22 9.07 155.25C9.07 155.25 9.07 155.25 9.08 155.25C9.12 155.28 9.16 155.31 9.2 155.34L9.2 155.34C9.24 155.37 9.28 155.4 9.32 155.43C9.32 155.43 9.33 155.43 9.33 155.44C9.37 155.47 9.41 155.5 9.44 155.53L9.45 155.54C9.49 155.57 9.52 155.6 9.56 155.63L9.57 155.64C9.63 155.69 9.69 155.75 9.75 155.8C9.75 155.8 9.75 155.8 9.76 155.81C9.81 155.85 9.86 155.9 9.9 155.94L9.91 155.95C9.95 155.99 9.99 156.03 10.03 156.07C10.04 156.08 10.05 156.08 10.05 156.09C10.09 156.13 10.12 156.16 10.15 156.2C10.15 156.2 10.15 156.2 10.16 156.21C10.2 156.25 10.24 156.29 10.28 156.33C10.28 156.33 10.28 156.33 10.28 156.34C10.32 156.38 10.35 156.42 10.39 156.46L10.4 156.47C10.43 156.51 10.47 156.55 10.5 156.58L10.51 156.59C10.54 156.63 10.57 156.67 10.61 156.7L10.62 156.71C10.65 156.75 10.68 156.79 10.71 156.83C10.71 156.83 10.71 156.84 10.72 156.84C10.75 156.88 10.79 156.93 10.82 156.97C10.82 156.97 10.82 156.97 10.83 156.98C10.86 157.02 10.89 157.07 10.93 157.11L10.94 157.12C10.97 157.17 11.01 157.21 11.04 157.26L11.05 157.27C11.06 157.29 11.08 157.31 11.09 157.33C11.09 157.34 11.1 157.34 11.1 157.35C11.12 157.37 11.13 157.4 11.15 157.42L11.16 157.43C11.18 157.46 11.19 157.49 11.21 157.51C11.21 157.51 11.21 157.51 11.21 157.52C11.23 157.55 11.24 157.58 11.26 157.6L11.27 157.61C11.29 157.65 11.31 157.68 11.33 157.72C11.33 157.72 11.33 157.72 11.33 157.73C11.35 157.77 11.37 157.8 11.39 157.84C11.39 157.85 11.4 157.85 11.4 157.86C11.4 157.87 11.41 157.88 11.41 157.89C11.41 157.9 11.42 157.91 11.42 157.91C11.42 157.92 11.43 157.93 11.43 157.94C11.43 157.95 11.44 157.96 11.44 157.96C11.44 157.97 11.45 157.98 11.45 157.99C11.45 158 11.46 158.01 11.46 158.01C11.46 158.02 11.47 158.03 11.47 158.04C11.47 158.05 11.48 158.06 11.48 158.06C11.48 158.07 11.49 158.08 11.49 158.09C11.49 158.1 11.5 158.11 11.5 158.11C11.5 158.12 11.51 158.13 11.51 158.14C11.51 158.15 11.52 158.16 11.52 158.16C11.52 158.17 11.53 158.18 11.53 158.18C11.53 158.19 11.54 158.19 11.54 158.2C11.54 158.21 11.55 158.22 11.55 158.22C11.55 158.23 11.55 158.23 11.56 158.24C11.56 158.25 11.57 158.26 11.57 158.26C11.57 158.27 11.57 158.27 11.58 158.28C11.58 158.29 11.58 158.3 11.59 158.3C11.59 158.31 11.59 158.31 11.6 158.32C11.6 158.33 11.6 158.34 11.61 158.34C11.61 158.35 11.61 158.35 11.62 158.36C11.62 158.37 11.62 158.38 11.63 158.38C11.63 158.39 11.63 158.39 11.63 158.4C11.63 158.41 11.63 158.41 11.63 158.42C11.63 158.43 11.63 158.43 11.63 158.44C11.63 158.45 11.63 158.45 11.63 158.46C11.63 158.47 11.63 158.47 11.63 158.48C11.63 158.49 11.63 158.49 11.63 158.5C11.63 158.51 11.63 158.51 11.63 158.52C11.63 158.53 11.63 158.53 11.63 158.54C11.63 158.55 11.63 158.55 11.63 158.56C11.63 158.57 11.63 158.57 11.63 158.58C11.63 158.59 11.63 158.59 11.63 158.6C11.63 158.61 11.63 158.61 11.63 158.62C11.63 158.63 11.63 158.63 11.63 158.64C11.63 158.65 11.63 158.65 11.63 158.66C11.63 158.67 11.63 158.67 11.63 158.68C11.63 158.69 11.63 158.69 11.63 158.7C11.63 158.71 11.63 158.71 11.63 158.72C11.63 158.73 11.63 158.73 11.63 158.74C11.63 158.75 11.63 158.75 11.63 158.76C11.63 158.77 11.63 158.77 11.63 158.78C11.63 158.79 11.63 158.79 11.63 158.8C11.63 158.81 11.63 158.81 11.63 158.82C11.63 158.83 11.63 158.83 11.63 158.84C11.63 158.85 11.63 158.85 11.63 158.86L11.63 158.87C11.63 158.88 11.63 158.88 11.63 158.89L11.63 158.9C11.63 158.91 11.63 158.91 11.62 158.92L11.62 158.93C11.62 158.94 11.62 158.94 11.61 158.94C11.61 158.94 11.61 158.95 11.6 158.95C11.6 158.95 11.6 158.96 11.59 158.96C11.59 158.96 11.59 158.97 11.58 158.97L11.57 158.98C11.57 158.98 11.57 158.99 11.56 158.99L11.55 159C11.55 159 11.55 159.01 11.54 159.01C11.54 159.02 11.53 159.02 11.53 159.02C11.53 159.02 11.53 159.03 11.52 159.03C11.51 159.04 11.51 159.04 11.5 159.05L15.06 155.49C15.07 155.48 15.07 155.48 15.08 155.47C15.08 155.47 15.08 155.46 15.09 155.46L15.1 155.45C15.1 155.45 15.1 155.44 15.11 155.44L15.12 155.43C15.12 155.43 15.12 155.42 15.13 155.42L15.14 155.41C15.14 155.41 15.14 155.4 15.15 155.4C15.15 155.4 15.15 155.39 15.16 155.39C15.16 155.39 15.16 155.38 15.17 155.38C15.17 155.37 15.17 155.37 15.18 155.37L15.18 155.36C15.18 155.35 15.18 155.35 15.19 155.34L15.19 155.33C15.19 155.32 15.19 155.32 15.19 155.31L15.19 155.3C15.19 155.29 15.19 155.29 15.19 155.28C15.19 155.27 15.19 155.27 15.19 155.26C15.19 155.25 15.19 155.25 15.19 155.24C15.19 155.23 15.19 155.23 15.19 155.22C15.19 155.21 15.19 155.21 15.19 155.2C15.19 155.19 15.19 155.19 15.19 155.18C15.19 155.17 15.19 155.17 15.19 155.16C15.19 155.15 15.19 155.15 15.19 155.14C15.19 155.13 15.19 155.13 15.19 155.12C15.19 155.11 15.19 155.11 15.19 155.1C15.19 155.09 15.19 155.09 15.19 155.08C15.19 155.07 15.19 155.07 15.19 155.06C15.19 155.05 15.19 155.05 15.19 155.04C15.19 155.03 15.19 155.03 15.19 155.02C15.19 155.01 15.19 155.01 15.19 155C15.19 154.99 15.19 154.99 15.19 154.98C15.19 154.97 15.19 154.97 15.19 154.96C15.19 154.95 15.19 154.95 15.19 154.94C15.19 154.93 15.19 154.93 15.19 154.92C15.19 154.91 15.19 154.91 15.19 154.9C15.19 154.89 15.19 154.89 15.19 154.88C15.19 154.87 15.19 154.87 15.19 154.86C15.19 154.85 15.19 154.85 15.19 154.84C15.19 154.83 15.19 154.83 15.19 154.82C15.19 154.81 15.19 154.81 15.18 154.8C15.18 154.79 15.18 154.79 15.17 154.78C15.17 154.77 15.17 154.76 15.16 154.76C15.16 154.75 15.16 154.75 15.15 154.74C15.15 154.73 15.15 154.72 15.14 154.72C15.14 154.71 15.14 154.71 15.13 154.7C15.13 154.69 15.12 154.68 15.12 154.68C15.12 154.67 15.12 154.67 15.11 154.66C15.11 154.65 15.1 154.64 15.1 154.64C15.1 154.63 15.09 154.63 15.09 154.62C15.09 154.61 15.08 154.6 15.08 154.6C15.08 154.59 15.07 154.58 15.07 154.58C15.07 154.57 15.06 154.56 15.06 154.55C15.06 154.54 15.05 154.53 15.05 154.53C15.05 154.52 15.04 154.51 15.04 154.5C15.04 154.49 15.03 154.48 15.03 154.48C15.03 154.47 15.02 154.46 15.02 154.45C15.02 154.44 15.01 154.43 15.01 154.43C15.01 154.42 15 154.41 15 154.4C15 154.39 14.99 154.38 14.99 154.38C14.99 154.37 14.98 154.36 14.98 154.35C14.98 154.34 14.97 154.33 14.97 154.33C14.97 154.32 14.96 154.31 14.96 154.3C14.96 154.29 14.95 154.29 14.95 154.28L14.95 154.28C14.93 154.24 14.91 154.21 14.89 154.17C14.89 154.17 14.89 154.17 14.89 154.16C14.87 154.12 14.85 154.09 14.83 154.05L14.83 154.05C14.83 154.05 14.83 154.04 14.82 154.04C14.8 154.01 14.79 153.99 14.77 153.96L14.77 153.95C14.75 153.92 14.74 153.9 14.72 153.87L14.72 153.86L14.72 153.86C14.7 153.83 14.69 153.81 14.67 153.79C14.67 153.78 14.66 153.78 14.66 153.77C14.65 153.75 14.63 153.73 14.62 153.71C14.62 153.71 14.62 153.7 14.61 153.7L14.61 153.7C14.58 153.65 14.55 153.61 14.51 153.56L14.51 153.56C14.51 153.56 14.51 153.56 14.51 153.55C14.48 153.51 14.45 153.46 14.41 153.42L14.41 153.42L14.41 153.42C14.38 153.38 14.34 153.33 14.31 153.29L14.31 153.29L14.31 153.29C14.28 153.25 14.25 153.21 14.21 153.17C14.21 153.17 14.21 153.17 14.21 153.16C14.21 153.16 14.21 153.16 14.2 153.15C14.17 153.11 14.14 153.07 14.1 153.04C14.1 153.04 14.1 153.04 14.09 153.03C14.09 153.03 14.09 153.03 14.08 153.02C14.05 152.98 14.01 152.94 13.98 152.91C13.98 152.91 13.98 152.91 13.97 152.9L13.97 152.9C13.94 152.86 13.9 152.82 13.86 152.78L13.86 152.78L13.86 152.78C13.82 152.74 13.78 152.7 13.74 152.66L13.74 152.66L13.74 152.66C13.7 152.62 13.67 152.59 13.63 152.55C13.62 152.54 13.62 152.54 13.61 152.53C13.61 152.53 13.61 152.53 13.6 152.52C13.56 152.48 13.52 152.44 13.48 152.4C13.48 152.4 13.48 152.4 13.47 152.39L13.47 152.39C13.42 152.34 13.37 152.3 13.33 152.26L13.33 152.26L13.33 152.26C13.27 152.2 13.21 152.15 13.15 152.1L13.15 152.1C13.15 152.1 13.15 152.1 13.14 152.09C13.1 152.06 13.07 152.03 13.03 152L13.02 151.99C12.98 151.96 12.94 151.93 12.91 151.9C12.91 151.9 12.9 151.9 12.9 151.89C12.86 151.86 12.82 151.83 12.78 151.8L12.78 151.8C12.74 151.77 12.7 151.74 12.66 151.71L12.66 151.71C12.62 151.68 12.58 151.65 12.55 151.63C12.55 151.63 12.54 151.63 12.54 151.62C12.5 151.6 12.47 151.57 12.43 151.55L12.42 151.54C12.38 151.52 12.35 151.49 12.32 151.47L12.31 151.46C12.28 151.44 12.24 151.42 12.21 151.4L12.21 151.4C12.21 151.4 12.2 151.4 12.2 151.39C12.18 151.38 12.16 151.37 12.15 151.36L12.14 151.36C12.12 151.35 12.1 151.34 12.08 151.33C12.07 151.33 12.07 151.32 12.06 151.32C12.05 151.31 12.03 151.3 12.02 151.3C12.01 151.3 12.01 151.29 12 151.29C11.99 151.28 11.97 151.28 11.96 151.27C11.96 151.27 11.95 151.27 11.95 151.26L11.95 151.26C11.92 151.24 11.89 151.23 11.86 151.22C11.86 151.22 11.85 151.22 11.85 151.21C11.82 151.2 11.79 151.18 11.76 151.17L11.76 151.17L11.75 151.17C11.73 151.16 11.7 151.15 11.68 151.14C11.68 151.14 11.67 151.14 11.67 151.13C11.65 151.12 11.62 151.11 11.6 151.1L11.6 151.1L11.59 151.1C11.57 151.09 11.55 151.09 11.53 151.08L11.52 151.08C11.5 151.07 11.48 151.07 11.46 151.06L11.46 151.06L11.45 151.06C11.43 151.06 11.42 151.05 11.4 151.05L11.39 151.05C11.37 151.05 11.35 151.04 11.34 151.04L11.34 151.04L11.34 151.04C11.32 151.04 11.31 151.03 11.29 151.03L11.28 151.03C11.27 151.03 11.25 151.03 11.24 151.02L11.24 151.02L11.24 151.02C11.22 151.02 11.21 151.02 11.19 151.01L11.18 151.01C11.17 151.01 11.16 151.01 11.14 151.01L11.13 151.01C11.13 151.01 11.13 151.01 11.12 151.01C11.11 151.01 11.09 151.01 11.08 151.01L11.08 151.01C11.06 151.01 11.05 151.01 11.04 151.01L11.04 151.01C11.04 151.01 11.04 151.01 11.03 151.01C11.02 151.01 11.01 151.01 11 151.01L10.99 151.01C10.98 151.01 10.97 151.01 10.95 151.02L10.95 151.02L10.95 151.02C10.94 151.02 10.93 151.03 10.91 151.03L10.9 151.03C10.89 151.03 10.88 151.04 10.87 151.04L10.87 151.04L10.87 151.04C10.86 151.04 10.85 151.05 10.84 151.05L10.84 151.05C10.83 151.06 10.82 151.06 10.81 151.07L10.81 151.07L10.81 151.07C10.8 151.08 10.79 151.08 10.78 151.09L10.78 151.09C10.77 151.1 10.76 151.1 10.75 151.11L10.75 151.11L10.74 151.12L7.18 154.68C7.1 154.64 7.11 154.64 7.11 154.63Z" fill="#edf5f7" fill-rule="nonzero" opacity="1" stroke="none"/>
</g>
<path d="M42.14 123.65C60.42 141.93 71.64 160.36 67.19 164.81C74.67 157.33 67.33 135.02 49.05 116.74C30.77 98.46 8.46 91.12 0.97 98.61C5.42 94.16 23.85 105.37 42.14 123.65Z" fill="#edf5f7" fill-rule="nonzero" opacity="1" stroke="none"/>
<path d="M135.29 131.4L147.66 119.03L145.5 116.87L133.14 129.24L112.07 108.17L109.91 110.33L130.98 131.4L118.61 143.76L118.61 143.76L120.77 145.92L120.77 145.92L133.14 133.56L154.2 154.62L156.36 152.47L135.29 131.4Z" fill="#edf5f7" fill-rule="nonzero" opacity="1" stroke="none"/>
<path d="M121.06 46.63C120.67 46.63 120.28 46.48 119.98 46.18C119.38 45.58 119.38 44.62 119.98 44.02L125.55 38.45C126.15 37.85 127.11 37.85 127.71 38.45C128.31 39.05 128.31 40.01 127.71 40.61L122.14 46.18C121.84 46.48 121.45 46.63 121.06 46.63Z" fill="#bf0100" fill-rule="nonzero" opacity="1" stroke="none"/>
</g>
</g>
</svg>
