<?xml version="1.0" encoding="utf-8"?>
<!-- Generator: Adobe Illustrator 27.0.0, SVG Export Plug-In . SVG Version: 6.00 Build 0)  -->
<svg version="1.1" id="图层_1" xmlns:vectornator="http://vectornator.io"
	 xmlns="http://www.w3.org/2000/svg" xmlns:xlink="http://www.w3.org/1999/xlink" x="0px" y="0px" viewBox="0 0 1920 1080"
	 style="enable-background:new 0 0 1920 1080;" xml:space="preserve">
<style type="text/css">
	.st0{clip-path:url(#SVGID_00000153667553131875059870000011532703527441353097_);}
	.st1{fill:#3E4546;}
	.st2{fill:#3CB4DC;}
	.st3{fill:#EDF5F7;}
	.st4{fill:#90A6B4;}
</style>
<g>
	<defs>
		<rect id="SVGID_1_" x="418.8" width="1082.5" height="1080"/>
	</defs>
	<clipPath id="SVGID_00000176025455453632798570000016132261157043851662_">
		<use xlink:href="#SVGID_1_"  style="overflow:visible;"/>
	</clipPath>
	
		<g id="Untitled" vectornator:layerName="Untitled" style="clip-path:url(#SVGID_00000176025455453632798570000016132261157043851662_);">
		<g>
			<g>
				<path class="st1" d="M754.8,394.3l85.1,85.1c3.9,3.9,3.9,10.2,0,14.1c-3.9,3.9-10.2,3.9-14.1,0l-85.1-85.2
					c-3.9-3.9-3.9-10.2,0-14.1C744.5,390.4,750.9,390.4,754.8,394.3z"/>
				<path class="st1" d="M838.4,310.6l85.1,85.1c3.9,3.9,3.9,10.2,0,14.1c-3.9,3.9-10.2,3.9-14.1,0l-85.1-85.1
					c-3.9-3.9-3.9-10.2,0-14.1S834.6,306.7,838.4,310.6z"/>
			</g>
			<path class="st2" d="M617.1,11.8l231.6,231.6c15.7,15.7,15.7,41.2,0,56.9L730.4,418.6c-15.7,15.7-41.2,15.7-56.9,0L441.9,187
				c-15.7-15.7-15.7-41.2,0-56.9L560.1,11.8C575.8-3.9,601.3-3.9,617.1,11.8z"/>
			<path class="st3" d="M631.2,215.2l-80.5,80.6l14.1,14.1l80.5-80.6l137.3,137.3l14.1-14.1L659.3,215.2l80.6-80.5l0,0l-14.1-14.1
				l0,0l-80.6,80.6L508,63.9L494,78L631.2,215.2z"/>
			<g>
				<path class="st1" d="M1176.6,676.9l-85.1-85.1c-3.9-3.9-3.9-10.2,0-14.1c3.9-3.9,10.2-3.9,14.1,0l85.1,85.1
					c3.9,3.9,3.9,10.2,0,14.1C1186.7,680.7,1180.5,680.7,1176.6,676.9z"/>
				<path class="st1" d="M1092.9,760.5l-85.1-85.1c-3.9-3.9-3.9-10.2,0-14.1s10.2-3.9,14.1,0l85.1,85.1c3.9,3.9,3.9,10.2,0,14.1
					C1103.1,764.4,1096.8,764.4,1092.9,760.5z"/>
			</g>
			<g>
				<path class="st4" d="M812.9,688.4c-43-43.1-64.6-91.3-48.2-107.7c16.4-16.4,64.6,5.1,107.6,48.2c43,43.1,64.6,91.2,48.1,107.6
					C904,753,855.9,731.4,812.9,688.4z"/>
				<path class="st4" d="M919.9,737.1c-0.3,0.3-0.7,0.6-1,0.8c-0.1,0-0.1,0.1-0.1,0.1c-0.4,0.3-0.8,0.6-1.2,0.8
					c-0.1,0.1-0.2,0.1-0.3,0.2c-0.3,0.2-0.7,0.4-1,0.6c-0.1,0.1-0.1,0.1-0.2,0.1c-0.4,0.2-0.8,0.4-1.3,0.6c-0.1,0.1-0.3,0.1-0.3,0.1
					c-0.3,0.1-0.7,0.3-1,0.4c-0.1,0.1-0.3,0.1-0.4,0.1c-0.5,0.1-0.9,0.3-1.4,0.4h-0.1c-0.5,0.1-0.9,0.2-1.4,0.3
					c-0.1,0-0.3,0.1-0.5,0.1c-0.4,0.1-0.7,0.1-1.1,0.1c-0.1,0-0.3,0.1-0.4,0.1c-0.5,0.1-1,0.1-1.6,0.1c-0.1,0-0.1,0-0.2,0
					c-0.5,0-0.9,0.1-1.4,0.1c-0.2,0-0.3,0-0.5,0c-0.5,0-0.8,0-1.3,0c-0.1,0-0.3,0-0.5,0c-0.6,0-1.1-0.1-1.7-0.1
					c-0.1,0-0.3,0-0.3-0.1c-0.5-0.1-1-0.1-1.5-0.2c-0.2,0-0.3-0.1-0.5-0.1c-0.5-0.1-1.1-0.1-1.6-0.3c-0.1,0-0.2,0-0.3-0.1
					c-0.7-0.1-1.3-0.3-2-0.4c-0.2-0.1-0.3-0.1-0.5-0.1c-0.6-0.1-1.1-0.3-1.7-0.4c-0.1-0.1-0.3-0.1-0.4-0.1c-0.7-0.2-1.4-0.4-2.2-0.6
					c-0.2-0.1-0.3-0.1-0.5-0.1c-0.7-0.2-1.4-0.4-2.1-0.7c-0.1,0-0.2-0.1-0.3-0.1c-0.8-0.3-1.7-0.6-2.6-0.9c-0.2-0.1-0.3-0.1-0.5-0.2
					c-0.8-0.3-1.7-0.7-2.6-1c-0.1-0.1-0.3-0.1-0.4-0.2c-1-0.4-2.1-0.8-3.2-1.3c-0.1-0.1-0.3-0.1-0.4-0.2c-1-0.5-2.1-1-3.3-1.5
					c-0.2-0.1-0.4-0.2-0.6-0.3c-0.5-0.3-1-0.5-1.5-0.7c-0.3-0.1-0.5-0.3-0.7-0.4c-0.5-0.3-1-0.5-1.6-0.8c-0.2-0.1-0.5-0.2-0.7-0.3
					c-0.7-0.4-1.4-0.8-2.1-1.2c-0.1-0.1-0.3-0.1-0.3-0.2c-0.7-0.3-1.2-0.7-1.9-1c-0.2-0.1-0.3-0.2-0.5-0.3c-1.2-0.7-2.5-1.4-3.7-2.1
					c-0.1-0.1-0.3-0.2-0.5-0.3c-1.2-0.7-2.5-1.5-3.7-2.3c-0.1-0.1-0.3-0.2-0.5-0.3c-1.3-0.8-2.5-1.6-3.8-2.5
					c-0.1-0.1-0.3-0.1-0.4-0.3c-1.4-0.9-2.7-1.8-4-2.7c-0.1-0.1-0.1-0.1-0.2-0.1c-1.4-1-2.8-2-4.2-3.1l-0.1-0.1
					c-1.4-1-2.8-2.1-4.2-3.2c-0.1-0.1-0.2-0.1-0.3-0.3c-1.3-1-2.7-2.1-4-3.2c-0.1-0.1-0.3-0.3-0.5-0.3c-1.3-1-2.6-2.1-3.9-3.3
					c-0.1-0.1-0.3-0.2-0.4-0.3c-2.1-1.8-4.3-3.7-6.5-5.7c-0.1-0.1-0.1-0.1-0.3-0.2c-1.7-1.5-3.4-3.1-5.1-4.7
					c-0.1-0.1-0.3-0.3-0.4-0.4c-1.4-1.4-2.9-2.7-4.2-4.2c-0.3-0.3-0.5-0.5-0.8-0.8c-1.2-1.2-2.5-2.5-3.6-3.7
					c-0.1-0.1-0.1-0.1-0.2-0.2c-1.4-1.4-2.7-2.9-4.1-4.3c-0.1-0.1-0.1-0.1-0.2-0.2c-1.2-1.4-2.5-2.7-3.7-4.2
					c-0.1-0.1-0.2-0.3-0.3-0.4c-1.2-1.3-2.3-2.7-3.5-4c-0.1-0.1-0.3-0.3-0.4-0.5c-1.1-1.3-2.2-2.7-3.3-4c-0.1-0.1-0.3-0.3-0.4-0.5
					c-1.1-1.4-2.2-2.8-3.3-4.2c-0.1-0.1-0.1-0.2-0.2-0.3c-1.2-1.5-2.3-3.1-3.5-4.6c-0.1-0.1-0.1-0.2-0.2-0.3
					c-1.1-1.6-2.2-3.1-3.3-4.6c-0.1-0.1-0.2-0.3-0.3-0.4c-1.2-1.7-2.3-3.3-3.4-5c-0.1-0.2-0.2-0.3-0.3-0.5c-0.5-0.7-0.9-1.4-1.4-2.1
					c-0.1-0.2-0.3-0.4-0.4-0.6c-0.5-0.8-1-1.7-1.6-2.5c-0.1-0.1-0.2-0.3-0.3-0.5c-0.6-1-1.2-2-1.8-2.9c-0.1-0.1-0.1-0.1-0.1-0.2
					c-0.6-1-1.1-2-1.7-3c-0.1-0.1-0.2-0.3-0.3-0.5c-0.7-1.3-1.4-2.6-2.1-3.9c-0.1-0.1-0.1-0.1-0.1-0.2c-0.7-1.4-1.3-2.7-2-4
					c-0.1-0.3-0.3-0.5-0.4-0.8c-0.1-0.3-0.3-0.7-0.5-1c-0.1-0.3-0.3-0.6-0.4-0.8c-0.1-0.3-0.3-0.7-0.5-1c-0.1-0.3-0.3-0.6-0.3-0.8
					c-0.1-0.3-0.3-0.7-0.4-1c-0.1-0.3-0.2-0.6-0.3-0.8c-0.1-0.3-0.3-0.7-0.4-1c-0.1-0.3-0.2-0.6-0.3-0.8c-0.1-0.3-0.3-0.7-0.3-0.9
					c-0.1-0.3-0.2-0.6-0.3-0.8c-0.1-0.3-0.2-0.6-0.3-0.9c-0.1-0.3-0.2-0.5-0.3-0.8c-0.1-0.3-0.2-0.6-0.3-0.9
					c-0.1-0.3-0.2-0.5-0.3-0.8c-0.1-0.3-0.2-0.6-0.3-0.9c-0.1-0.3-0.1-0.5-0.3-0.8c-0.1-0.3-0.2-0.6-0.3-0.9
					c-0.1-0.3-0.1-0.5-0.2-0.8c-0.1-0.3-0.1-0.6-0.2-0.8c-0.1-0.3-0.1-0.5-0.2-0.8c-0.1-0.3-0.1-0.6-0.2-0.8
					c-0.1-0.3-0.1-0.5-0.2-0.8c-0.1-0.3-0.1-0.5-0.2-0.8c-0.1-0.3-0.1-0.5-0.1-0.8c-0.1-0.3-0.1-0.5-0.1-0.8
					c-0.1-0.3-0.1-0.5-0.1-0.7c-0.1-0.3-0.1-0.5-0.1-0.8c-0.1-0.3-0.1-0.5-0.1-0.7c0-0.3-0.1-0.5-0.1-0.8s-0.1-0.5-0.1-0.7
					s-0.1-0.5-0.1-0.8s-0.1-0.5-0.1-0.7s0-0.5-0.1-0.7c0-0.2,0-0.5,0-0.7c0-0.3,0-0.5,0-0.7c0-0.2,0-0.5,0-0.7c0-0.3,0-0.5,0-0.7
					c0-0.2,0-0.5,0-0.7c0-0.3,0-0.5,0.1-0.7c0-0.2,0-0.4,0.1-0.7c0-0.2,0.1-0.5,0.1-0.7s0.1-0.4,0.1-0.6c0-0.2,0.1-0.5,0.1-0.7
					c0-0.2,0.1-0.4,0.1-0.6c0.1-0.2,0.1-0.5,0.1-0.7c0.1-0.2,0.1-0.4,0.1-0.6c0.1-0.2,0.1-0.4,0.1-0.6c0.1-0.2,0.1-0.4,0.1-0.5
					c0.1-0.2,0.1-0.4,0.2-0.6c0.1-0.2,0.1-0.3,0.2-0.5c0.1-0.2,0.1-0.4,0.2-0.6s0.1-0.3,0.2-0.5s0.2-0.4,0.3-0.6
					c0.1-0.1,0.1-0.3,0.2-0.5c0.1-0.2,0.2-0.4,0.3-0.5c0.1-0.1,0.1-0.3,0.3-0.5c0.1-0.2,0.2-0.3,0.3-0.5c0.1-0.1,0.2-0.3,0.3-0.4
					c0.1-0.2,0.3-0.3,0.4-0.5c0.1-0.1,0.2-0.3,0.3-0.4c0.1-0.2,0.3-0.4,0.5-0.6c0.1-0.1,0.1-0.2,0.3-0.3c0.3-0.3,0.5-0.5,0.8-0.8
					L654.8,690.5c-0.3,0.3-0.5,0.5-0.8,0.8c-0.1,0.1-0.1,0.2-0.3,0.3c-0.1,0.2-0.3,0.4-0.5,0.6c-0.1,0.1-0.2,0.3-0.3,0.4
					c-0.1,0.2-0.3,0.3-0.4,0.5c-0.1,0.1-0.2,0.3-0.3,0.4c-0.1,0.2-0.2,0.3-0.3,0.5c-0.1,0.1-0.1,0.3-0.3,0.5
					c-0.1,0.2-0.2,0.4-0.3,0.5c-0.1,0.1-0.1,0.3-0.2,0.5c-0.1,0.2-0.2,0.4-0.3,0.6c-0.1,0.1-0.1,0.3-0.2,0.5
					c-0.1,0.2-0.1,0.4-0.2,0.6c-0.1,0.2-0.1,0.3-0.2,0.5c-0.1,0.2-0.1,0.4-0.2,0.6c-0.1,0.2-0.1,0.4-0.1,0.5
					c-0.1,0.2-0.1,0.4-0.1,0.6c-0.1,0.2-0.1,0.4-0.1,0.6c-0.1,0.2-0.1,0.4-0.1,0.7c-0.1,0.2-0.1,0.4-0.1,0.6
					c-0.1,0.2-0.1,0.5-0.1,0.7c0,0.2-0.1,0.4-0.1,0.6s-0.1,0.5-0.1,0.7s-0.1,0.4-0.1,0.6c0,0.3-0.1,0.5-0.1,0.7c0,0.2,0,0.5,0,0.7
					c0,0.3,0,0.5,0,0.7c0,0.2,0,0.5,0,0.7c0,0.3,0,0.5,0,0.7c0,0.2,0,0.5,0,0.7c0,0.3,0,0.5,0.1,0.7c0,0.3,0,0.5,0.1,0.7
					c0,0.3,0.1,0.5,0.1,0.8s0.1,0.5,0.1,0.7s0.1,0.5,0.1,0.8c0,0.3,0.1,0.5,0.1,0.7c0.1,0.3,0.1,0.5,0.1,0.8
					c0.1,0.3,0.1,0.5,0.1,0.7c0.1,0.3,0.1,0.5,0.1,0.8s0.1,0.5,0.1,0.8c0.1,0.3,0.1,0.5,0.2,0.8c0.1,0.3,0.1,0.5,0.2,0.8
					c0.1,0.3,0.1,0.6,0.2,0.8s0.1,0.5,0.2,0.8c0.1,0.3,0.1,0.6,0.2,0.8c0.1,0.3,0.1,0.5,0.2,0.8s0.1,0.6,0.3,0.8
					c0.1,0.3,0.1,0.5,0.3,0.8c0.1,0.3,0.2,0.6,0.3,0.9c0.1,0.3,0.2,0.5,0.3,0.8c0.1,0.3,0.2,0.6,0.3,0.9c0.1,0.3,0.2,0.5,0.3,0.8
					c0.1,0.3,0.2,0.6,0.3,0.9c0.1,0.3,0.2,0.6,0.3,0.8c0.1,0.3,0.3,0.7,0.3,0.9c0.1,0.3,0.2,0.6,0.3,0.8c0.1,0.3,0.3,0.7,0.4,1
					c0.1,0.3,0.2,0.6,0.3,0.8c0.1,0.3,0.3,0.7,0.4,1c0.1,0.3,0.3,0.6,0.3,0.8c0.1,0.3,0.3,0.7,0.5,1c0.1,0.3,0.3,0.5,0.4,0.8
					c0.1,0.3,0.3,0.7,0.5,1c0.1,0.3,0.2,0.5,0.3,0.7v0.1c0.6,1.3,1.2,2.7,2,4c0.1,0.1,0.1,0.1,0.1,0.2c0.7,1.3,1.4,2.6,2.1,3.9
					c0,0.1,0.1,0.1,0.1,0.2c0.1,0.1,0.1,0.2,0.2,0.3c0.5,1,1.1,2,1.7,3c0.1,0.1,0.1,0.1,0.1,0.2c0.6,1,1.2,2,1.8,2.9
					c0.1,0.1,0.1,0.2,0.1,0.3c0,0.1,0.1,0.1,0.1,0.1c0.5,0.8,1,1.7,1.6,2.5c0.1,0.2,0.3,0.4,0.4,0.6c0.5,0.7,0.9,1.4,1.4,2.1
					c0.1,0.1,0.2,0.3,0.3,0.4c0,0.1,0.1,0.1,0.1,0.1c1.1,1.7,2.2,3.3,3.4,5c0.1,0.1,0.1,0.1,0.1,0.1c0.1,0.1,0.1,0.1,0.1,0.2
					c1,1.6,2.1,3.1,3.3,4.6c0.1,0.1,0.1,0.1,0.1,0.1l0.1,0.1c1.1,1.5,2.3,3.1,3.5,4.6c0,0.1,0.1,0.1,0.1,0.1
					c0.1,0.1,0.1,0.1,0.1,0.2c1,1.4,2.1,2.8,3.3,4.2c0.1,0.1,0.1,0.1,0.1,0.2c0.1,0.1,0.1,0.2,0.2,0.3c1.1,1.3,2.2,2.7,3.3,4
					c0.1,0.1,0.1,0.2,0.2,0.3c0.1,0.1,0.1,0.1,0.2,0.2c1.1,1.3,2.3,2.7,3.5,4c0.1,0.1,0.1,0.1,0.2,0.3c0.1,0.1,0.1,0.1,0.1,0.1
					c1.2,1.4,2.5,2.7,3.7,4.1c0.1,0.1,0.1,0.1,0.1,0.1l0.1,0.1c1.3,1.4,2.7,2.9,4.1,4.3c0,0,0,0.1,0.1,0.1c0.1,0.1,0.1,0.1,0.1,0.1
					c1.2,1.2,2.4,2.5,3.6,3.7c0.2,0.2,0.4,0.4,0.6,0.6c0.1,0.1,0.1,0.1,0.2,0.2c1.4,1.4,2.8,2.8,4.2,4.2c0.1,0.1,0.1,0.1,0.2,0.2
					c0.1,0.1,0.1,0.1,0.2,0.1c1.7,1.6,3.4,3.2,5.1,4.7c0.1,0.1,0.1,0.1,0.1,0.1c0.1,0.1,0.1,0.1,0.1,0.1c2.1,2,4.3,3.8,6.5,5.7
					c0.1,0.1,0.1,0.1,0.1,0.1c0.1,0.1,0.1,0.1,0.3,0.2c1.3,1.1,2.6,2.1,3.9,3.3c0.1,0.1,0.3,0.3,0.5,0.3c1.4,1.1,2.7,2.1,4,3.2
					c0.1,0.1,0.2,0.1,0.3,0.3c1.4,1.1,2.8,2.1,4.2,3.2l0.1,0.1c1.4,1,2.9,2.1,4.2,3.1c0.1,0.1,0.1,0.1,0.2,0.1c1.4,1,2.7,1.9,4,2.7
					c0.1,0.1,0.3,0.2,0.4,0.3c1.3,0.8,2.5,1.7,3.8,2.5c0.1,0.1,0.3,0.2,0.5,0.3c1.2,0.8,2.5,1.6,3.8,2.3c0.1,0.1,0.3,0.2,0.5,0.3
					c1.2,0.7,2.5,1.5,3.7,2.1c0.1,0.1,0.1,0.1,0.3,0.1c0.1,0.1,0.2,0.1,0.3,0.1c0.7,0.3,1.3,0.7,1.9,1c0.1,0.1,0.2,0.1,0.3,0.2
					c0.7,0.4,1.4,0.8,2.2,1.2c0.2,0.1,0.4,0.2,0.7,0.3c0.5,0.3,1,0.5,1.6,0.8c0.3,0.1,0.5,0.3,0.7,0.4c0.5,0.3,1,0.5,1.5,0.7
					c0.1,0.1,0.3,0.1,0.5,0.2c0.1,0,0.1,0.1,0.1,0.1c1.1,0.5,2.1,1,3.3,1.5c0.1,0.1,0.3,0.1,0.4,0.2c1,0.5,2.1,0.9,3.2,1.3
					c0.1,0,0.1,0.1,0.3,0.1c0.1,0,0.1,0.1,0.2,0.1c0.8,0.3,1.8,0.7,2.6,1c0.1,0.1,0.3,0.1,0.5,0.2c0.8,0.3,1.8,0.6,2.6,0.9h0.1
					c0.1,0,0.1,0.1,0.2,0.1c0.7,0.2,1.4,0.5,2.1,0.7c0.2,0.1,0.3,0.1,0.5,0.1c0.7,0.2,1.5,0.4,2.2,0.6c0.1,0,0.1,0,0.1,0
					s0.2,0.1,0.3,0.1c0.6,0.1,1.2,0.3,1.7,0.4c0.2,0.1,0.3,0.1,0.5,0.1c0.7,0.1,1.3,0.3,2,0.4h0.1c0.1,0,0.1,0,0.2,0
					c0.5,0.1,1.1,0.2,1.6,0.3c0.2,0,0.3,0.1,0.5,0.1c0.5,0.1,1,0.1,1.5,0.2c0.1,0,0.2,0,0.3,0h0.1c0.6,0.1,1.2,0.1,1.7,0.1
					c0.1,0,0.3,0,0.5,0c0.5,0,0.8,0,1.3,0c0.1,0,0.2,0,0.3,0c0.1,0,0.1,0,0.2,0c0.5,0,0.9,0,1.4-0.1c0.1,0,0.1,0,0.2,0
					c0.5,0,1-0.1,1.6-0.1c0.1,0,0.1,0,0.1,0c0.1,0,0.2,0,0.3-0.1c0.4-0.1,0.8-0.1,1.1-0.1c0.1,0,0.3-0.1,0.5-0.1
					c0.5-0.1,0.9-0.2,1.4-0.3h0.1l0,0c0.5-0.1,0.9-0.3,1.4-0.4c0.1-0.1,0.3-0.1,0.4-0.1c0.3-0.1,0.7-0.3,1-0.4
					c0.1,0,0.1-0.1,0.3-0.1c0.1,0,0.1-0.1,0.1-0.1c0.5-0.2,0.8-0.4,1.3-0.6c0.1-0.1,0.1-0.1,0.2-0.1c0.3-0.2,0.7-0.4,1-0.6
					c0.1-0.1,0.1-0.1,0.2-0.1c0.1,0,0.1-0.1,0.1-0.1c0.4-0.3,0.8-0.5,1.2-0.8c0.1,0,0.1-0.1,0.1-0.1c0.3-0.3,0.7-0.6,1-0.8
					c0.1-0.1,0.1-0.1,0.1-0.1c0.1-0.1,0.2-0.2,0.3-0.3l109.9-109.8C920.2,736.8,920.1,736.9,919.9,737.1z"/>
			</g>
			<g>
				<path class="st3" d="M923.8,577.4c-54.1-54.1-82.7-113.3-64-132.1c18.8-18.8,77.9,9.8,132,64c54.1,54.1,82.7,113.3,64,132.1
					C1037,660.2,977.9,631.6,923.8,577.4z"/>
				<path class="st1" d="M1055.3,641.9c-0.4,0.3-0.8,0.7-1.2,1c-0.1,0-0.1,0.1-0.1,0.1c-0.5,0.3-0.9,0.7-1.4,0.9
					c-0.1,0.1-0.3,0.1-0.4,0.2c-0.4,0.2-0.8,0.5-1.2,0.7c-0.1,0.1-0.2,0.1-0.3,0.1c-0.5,0.3-1,0.5-1.5,0.7c-0.1,0.1-0.3,0.1-0.4,0.1
					c-0.4,0.1-0.8,0.3-1.2,0.4c-0.1,0.1-0.3,0.1-0.5,0.1c-0.5,0.1-1.1,0.3-1.6,0.4c-0.1,0-0.1,0-0.1,0c-0.5,0.1-1,0.2-1.6,0.3
					c-0.2,0-0.3,0.1-0.5,0.1c-0.5,0.1-0.9,0.1-1.4,0.1c-0.2,0-0.3,0-0.5,0.1c-0.6,0.1-1.2,0.1-1.8,0.1c-0.1,0-0.2,0-0.3,0
					c-0.5,0-1.1,0-1.7,0c-0.2,0-0.4,0-0.6,0c-0.5,0-1-0.1-1.6-0.1c-0.2,0-0.3,0-0.5-0.1c-0.7-0.1-1.4-0.1-2.1-0.3
					c-0.1,0-0.3-0.1-0.4-0.1c-0.6-0.1-1.2-0.2-1.8-0.3c-0.2-0.1-0.5-0.1-0.7-0.1c-0.7-0.1-1.3-0.3-2-0.4c-0.1,0-0.2-0.1-0.3-0.1
					c-0.8-0.2-1.6-0.4-2.4-0.6c-0.2-0.1-0.4-0.1-0.7-0.1c-0.7-0.2-1.4-0.4-2.1-0.6c-0.2-0.1-0.3-0.1-0.5-0.1
					c-0.9-0.3-1.8-0.5-2.7-0.8c-0.2-0.1-0.4-0.1-0.7-0.2c-0.8-0.3-1.7-0.6-2.5-0.8c-0.1-0.1-0.2-0.1-0.3-0.1c-1-0.4-2.1-0.8-3.1-1.2
					c-0.2-0.1-0.4-0.1-0.6-0.3c-1-0.4-2.1-0.8-3.2-1.3c-0.2-0.1-0.3-0.1-0.5-0.2c-1.3-0.6-2.5-1.2-3.8-1.8c-0.1-0.1-0.3-0.1-0.5-0.3
					c-1.3-0.7-2.7-1.2-4-2c-0.3-0.1-0.5-0.3-0.7-0.4c-0.6-0.3-1.2-0.7-1.8-1c-0.3-0.1-0.6-0.3-0.9-0.5c-0.7-0.3-1.3-0.7-1.9-1
					c-0.3-0.1-0.5-0.3-0.8-0.5c-0.9-0.5-1.8-1-2.7-1.5c-0.1-0.1-0.3-0.2-0.5-0.3c-0.8-0.5-1.5-0.9-2.3-1.4c-0.2-0.1-0.4-0.3-0.6-0.4
					c-1.5-0.9-3.1-1.8-4.6-2.8c-0.2-0.1-0.4-0.3-0.6-0.3c-1.6-1-3.1-2-4.6-3c-0.2-0.1-0.4-0.3-0.5-0.4c-1.6-1-3.2-2.1-4.8-3.3
					c-0.1-0.1-0.3-0.2-0.5-0.3c-1.6-1.2-3.3-2.3-5-3.6c-0.1-0.1-0.2-0.1-0.3-0.2c-1.8-1.3-3.5-2.6-5.3-3.9c-0.1,0-0.1-0.1-0.1-0.1
					c-1.8-1.3-3.5-2.7-5.2-4c-0.1-0.1-0.3-0.2-0.4-0.3c-1.7-1.3-3.3-2.7-5-4c-0.2-0.1-0.3-0.3-0.5-0.5c-1.6-1.4-3.3-2.7-4.9-4.1
					c-0.1-0.1-0.3-0.3-0.5-0.4c-2.7-2.3-5.4-4.8-8.1-7.2c-0.1-0.1-0.2-0.2-0.3-0.3c-2.1-2-4.2-3.9-6.3-5.9c-0.2-0.1-0.3-0.3-0.5-0.5
					c-1.8-1.7-3.6-3.5-5.3-5.2c-0.3-0.3-0.7-0.7-1-1c-1.6-1.6-3.1-3.1-4.6-4.7c-0.1-0.1-0.1-0.2-0.3-0.3c-1.8-1.8-3.5-3.6-5.1-5.4
					c-0.1-0.1-0.1-0.1-0.2-0.3c-1.6-1.7-3.2-3.5-4.8-5.2c-0.1-0.1-0.3-0.3-0.4-0.5c-1.5-1.7-2.9-3.3-4.4-5c-0.2-0.2-0.3-0.4-0.5-0.6
					c-1.4-1.7-2.8-3.3-4.2-5c-0.1-0.2-0.3-0.4-0.5-0.6c-1.4-1.8-2.8-3.5-4.2-5.2c-0.1-0.1-0.2-0.3-0.3-0.4c-1.5-1.9-3-3.8-4.4-5.7
					c-0.1-0.1-0.1-0.2-0.3-0.3c-1.4-1.9-2.9-3.8-4.2-5.7c-0.1-0.1-0.3-0.3-0.3-0.5c-1.5-2.1-2.9-4.2-4.4-6.2
					c-0.1-0.2-0.3-0.5-0.5-0.7c-0.6-0.9-1.2-1.8-1.8-2.7c-0.1-0.3-0.3-0.5-0.5-0.7c-0.7-1-1.4-2.1-2-3.1c-0.1-0.2-0.3-0.4-0.3-0.5
					c-0.8-1.2-1.5-2.4-2.3-3.6c-0.1-0.1-0.1-0.1-0.1-0.2c-0.7-1.2-1.5-2.5-2.1-3.6c-0.1-0.2-0.2-0.4-0.3-0.6
					c-0.9-1.6-1.8-3.3-2.7-4.8c-0.1-0.1-0.1-0.1-0.1-0.3c-0.9-1.7-1.8-3.3-2.5-5c-0.1-0.3-0.3-0.7-0.5-1c-0.2-0.5-0.4-0.8-0.7-1.3
					c-0.2-0.3-0.3-0.7-0.5-1c-0.2-0.4-0.4-0.8-0.6-1.2c-0.1-0.3-0.3-0.7-0.5-1c-0.2-0.4-0.4-0.8-0.5-1.2c-0.1-0.3-0.3-0.7-0.5-1
					c-0.2-0.4-0.3-0.8-0.5-1.2c-0.1-0.3-0.3-0.7-0.5-1c-0.1-0.4-0.3-0.8-0.5-1.1c-0.1-0.3-0.3-0.7-0.4-1c-0.1-0.4-0.3-0.7-0.5-1.1
					c-0.1-0.3-0.3-0.7-0.4-1c-0.1-0.4-0.3-0.7-0.4-1.1c-0.1-0.3-0.3-0.7-0.3-1c-0.1-0.4-0.3-0.7-0.4-1.1c-0.1-0.3-0.2-0.7-0.3-1
					c-0.1-0.4-0.3-0.7-0.3-1c-0.1-0.3-0.2-0.7-0.3-1c-0.1-0.3-0.2-0.7-0.3-1c-0.1-0.3-0.2-0.7-0.3-0.9c-0.1-0.3-0.2-0.7-0.3-1
					c-0.1-0.3-0.1-0.7-0.3-0.9c-0.1-0.3-0.2-0.7-0.3-1c-0.1-0.3-0.1-0.6-0.2-0.9c-0.1-0.3-0.1-0.7-0.2-1c-0.1-0.3-0.1-0.6-0.2-0.9
					c-0.1-0.3-0.1-0.7-0.2-1c-0.1-0.3-0.1-0.6-0.1-0.8c-0.1-0.3-0.1-0.7-0.1-0.9c-0.1-0.3-0.1-0.6-0.1-0.8c-0.1-0.3-0.1-0.6-0.1-0.9
					c-0.1-0.3-0.1-0.6-0.1-0.8c0-0.3-0.1-0.6-0.1-0.9c0-0.3-0.1-0.5-0.1-0.8c0-0.3-0.1-0.6-0.1-0.8c0-0.3,0-0.5-0.1-0.8
					c0-0.3,0-0.6,0-0.8c0-0.3,0-0.5,0-0.8c0-0.3,0-0.5,0-0.8c0-0.3,0-0.5,0-0.8s0-0.5,0.1-0.8c0-0.3,0.1-0.5,0.1-0.7
					c0-0.3,0.1-0.5,0.1-0.8c0-0.3,0.1-0.5,0.1-0.7c0.1-0.3,0.1-0.5,0.1-0.8c0.1-0.2,0.1-0.5,0.1-0.7c0.1-0.3,0.1-0.5,0.1-0.7
					c0.1-0.2,0.1-0.5,0.1-0.7c0.1-0.3,0.1-0.5,0.2-0.7c0.1-0.2,0.1-0.4,0.2-0.6c0.1-0.3,0.1-0.5,0.3-0.7c0.1-0.2,0.1-0.4,0.2-0.6
					c0.1-0.2,0.2-0.5,0.3-0.7c0.1-0.2,0.1-0.4,0.3-0.5c0.1-0.2,0.2-0.5,0.3-0.7c0.1-0.2,0.2-0.3,0.3-0.5c0.1-0.2,0.3-0.4,0.4-0.7
					c0.1-0.1,0.2-0.3,0.3-0.5c0.1-0.2,0.3-0.4,0.5-0.7c0.1-0.1,0.2-0.3,0.3-0.4c0.2-0.2,0.3-0.5,0.5-0.7c0.1-0.1,0.2-0.2,0.3-0.3
					c0.3-0.3,0.6-0.7,0.8-0.9L687.7,617.4c-0.3,0.3-0.6,0.6-0.8,0.9c-0.1,0.1-0.2,0.2-0.3,0.3c-0.2,0.2-0.3,0.5-0.5,0.7
					c-0.1,0.1-0.2,0.3-0.3,0.4c-0.1,0.2-0.3,0.4-0.5,0.7c-0.1,0.1-0.2,0.3-0.3,0.5c-0.1,0.2-0.3,0.4-0.4,0.7
					c-0.1,0.2-0.2,0.3-0.3,0.5c-0.1,0.2-0.2,0.4-0.3,0.7c-0.1,0.2-0.1,0.4-0.3,0.5c-0.1,0.2-0.2,0.5-0.3,0.7
					c-0.1,0.2-0.1,0.4-0.2,0.6c-0.1,0.2-0.1,0.5-0.3,0.7c-0.1,0.2-0.1,0.4-0.2,0.6c-0.1,0.3-0.1,0.5-0.2,0.7
					c-0.1,0.2-0.1,0.5-0.1,0.7c-0.1,0.3-0.1,0.5-0.1,0.7c-0.1,0.2-0.1,0.5-0.1,0.7c-0.1,0.3-0.1,0.5-0.1,0.8c0,0.3-0.1,0.5-0.1,0.7
					c0,0.3-0.1,0.5-0.1,0.8s-0.1,0.5-0.1,0.7s-0.1,0.5-0.1,0.8c0,0.3,0,0.5,0,0.7c0,0.3,0,0.5,0,0.8c0,0.3,0,0.5,0,0.8
					c0,0.3,0,0.6,0,0.8s0,0.5,0.1,0.8c0,0.3,0,0.6,0.1,0.8c0,0.3,0.1,0.5,0.1,0.8c0,0.3,0.1,0.6,0.1,0.9c0,0.3,0.1,0.6,0.1,0.8
					c0.1,0.3,0.1,0.6,0.1,0.9c0.1,0.3,0.1,0.6,0.1,0.8c0.1,0.3,0.1,0.7,0.1,0.9c0.1,0.3,0.1,0.6,0.1,0.8c0.1,0.3,0.1,0.7,0.2,1
					s0.1,0.6,0.2,0.9c0.1,0.3,0.1,0.7,0.2,1c0.1,0.3,0.1,0.6,0.2,0.9c0.1,0.3,0.2,0.7,0.3,1c0.1,0.3,0.1,0.6,0.3,0.9
					c0.1,0.3,0.2,0.7,0.3,1c0.1,0.3,0.2,0.7,0.3,0.9c0.1,0.3,0.2,0.7,0.3,1c0.1,0.3,0.2,0.7,0.3,1c0.1,0.3,0.2,0.7,0.3,1
					c0.1,0.3,0.2,0.7,0.3,1c0.1,0.4,0.3,0.7,0.4,1.1c0.1,0.3,0.3,0.7,0.3,1c0.1,0.4,0.3,0.7,0.4,1.1c0.1,0.3,0.3,0.7,0.4,1
					s0.3,0.7,0.5,1.1c0.1,0.3,0.3,0.7,0.4,1s0.3,0.8,0.5,1.2c0.1,0.3,0.3,0.7,0.5,1c0.2,0.4,0.3,0.8,0.5,1.2c0.1,0.3,0.3,0.7,0.5,1
					c0.2,0.4,0.4,0.8,0.5,1.2c0.1,0.3,0.3,0.7,0.5,1c0.2,0.4,0.4,0.8,0.6,1.2c0.1,0.3,0.3,0.7,0.5,1c0.2,0.4,0.4,0.8,0.7,1.3
					c0.1,0.3,0.3,0.6,0.5,0.9c0,0,0,0.1,0.1,0.1c0.8,1.6,1.7,3.3,2.5,5c0.1,0.1,0.1,0.2,0.1,0.3c0.8,1.6,1.8,3.2,2.7,4.8
					c0.1,0.1,0.1,0.1,0.1,0.2c0.1,0.1,0.1,0.3,0.2,0.4c0.7,1.2,1.4,2.4,2.1,3.6c0.1,0.1,0.1,0.1,0.1,0.3c0.7,1.2,1.5,2.4,2.3,3.6
					c0.1,0.1,0.1,0.2,0.2,0.3c0.1,0.1,0.1,0.1,0.1,0.2c0.7,1,1.4,2.1,2,3.1c0.1,0.3,0.3,0.5,0.5,0.7c0.6,0.9,1.2,1.8,1.8,2.7
					c0.1,0.1,0.2,0.3,0.3,0.5c0.1,0.1,0.1,0.1,0.1,0.1c1.4,2.1,2.9,4.1,4.4,6.3c0.1,0.1,0.1,0.1,0.1,0.2c0.1,0.1,0.1,0.2,0.2,0.3
					c1.4,1.9,2.8,3.8,4.2,5.7c0.1,0.1,0.1,0.1,0.1,0.2c0,0.1,0.1,0.1,0.1,0.1c1.4,1.9,2.9,3.8,4.4,5.7c0.1,0.1,0.1,0.1,0.1,0.1
					c0.1,0.1,0.1,0.1,0.2,0.3c1.4,1.7,2.7,3.5,4.2,5.2c0.1,0.1,0.1,0.2,0.2,0.3c0.1,0.1,0.2,0.2,0.3,0.3c1.4,1.7,2.8,3.3,4.2,5
					c0.1,0.1,0.2,0.2,0.3,0.3c0.1,0.1,0.1,0.2,0.3,0.3c1.4,1.7,2.9,3.3,4.4,5c0.1,0.1,0.2,0.2,0.3,0.3c0.1,0.1,0.1,0.1,0.1,0.2
					c1.6,1.8,3.1,3.5,4.8,5.2c0.1,0.1,0.1,0.1,0.1,0.2l0.1,0.1c1.7,1.8,3.4,3.6,5.1,5.4l0.1,0.1c0.1,0.1,0.1,0.1,0.2,0.2
					c1.5,1.6,3.1,3.1,4.6,4.7c0.3,0.3,0.5,0.5,0.7,0.7c0.1,0.1,0.2,0.2,0.3,0.3c1.8,1.8,3.6,3.5,5.3,5.2c0.1,0.1,0.2,0.2,0.3,0.3
					c0.1,0.1,0.1,0.1,0.2,0.2c2.1,2,4.2,4,6.3,5.9c0.1,0.1,0.1,0.1,0.1,0.1c0.1,0.1,0.1,0.1,0.2,0.1c2.7,2.5,5.4,4.9,8.1,7.2
					c0.1,0.1,0.1,0.1,0.2,0.2c0.1,0.1,0.2,0.1,0.3,0.3c1.6,1.4,3.3,2.8,4.9,4.1c0.2,0.1,0.3,0.3,0.5,0.5c1.7,1.4,3.3,2.7,5,4
					c0.1,0.1,0.3,0.2,0.4,0.3c1.8,1.4,3.5,2.7,5.2,4l0.1,0.1c1.8,1.4,3.5,2.7,5.3,3.9c0.1,0.1,0.2,0.1,0.3,0.2
					c1.7,1.2,3.3,2.4,5,3.5c0.1,0.1,0.3,0.2,0.5,0.3c1.6,1.1,3.2,2.1,4.8,3.3c0.2,0.1,0.4,0.3,0.5,0.4c1.6,1,3.1,2,4.6,3
					c0.2,0.1,0.4,0.3,0.5,0.3c1.6,1,3.1,1.9,4.6,2.8c0.1,0.1,0.2,0.1,0.3,0.2c0.1,0.1,0.2,0.1,0.3,0.2c0.8,0.5,1.6,0.9,2.3,1.4
					c0.1,0.1,0.3,0.1,0.4,0.2c0.9,0.5,1.8,1,2.7,1.5c0.3,0.1,0.5,0.3,0.8,0.4c0.7,0.3,1.3,0.7,2,1c0.3,0.1,0.6,0.3,0.9,0.5
					c0.7,0.3,1.2,0.7,1.9,1c0.2,0.1,0.4,0.2,0.5,0.3c0.1,0,0.1,0.1,0.2,0.1c1.4,0.7,2.7,1.3,4,2c0.1,0.1,0.3,0.1,0.5,0.2
					c1.3,0.6,2.6,1.2,3.9,1.8c0.1,0.1,0.2,0.1,0.3,0.1c0.1,0,0.1,0.1,0.2,0.1c1,0.5,2.1,0.9,3.2,1.3c0.2,0.1,0.4,0.1,0.6,0.3
					c1,0.4,2.1,0.8,3.1,1.2h0.1c0.1,0,0.1,0.1,0.3,0.1c0.8,0.3,1.7,0.6,2.5,0.8c0.2,0.1,0.4,0.1,0.7,0.2c0.9,0.3,1.8,0.6,2.7,0.8
					c0.1,0,0.1,0,0.1,0.1c0.1,0.1,0.3,0.1,0.3,0.1c0.7,0.2,1.4,0.4,2.1,0.6c0.2,0.1,0.4,0.1,0.7,0.2c0.8,0.2,1.6,0.4,2.4,0.6h0.1
					c0.1,0,0.1,0,0.3,0.1c0.7,0.1,1.3,0.3,2,0.4c0.2,0.1,0.5,0.1,0.7,0.1c0.6,0.1,1.2,0.2,1.8,0.3c0.1,0,0.2,0.1,0.3,0.1
					c0.1,0,0.1,0,0.1,0c0.7,0.1,1.4,0.2,2.1,0.3c0.2,0,0.3,0,0.5,0.1c0.5,0.1,1,0.1,1.6,0.1c0.1,0,0.2,0,0.3,0c0.1,0,0.2,0,0.3,0
					c0.6,0,1.1,0,1.7,0c0.1,0,0.2,0,0.3,0c0.7,0,1.2-0.1,1.8-0.1c0.1,0,0.1,0,0.2,0c0.1,0,0.2,0,0.3,0c0.5-0.1,0.9-0.1,1.4-0.1
					c0.2,0,0.3-0.1,0.5-0.1c0.5-0.1,1-0.1,1.6-0.3h0.1l0,0c0.6-0.1,1.1-0.3,1.6-0.4c0.1-0.1,0.3-0.1,0.5-0.1
					c0.4-0.1,0.8-0.3,1.2-0.4c0.1,0,0.2-0.1,0.3-0.1c0.1,0,0.1-0.1,0.1-0.1c0.5-0.2,1-0.4,1.5-0.7c0.1-0.1,0.2-0.1,0.3-0.1
					c0.4-0.2,0.8-0.4,1.2-0.7c0.1-0.1,0.1-0.1,0.2-0.1c0.1,0,0.1-0.1,0.1-0.1c0.5-0.3,0.9-0.6,1.4-0.9c0.1,0,0.1-0.1,0.1-0.1
					c0.4-0.3,0.8-0.7,1.2-1c0.1-0.1,0.1-0.1,0.2-0.1c0.1-0.1,0.3-0.3,0.4-0.4l172.4-172C1055.7,641.6,1055.5,641.8,1055.3,641.9z"/>
			</g>
			<path class="st2" d="M878.3,473.6c-4.3-4.3-4.3-11.3,0-15.6l62.3-62.3c4.3-4.3,11.3-4.3,15.6,0s4.3,11.3,0,15.6l-62.3,62.3
				C889.6,477.9,882.6,477.9,878.3,473.6z"/>
			<path class="st2" d="M1027.5,622.7c-4.3-4.3-4.3-11.3,0-15.6l62.3-62.3c4.3-4.3,11.3-4.3,15.6,0s4.3,11.3,0,15.6l-62.3,62.3
				C1038.7,627,1031.8,627,1027.5,622.7z"/>
			<path class="st2" d="M938.1,560.6c-4.3-4.3-4.3-11.3,0-15.6l62.3-62.3c4.3-4.3,11.3-4.3,15.6,0c4.3,4.3,4.3,11.3,0,15.6
				l-62.3,62.3C949.4,564.9,942.4,564.9,938.1,560.6z"/>
			<g>
				<path class="st3" d="M1086.5,414.8c-54.1-54.1-82.7-113.3-64-132.1c18.8-18.8,77.9,9.8,132,64c54.1,54.1,82.7,113.3,64,132.1
					C1199.7,497.6,1140.6,468.9,1086.5,414.8z"/>
				<path class="st1" d="M1218,479.3c-0.4,0.3-0.8,0.7-1.2,1c-0.1,0-0.1,0.1-0.1,0.1c-0.5,0.3-0.9,0.7-1.4,0.9
					c-0.1,0.1-0.3,0.1-0.4,0.2c-0.4,0.2-0.8,0.5-1.2,0.7c-0.1,0.1-0.2,0.1-0.3,0.1c-0.5,0.3-1,0.5-1.5,0.7c-0.1,0.1-0.3,0.1-0.4,0.1
					c-0.4,0.1-0.8,0.3-1.2,0.4c-0.1,0.1-0.3,0.1-0.5,0.1c-0.5,0.1-1.1,0.3-1.6,0.4c-0.1,0-0.1,0-0.1,0c-0.5,0.1-1,0.2-1.6,0.3
					c-0.2,0-0.3,0.1-0.5,0.1c-0.5,0.1-0.9,0.1-1.4,0.1c-0.1,0-0.3,0-0.5,0.1c-0.6,0.1-1.2,0.1-1.8,0.1c-0.1,0-0.2,0-0.3,0
					c-0.5,0-1.1,0-1.7,0c-0.2,0-0.4,0-0.6,0c-0.5,0-1-0.1-1.6-0.1c-0.2,0-0.3,0-0.5-0.1c-0.7-0.1-1.4-0.1-2.1-0.3
					c-0.1,0-0.3-0.1-0.4-0.1c-0.6-0.1-1.2-0.2-1.8-0.3c-0.2-0.1-0.5-0.1-0.7-0.1c-0.7-0.1-1.3-0.3-2-0.4c-0.1,0-0.2-0.1-0.3-0.1
					c-0.8-0.2-1.6-0.4-2.4-0.6c-0.2-0.1-0.4-0.1-0.7-0.2c-0.7-0.2-1.4-0.4-2.1-0.6c-0.2-0.1-0.3-0.1-0.5-0.1
					c-0.9-0.3-1.8-0.5-2.7-0.8c-0.2-0.1-0.4-0.1-0.7-0.2c-0.8-0.3-1.7-0.6-2.5-0.8c-0.1-0.1-0.2-0.1-0.3-0.1c-1-0.4-2.1-0.8-3.1-1.2
					c-0.2-0.1-0.4-0.1-0.6-0.3c-1-0.4-2.1-0.8-3.2-1.3c-0.2-0.1-0.3-0.1-0.5-0.2c-1.3-0.6-2.5-1.2-3.8-1.8c-0.2-0.1-0.3-0.1-0.5-0.3
					c-1.3-0.7-2.6-1.2-4-2c-0.3-0.1-0.5-0.3-0.7-0.4c-0.6-0.3-1.2-0.7-1.8-1c-0.3-0.1-0.6-0.3-0.9-0.5c-0.7-0.3-1.3-0.7-1.9-1
					c-0.3-0.1-0.5-0.3-0.8-0.5c-0.9-0.5-1.8-1-2.7-1.5c-0.1-0.1-0.3-0.2-0.5-0.3c-0.8-0.5-1.6-0.9-2.3-1.4c-0.2-0.1-0.4-0.3-0.6-0.4
					c-1.5-0.9-3.1-1.8-4.6-2.8c-0.2-0.1-0.4-0.3-0.6-0.3c-1.6-1-3.1-2-4.6-3c-0.2-0.1-0.4-0.3-0.5-0.4c-1.6-1-3.2-2.1-4.8-3.3
					c-0.1-0.1-0.3-0.2-0.5-0.3c-1.6-1.2-3.3-2.3-5-3.6c-0.1-0.1-0.2-0.1-0.3-0.2c-1.8-1.3-3.5-2.6-5.3-3.9c-0.1,0-0.1-0.1-0.1-0.1
					c-1.8-1.3-3.5-2.7-5.2-4c-0.1-0.1-0.3-0.2-0.4-0.3c-1.7-1.3-3.3-2.7-5-4c-0.2-0.1-0.3-0.3-0.5-0.5c-1.6-1.4-3.3-2.7-4.9-4.1
					c-0.1-0.1-0.3-0.3-0.5-0.4c-2.7-2.3-5.4-4.8-8.1-7.2c-0.1-0.1-0.2-0.2-0.3-0.3c-2.1-2-4.2-3.9-6.3-5.9c-0.2-0.1-0.3-0.3-0.5-0.5
					c-1.8-1.7-3.6-3.5-5.3-5.2c-0.3-0.3-0.7-0.7-1-1c-1.6-1.6-3.1-3.1-4.6-4.7c-0.1-0.1-0.1-0.2-0.3-0.3c-1.8-1.8-3.5-3.6-5.1-5.4
					c-0.1-0.1-0.1-0.1-0.2-0.3c-1.6-1.7-3.2-3.5-4.8-5.2c-0.1-0.1-0.3-0.3-0.4-0.5c-1.5-1.7-2.9-3.3-4.4-5c-0.2-0.2-0.3-0.4-0.5-0.6
					c-1.4-1.7-2.8-3.3-4.2-5c-0.1-0.2-0.3-0.4-0.5-0.6c-1.4-1.8-2.8-3.5-4.2-5.2c-0.1-0.1-0.2-0.3-0.3-0.4c-1.5-1.9-3-3.8-4.4-5.7
					c-0.1-0.1-0.1-0.2-0.3-0.3c-1.4-1.9-2.9-3.8-4.2-5.7c-0.1-0.1-0.3-0.3-0.3-0.5c-1.5-2.1-2.9-4.2-4.4-6.2
					c-0.1-0.2-0.3-0.5-0.5-0.7c-0.6-0.9-1.2-1.8-1.8-2.7c-0.1-0.3-0.3-0.5-0.5-0.7c-0.7-1-1.4-2.1-2-3.1c-0.1-0.2-0.3-0.4-0.3-0.5
					c-0.8-1.2-1.5-2.4-2.3-3.6c-0.1-0.1-0.1-0.1-0.1-0.2c-0.7-1.2-1.5-2.5-2.1-3.6c-0.1-0.2-0.2-0.4-0.3-0.6
					c-0.9-1.6-1.8-3.3-2.7-4.8c-0.1-0.1-0.1-0.1-0.1-0.3c-0.9-1.7-1.8-3.3-2.5-5c-0.1-0.3-0.3-0.7-0.5-1c-0.2-0.5-0.4-0.8-0.7-1.3
					c-0.2-0.3-0.3-0.7-0.5-1c-0.2-0.4-0.4-0.8-0.6-1.2c-0.1-0.3-0.3-0.7-0.5-1c-0.2-0.4-0.4-0.8-0.5-1.2c-0.1-0.3-0.3-0.7-0.5-1
					c-0.2-0.4-0.3-0.8-0.5-1.2c-0.1-0.3-0.3-0.7-0.5-1c-0.1-0.4-0.3-0.8-0.5-1.2c-0.1-0.3-0.3-0.7-0.4-1c-0.1-0.4-0.3-0.7-0.5-1.1
					c-0.1-0.3-0.3-0.7-0.4-1c-0.1-0.4-0.3-0.7-0.4-1.1c-0.1-0.3-0.3-0.7-0.3-1c-0.1-0.4-0.3-0.7-0.4-1.1c-0.1-0.3-0.2-0.7-0.3-1
					c-0.1-0.3-0.3-0.7-0.3-1c-0.1-0.3-0.2-0.7-0.3-1c-0.1-0.3-0.2-0.7-0.3-1c-0.1-0.3-0.2-0.7-0.3-0.9c-0.1-0.3-0.2-0.7-0.3-1
					c-0.1-0.3-0.2-0.7-0.3-0.9c-0.1-0.3-0.2-0.7-0.3-1c-0.1-0.3-0.1-0.6-0.2-0.9c-0.1-0.3-0.1-0.7-0.2-1c-0.1-0.3-0.1-0.6-0.2-0.9
					c-0.1-0.3-0.1-0.7-0.2-1c-0.1-0.3-0.1-0.6-0.1-0.8c-0.1-0.3-0.1-0.7-0.1-0.9c-0.1-0.3-0.1-0.6-0.1-0.8c-0.1-0.3-0.1-0.6-0.1-0.9
					c-0.1-0.3-0.1-0.6-0.1-0.8c0-0.3-0.1-0.6-0.1-0.9c0-0.3-0.1-0.5-0.1-0.8c0-0.3-0.1-0.6-0.1-0.8c0-0.3,0-0.5-0.1-0.8
					c0-0.3,0-0.6,0-0.8c0-0.3,0-0.5,0-0.8s0-0.5,0-0.8c0-0.3,0-0.5,0-0.8c0-0.3,0-0.5,0.1-0.8c0-0.3,0.1-0.5,0.1-0.7
					c0-0.3,0.1-0.5,0.1-0.8s0.1-0.5,0.1-0.7c0.1-0.3,0.1-0.5,0.1-0.8c0.1-0.2,0.1-0.5,0.1-0.7c0.1-0.3,0.1-0.5,0.1-0.7
					c0.1-0.2,0.1-0.5,0.1-0.7c0.1-0.3,0.1-0.5,0.2-0.7c0.1-0.2,0.1-0.4,0.2-0.6c0.1-0.3,0.1-0.5,0.3-0.7c0.1-0.2,0.1-0.4,0.2-0.6
					c0.1-0.2,0.2-0.5,0.3-0.7c0.1-0.2,0.1-0.4,0.3-0.5c0.1-0.2,0.2-0.5,0.3-0.7c0.1-0.2,0.2-0.3,0.3-0.5c0.1-0.2,0.3-0.4,0.4-0.7
					c0.1-0.1,0.2-0.3,0.3-0.5c0.1-0.2,0.3-0.4,0.5-0.7c0.1-0.1,0.2-0.3,0.3-0.4c0.2-0.2,0.3-0.5,0.5-0.7c0.1-0.1,0.2-0.2,0.3-0.3
					c0.3-0.3,0.6-0.7,0.8-0.9L896.6,408.4c-0.3,0.3-0.6,0.6-0.8,0.9c-0.1,0.1-0.2,0.2-0.3,0.3c-0.2,0.2-0.3,0.5-0.5,0.7
					c-0.1,0.1-0.2,0.3-0.3,0.4c-0.1,0.2-0.3,0.4-0.5,0.7c-0.1,0.1-0.2,0.3-0.3,0.5c-0.1,0.2-0.3,0.4-0.4,0.7
					c-0.1,0.2-0.2,0.3-0.3,0.5c-0.1,0.2-0.2,0.4-0.3,0.7c-0.1,0.2-0.1,0.4-0.3,0.5c-0.1,0.2-0.2,0.5-0.3,0.7
					c-0.1,0.2-0.1,0.4-0.2,0.6c-0.1,0.2-0.1,0.5-0.3,0.7c-0.1,0.2-0.1,0.4-0.2,0.6c-0.1,0.3-0.1,0.5-0.2,0.7
					c-0.1,0.2-0.1,0.5-0.1,0.7c-0.1,0.3-0.1,0.5-0.1,0.7c-0.1,0.2-0.1,0.5-0.1,0.7c-0.1,0.3-0.1,0.5-0.1,0.8c0,0.3-0.1,0.5-0.1,0.7
					c0,0.3-0.1,0.5-0.1,0.8c0,0.3-0.1,0.5-0.1,0.7c0,0.3-0.1,0.5-0.1,0.8c0,0.3,0,0.5,0,0.7c0,0.3,0,0.5,0,0.8c0,0.3,0,0.5,0,0.8
					c0,0.3,0,0.6,0,0.8c0,0.3,0,0.5,0.1,0.8c0,0.3,0,0.6,0.1,0.8c0,0.3,0.1,0.5,0.1,0.8c0,0.3,0.1,0.6,0.1,0.9
					c0,0.3,0.1,0.6,0.1,0.8c0.1,0.3,0.1,0.6,0.1,0.9c0.1,0.3,0.1,0.6,0.1,0.8c0.1,0.3,0.1,0.7,0.1,0.9c0.1,0.3,0.1,0.6,0.1,0.8
					c0.1,0.3,0.1,0.7,0.2,1c0.1,0.3,0.1,0.6,0.2,0.9c0.1,0.3,0.1,0.7,0.2,1c0.1,0.3,0.1,0.6,0.2,0.9c0.1,0.3,0.2,0.7,0.3,1
					c0.1,0.3,0.1,0.6,0.3,0.9c0.1,0.3,0.2,0.7,0.3,1c0.1,0.3,0.2,0.7,0.3,0.9c0.1,0.3,0.2,0.7,0.3,1c0.1,0.3,0.2,0.7,0.3,1
					c0.1,0.3,0.3,0.7,0.3,1c0.1,0.3,0.2,0.7,0.3,1c0.1,0.4,0.3,0.7,0.4,1.1c0.1,0.3,0.3,0.7,0.3,1c0.1,0.4,0.3,0.7,0.4,1.1
					c0.1,0.3,0.3,0.7,0.4,1c0.1,0.4,0.3,0.7,0.5,1.1c0.1,0.3,0.3,0.7,0.4,1c0.1,0.4,0.3,0.8,0.5,1.2c0.1,0.3,0.3,0.7,0.5,1
					s0.3,0.8,0.5,1.2c0.1,0.3,0.3,0.7,0.5,1c0.2,0.4,0.4,0.8,0.5,1.2c0.1,0.3,0.3,0.7,0.5,1c0.2,0.4,0.4,0.8,0.6,1.2
					c0.1,0.3,0.3,0.7,0.5,1c0.2,0.4,0.4,0.8,0.7,1.3c0.1,0.3,0.3,0.6,0.5,0.9c0,0,0,0.1,0.1,0.1c0.8,1.6,1.7,3.3,2.5,5
					c0.1,0.1,0.1,0.2,0.1,0.3c0.8,1.6,1.8,3.2,2.7,4.8c0.1,0.1,0.1,0.1,0.1,0.2c0.1,0.1,0.1,0.3,0.2,0.4c0.7,1.2,1.4,2.4,2.1,3.6
					c0.1,0.1,0.1,0.1,0.1,0.3c0.7,1.2,1.5,2.4,2.3,3.6c0.1,0.1,0.1,0.3,0.2,0.3c0.1,0.1,0.1,0.1,0.1,0.2c0.7,1,1.4,2.1,2,3.1
					c0.1,0.3,0.3,0.5,0.5,0.7c0.6,0.9,1.2,1.8,1.8,2.7c0.1,0.1,0.2,0.3,0.3,0.5c0.1,0.1,0.1,0.1,0.1,0.1c1.4,2.1,2.9,4.1,4.4,6.3
					c0.1,0.1,0.1,0.1,0.1,0.2c0.1,0.1,0.1,0.2,0.2,0.3c1.4,1.9,2.8,3.8,4.2,5.7c0.1,0.1,0.1,0.1,0.1,0.2c0,0.1,0.1,0.1,0.1,0.1
					c1.4,1.9,2.9,3.8,4.4,5.7c0,0.1,0.1,0.1,0.1,0.1c0.1,0.1,0.1,0.1,0.2,0.3c1.4,1.7,2.7,3.5,4.2,5.2c0.1,0.1,0.1,0.2,0.2,0.3
					c0.1,0.1,0.2,0.2,0.3,0.3c1.4,1.7,2.8,3.3,4.2,5c0.1,0.1,0.2,0.2,0.3,0.3c0.1,0.1,0.1,0.2,0.3,0.3c1.4,1.7,2.9,3.3,4.4,5
					c0.1,0.1,0.2,0.2,0.3,0.3c0.1,0.1,0.1,0.1,0.2,0.2c1.6,1.8,3.1,3.5,4.8,5.2c0.1,0.1,0.1,0.1,0.1,0.2l0.1,0.1
					c1.7,1.8,3.4,3.6,5.1,5.4l0.1,0.1c0.1,0.1,0.1,0.1,0.2,0.2c1.5,1.6,3.1,3.1,4.6,4.7c0.3,0.3,0.5,0.5,0.7,0.7
					c0.1,0.1,0.2,0.2,0.3,0.3c1.8,1.8,3.6,3.5,5.3,5.2c0.1,0.1,0.2,0.2,0.3,0.3c0.1,0.1,0.1,0.1,0.2,0.2c2.1,2,4.2,4,6.3,5.9
					c0.1,0.1,0.1,0.1,0.1,0.1c0.1,0.1,0.1,0.1,0.2,0.1c2.7,2.5,5.4,4.9,8.1,7.2c0.1,0.1,0.1,0.1,0.2,0.2c0.1,0.1,0.2,0.1,0.3,0.3
					c1.6,1.4,3.3,2.8,4.9,4.1c0.2,0.1,0.3,0.3,0.5,0.5c1.7,1.4,3.3,2.7,5,4c0.1,0.1,0.3,0.2,0.4,0.3c1.8,1.4,3.5,2.7,5.2,4l0.1,0.1
					c1.8,1.4,3.5,2.7,5.3,3.9c0.1,0.1,0.2,0.1,0.3,0.2c1.7,1.2,3.3,2.4,5,3.5c0.1,0.1,0.3,0.2,0.5,0.3c1.6,1.1,3.2,2.1,4.8,3.3
					c0.2,0.1,0.4,0.3,0.5,0.4c1.6,1,3.1,2,4.6,3c0.2,0.1,0.4,0.3,0.5,0.3c1.6,1,3.1,1.9,4.6,2.8c0.1,0.1,0.2,0.1,0.3,0.2
					c0.1,0.1,0.2,0.1,0.3,0.2c0.8,0.5,1.6,0.9,2.3,1.4c0.1,0.1,0.3,0.1,0.4,0.2c0.9,0.5,1.8,1,2.7,1.5c0.3,0.1,0.5,0.3,0.8,0.4
					c0.7,0.3,1.3,0.7,2,1c0.3,0.1,0.6,0.3,0.9,0.5c0.7,0.3,1.2,0.7,1.9,1c0.2,0.1,0.4,0.2,0.5,0.3c0.1,0,0.1,0.1,0.2,0.1
					c1.4,0.7,2.7,1.3,4,2c0.1,0.1,0.3,0.1,0.5,0.2c1.3,0.6,2.6,1.2,3.9,1.8c0.1,0.1,0.2,0.1,0.3,0.1c0.1,0,0.1,0.1,0.2,0.1
					c1,0.5,2.1,0.9,3.2,1.3c0.2,0.1,0.4,0.1,0.6,0.3c1,0.4,2.1,0.8,3.1,1.2h0.1c0.1,0,0.1,0.1,0.3,0.1c0.8,0.3,1.7,0.6,2.5,0.8
					c0.2,0.1,0.4,0.1,0.7,0.2c0.9,0.3,1.8,0.6,2.7,0.8c0.1,0,0.1,0,0.1,0.1c0.1,0.1,0.3,0.1,0.3,0.1c0.7,0.2,1.4,0.4,2.1,0.6
					c0.2,0.1,0.4,0.1,0.7,0.2c0.8,0.2,1.6,0.4,2.4,0.6h0.1c0.1,0,0.1,0,0.3,0.1c0.7,0.1,1.3,0.3,2,0.4c0.2,0.1,0.5,0.1,0.7,0.1
					c0.6,0.1,1.2,0.2,1.8,0.3c0.1,0,0.2,0.1,0.3,0.1c0.1,0,0.1,0,0.1,0c0.7,0.1,1.4,0.2,2.1,0.3c0.2,0,0.3,0,0.5,0.1
					c0.5,0.1,1,0.1,1.6,0.1c0.1,0,0.2,0,0.3,0c0.1,0,0.2,0,0.3,0c0.6,0,1.1,0,1.7,0c0.1,0,0.2,0,0.3,0c0.7,0,1.2,0,1.8-0.1
					c0.1,0,0.1,0,0.2,0c0.1,0,0.2,0,0.3,0c0.5-0.1,0.9-0.1,1.4-0.1c0.2,0,0.3-0.1,0.5-0.1c0.5-0.1,1-0.1,1.6-0.3h0.1l0,0
					c0.6-0.1,1.1-0.3,1.6-0.4c0.1-0.1,0.3-0.1,0.5-0.1c0.4-0.1,0.8-0.3,1.2-0.4c0.1,0,0.2-0.1,0.3-0.1c0.1,0,0.1-0.1,0.1-0.1
					c0.5-0.2,1-0.4,1.5-0.7c0.1-0.1,0.2-0.1,0.3-0.1c0.4-0.2,0.8-0.4,1.2-0.7c0.1-0.1,0.1-0.1,0.2-0.1c0.1,0,0.1-0.1,0.1-0.1
					c0.5-0.3,0.9-0.6,1.4-0.9c0.1,0,0.1-0.1,0.1-0.1c0.4-0.3,0.8-0.7,1.2-1c0.1-0.1,0.1-0.1,0.2-0.1c0.1-0.1,0.3-0.3,0.4-0.4
					l125.9-125.8C1218.3,478.9,1218.1,479.1,1218,479.3z"/>
			</g>
			<g>
				<path class="st3" d="M1149.3,352c-42-42-64.2-87.9-49.6-102.4c14.6-14.6,60.4,7.6,102.3,49.6c42,42,64.2,87.8,49.6,102.4
					C1237.1,416.1,1191.2,393.9,1149.3,352z"/>
				<path class="st1" d="M1251.2,401.9c-0.3,0.3-0.6,0.5-0.9,0.8l-0.1,0.1c-0.3,0.3-0.7,0.5-1,0.7c-0.1,0.1-0.2,0.1-0.3,0.2
					c-0.3,0.2-0.6,0.3-0.9,0.5c-0.1,0.1-0.1,0.1-0.2,0.1c-0.4,0.2-0.8,0.3-1.2,0.5c-0.1,0.1-0.2,0.1-0.3,0.1
					c-0.3,0.1-0.6,0.2-0.9,0.3c-0.1,0.1-0.3,0.1-0.3,0.1c-0.4,0.1-0.8,0.2-1.2,0.3h-0.1c-0.4,0.1-0.8,0.1-1.2,0.2
					c-0.1,0-0.3,0.1-0.4,0.1c-0.3,0.1-0.7,0.1-1,0.1c-0.1,0-0.3,0-0.4,0c-0.5,0-1,0.1-1.4,0.1c-0.1,0-0.1,0-0.2,0
					c-0.5,0-0.8,0-1.3,0c-0.1,0-0.3,0-0.5,0c-0.4,0-0.8-0.1-1.2-0.1c-0.1,0-0.3,0-0.4-0.1c-0.5-0.1-1-0.1-1.6-0.2
					c-0.1,0-0.2,0-0.3-0.1c-0.5-0.1-0.9-0.1-1.4-0.2c-0.2,0-0.3-0.1-0.5-0.1c-0.5-0.1-1-0.2-1.6-0.3c-0.1,0-0.1,0-0.3-0.1
					c-0.6-0.1-1.2-0.3-1.9-0.5c-0.1-0.1-0.3-0.1-0.5-0.1c-0.5-0.1-1-0.3-1.6-0.5c-0.1-0.1-0.3-0.1-0.4-0.1c-0.7-0.2-1.4-0.4-2.1-0.7
					c-0.1-0.1-0.3-0.1-0.5-0.1c-0.7-0.2-1.3-0.5-2-0.7c-0.1,0-0.1-0.1-0.3-0.1c-0.8-0.3-1.6-0.6-2.4-0.9c-0.1-0.1-0.3-0.1-0.5-0.2
					c-0.8-0.3-1.6-0.7-2.5-1c-0.1-0.1-0.3-0.1-0.4-0.2c-1-0.5-2-0.9-3-1.4c-0.1-0.1-0.3-0.1-0.4-0.2c-1-0.5-2-1-3.1-1.5
					c-0.2-0.1-0.4-0.2-0.6-0.3c-0.5-0.3-1-0.5-1.4-0.7c-0.3-0.1-0.5-0.3-0.7-0.4c-0.5-0.3-1-0.5-1.5-0.8c-0.2-0.1-0.4-0.2-0.6-0.3
					c-0.7-0.4-1.4-0.8-2.1-1.2c-0.1-0.1-0.2-0.1-0.3-0.2c-0.6-0.3-1.2-0.7-1.8-1c-0.1-0.1-0.3-0.2-0.5-0.3c-1.2-0.7-2.3-1.4-3.6-2.1
					c-0.1-0.1-0.3-0.2-0.5-0.3c-1.2-0.7-2.4-1.5-3.6-2.3c-0.1-0.1-0.3-0.2-0.5-0.3c-1.2-0.8-2.5-1.6-3.7-2.5
					c-0.1-0.1-0.3-0.1-0.3-0.3c-1.3-0.9-2.6-1.8-3.9-2.7c-0.1-0.1-0.1-0.1-0.2-0.1c-1.4-1-2.7-2-4.1-3.1l-0.1-0.1
					c-1.4-1-2.7-2.1-4-3.1c-0.1-0.1-0.2-0.1-0.3-0.3c-1.3-1-2.6-2.1-3.8-3.1c-0.1-0.1-0.3-0.3-0.4-0.3c-1.2-1-2.5-2.1-3.8-3.2
					c-0.1-0.1-0.3-0.2-0.4-0.3c-2.1-1.8-4.2-3.6-6.3-5.6c-0.1-0.1-0.1-0.1-0.3-0.2c-1.6-1.5-3.3-3.1-5-4.6c-0.1-0.1-0.3-0.3-0.4-0.4
					c-1.4-1.3-2.8-2.7-4.2-4c-0.3-0.3-0.5-0.5-0.8-0.8c-1.2-1.2-2.4-2.4-3.6-3.6c-0.1-0.1-0.1-0.1-0.2-0.2c-1.4-1.4-2.7-2.8-4-4.2
					c-0.1-0.1-0.1-0.1-0.2-0.2c-1.2-1.4-2.5-2.7-3.6-4c-0.1-0.1-0.2-0.3-0.3-0.4c-1.2-1.3-2.3-2.6-3.4-3.9c-0.1-0.1-0.3-0.3-0.4-0.5
					c-1.1-1.3-2.2-2.6-3.3-3.8c-0.1-0.1-0.3-0.3-0.4-0.5c-1.1-1.4-2.2-2.7-3.3-4c-0.1-0.1-0.1-0.2-0.2-0.3c-1.2-1.5-2.3-2.9-3.4-4.4
					c-0.1-0.1-0.1-0.1-0.2-0.3c-1.1-1.5-2.2-3-3.3-4.4c-0.1-0.1-0.2-0.3-0.3-0.4c-1.2-1.6-2.3-3.2-3.4-4.8c-0.1-0.2-0.2-0.3-0.3-0.5
					c-0.5-0.7-0.9-1.4-1.4-2c-0.1-0.2-0.3-0.4-0.4-0.6c-0.5-0.8-1-1.6-1.6-2.4c-0.1-0.1-0.2-0.3-0.3-0.5c-0.6-1-1.2-1.9-1.8-2.8
					c-0.1-0.1-0.1-0.1-0.1-0.2c-0.6-1-1.1-1.9-1.7-2.9c-0.1-0.1-0.2-0.3-0.3-0.5c-0.7-1.2-1.4-2.5-2.1-3.8c-0.1-0.1-0.1-0.1-0.1-0.2
					c-0.7-1.3-1.4-2.5-2-3.8c-0.1-0.3-0.3-0.5-0.4-0.8c-0.1-0.3-0.3-0.7-0.5-1c-0.1-0.3-0.3-0.5-0.4-0.8c-0.1-0.3-0.3-0.7-0.5-1
					c-0.1-0.3-0.3-0.5-0.4-0.8c-0.1-0.3-0.3-0.7-0.4-0.9c-0.1-0.3-0.3-0.5-0.3-0.8c-0.1-0.3-0.3-0.6-0.4-0.9
					c-0.1-0.3-0.2-0.5-0.3-0.8c-0.1-0.3-0.3-0.6-0.4-0.9c-0.1-0.3-0.2-0.5-0.3-0.8c-0.1-0.3-0.2-0.6-0.3-0.8s-0.2-0.5-0.3-0.8
					s-0.2-0.6-0.3-0.8c-0.1-0.3-0.2-0.5-0.3-0.8c-0.1-0.3-0.2-0.6-0.3-0.8c-0.1-0.3-0.2-0.5-0.3-0.8c-0.1-0.3-0.2-0.6-0.3-0.8
					c-0.1-0.3-0.1-0.5-0.2-0.7c-0.1-0.3-0.2-0.5-0.3-0.8c-0.1-0.3-0.1-0.5-0.2-0.7c-0.1-0.3-0.1-0.5-0.2-0.8
					c-0.1-0.3-0.1-0.5-0.2-0.7c-0.1-0.3-0.1-0.5-0.2-0.8s-0.1-0.5-0.2-0.7c-0.1-0.3-0.1-0.5-0.2-0.8c-0.1-0.3-0.1-0.5-0.1-0.7
					c-0.1-0.3-0.1-0.5-0.1-0.7c-0.1-0.2-0.1-0.5-0.1-0.7c-0.1-0.3-0.1-0.5-0.1-0.7c-0.1-0.2-0.1-0.5-0.1-0.7
					c-0.1-0.3-0.1-0.5-0.1-0.7c0-0.2-0.1-0.5-0.1-0.7c0-0.3-0.1-0.5-0.1-0.7c0-0.2-0.1-0.4-0.1-0.7c0-0.2,0-0.5-0.1-0.7
					c0-0.2,0-0.4,0-0.6c0-0.2,0-0.5,0-0.7c0-0.2,0-0.4,0-0.6c0-0.2,0-0.5,0-0.7c0-0.2,0-0.4,0-0.6s0-0.4,0.1-0.6
					c0-0.2,0-0.4,0.1-0.6c0-0.2,0.1-0.4,0.1-0.6s0.1-0.4,0.1-0.5c0-0.2,0.1-0.4,0.1-0.6s0.1-0.3,0.1-0.5c0.1-0.2,0.1-0.4,0.1-0.6
					c0.1-0.2,0.1-0.3,0.1-0.5c0.1-0.2,0.1-0.4,0.1-0.5c0.1-0.1,0.1-0.3,0.1-0.5c0.1-0.2,0.1-0.3,0.2-0.5c0.1-0.1,0.1-0.3,0.1-0.5
					c0.1-0.2,0.1-0.3,0.2-0.5c0.1-0.1,0.1-0.3,0.2-0.5c0.1-0.2,0.1-0.3,0.3-0.5c0.1-0.1,0.1-0.3,0.2-0.4c0.1-0.2,0.2-0.3,0.3-0.5
					c0.1-0.1,0.1-0.3,0.2-0.4c0.1-0.2,0.2-0.3,0.3-0.5c0.1-0.1,0.1-0.2,0.2-0.3c0.1-0.2,0.3-0.3,0.4-0.5c0.1-0.1,0.1-0.2,0.2-0.3
					c0.2-0.3,0.5-0.5,0.7-0.7l-50.9,50.8c-0.3,0.3-0.5,0.5-0.7,0.7c-0.1,0.1-0.1,0.2-0.2,0.3c-0.1,0.2-0.3,0.3-0.4,0.5
					c-0.1,0.1-0.1,0.2-0.2,0.3c-0.1,0.1-0.2,0.3-0.3,0.5c-0.1,0.1-0.1,0.3-0.2,0.4c-0.1,0.1-0.2,0.3-0.3,0.5
					c-0.1,0.1-0.1,0.3-0.2,0.4c-0.1,0.2-0.2,0.3-0.3,0.5c-0.1,0.1-0.1,0.3-0.2,0.5c-0.1,0.2-0.1,0.3-0.2,0.5
					c-0.1,0.1-0.1,0.3-0.1,0.5c-0.1,0.2-0.1,0.3-0.2,0.5c-0.1,0.1-0.1,0.3-0.1,0.5c-0.1,0.2-0.1,0.4-0.1,0.5
					c-0.1,0.2-0.1,0.3-0.1,0.5c-0.1,0.2-0.1,0.4-0.1,0.6c-0.1,0.2-0.1,0.3-0.1,0.5c-0.1,0.2-0.1,0.4-0.1,0.6s-0.1,0.4-0.1,0.5
					c0,0.2-0.1,0.4-0.1,0.6c0,0.2,0,0.4-0.1,0.6c0,0.2,0,0.4-0.1,0.7c0,0.2,0,0.4,0,0.6c0,0.2,0,0.5,0,0.7c0,0.2,0,0.4,0,0.6
					s0,0.5,0,0.7c0,0.2,0,0.4,0,0.6c0,0.2,0,0.5,0.1,0.7c0,0.2,0,0.4,0.1,0.7c0,0.3,0.1,0.5,0.1,0.7c0,0.2,0.1,0.5,0.1,0.7
					c0,0.3,0.1,0.5,0.1,0.7c0,0.2,0.1,0.5,0.1,0.7c0.1,0.3,0.1,0.5,0.1,0.7c0.1,0.2,0.1,0.5,0.1,0.7c0.1,0.3,0.1,0.5,0.1,0.7
					c0.1,0.3,0.1,0.5,0.1,0.7c0.1,0.3,0.1,0.5,0.2,0.8c0.1,0.3,0.1,0.5,0.2,0.7c0.1,0.3,0.1,0.5,0.2,0.8c0.1,0.3,0.1,0.5,0.2,0.7
					c0.1,0.3,0.1,0.5,0.2,0.8c0.1,0.3,0.1,0.5,0.2,0.7c0.1,0.3,0.1,0.5,0.3,0.8c0.1,0.3,0.1,0.5,0.3,0.7c0.1,0.3,0.2,0.5,0.3,0.8
					c0.1,0.3,0.2,0.5,0.3,0.8c0.1,0.3,0.2,0.6,0.3,0.8c0.1,0.3,0.2,0.5,0.3,0.8c0.1,0.3,0.2,0.6,0.3,0.8c0.1,0.3,0.2,0.5,0.3,0.8
					c0.1,0.3,0.2,0.6,0.3,0.8c0.1,0.3,0.2,0.5,0.3,0.8c0.1,0.3,0.3,0.6,0.4,0.9c0.1,0.3,0.2,0.5,0.3,0.8c0.1,0.3,0.3,0.6,0.4,0.9
					c0.1,0.3,0.3,0.5,0.3,0.8c0.1,0.3,0.3,0.6,0.4,0.9c0.1,0.3,0.3,0.5,0.4,0.8c0.1,0.3,0.3,0.7,0.5,1c0.1,0.3,0.3,0.5,0.4,0.8
					c0.1,0.3,0.3,0.7,0.5,1c0.1,0.3,0.2,0.5,0.3,0.7v0.1c0.7,1.2,1.3,2.5,2,3.8c0.1,0.1,0.1,0.1,0.1,0.2c0.7,1.2,1.4,2.5,2.1,3.7
					c0,0.1,0.1,0.1,0.1,0.2c0.1,0.1,0.1,0.2,0.2,0.3c0.5,0.9,1.1,1.9,1.7,2.9c0.1,0.1,0.1,0.1,0.1,0.2c0.6,0.9,1.2,1.9,1.8,2.8
					c0.1,0.1,0.1,0.2,0.2,0.3c0,0.1,0.1,0.1,0.1,0.1c0.5,0.8,1,1.6,1.6,2.5c0.1,0.2,0.3,0.4,0.4,0.6c0.5,0.7,0.9,1.4,1.4,2.1
					c0.1,0.1,0.2,0.3,0.3,0.4c0,0.1,0.1,0.1,0.1,0.1c1.1,1.6,2.2,3.2,3.4,4.8c0.1,0.1,0.1,0.1,0.1,0.1c0.1,0.1,0.1,0.1,0.1,0.2
					c1,1.5,2.1,2.9,3.3,4.4c0.1,0.1,0.1,0.1,0.1,0.1l0.1,0.1c1.1,1.5,2.3,2.9,3.4,4.4l0.1,0.1c0.1,0.1,0.1,0.1,0.1,0.2
					c1,1.4,2.1,2.7,3.3,4c0.1,0.1,0.1,0.1,0.1,0.2c0.1,0.1,0.1,0.1,0.2,0.3c1,1.3,2.1,2.6,3.3,3.8c0.1,0.1,0.1,0.1,0.2,0.3
					c0.1,0.1,0.1,0.1,0.2,0.2c1.1,1.3,2.3,2.6,3.4,3.9c0.1,0.1,0.1,0.1,0.2,0.2c0.1,0.1,0.1,0.1,0.1,0.1c1.2,1.4,2.4,2.7,3.6,4
					c0.1,0.1,0.1,0.1,0.1,0.1l0.1,0.1c1.3,1.4,2.6,2.8,4,4.2c0,0,0,0.1,0.1,0.1c0.1,0.1,0.1,0.1,0.1,0.1c1.2,1.2,2.3,2.4,3.6,3.6
					c0.2,0.2,0.4,0.4,0.6,0.6c0.1,0.1,0.1,0.1,0.2,0.2c1.4,1.4,2.7,2.7,4.2,4c0.1,0.1,0.1,0.1,0.2,0.2c0.1,0.1,0.1,0.1,0.2,0.1
					c1.6,1.6,3.3,3.1,4.9,4.6c0.1,0.1,0.1,0.1,0.1,0.1c0.1,0.1,0.1,0.1,0.1,0.1c2.1,1.9,4.2,3.8,6.3,5.5c0.1,0.1,0.1,0.1,0.1,0.1
					c0.1,0.1,0.1,0.1,0.2,0.2c1.2,1.1,2.5,2.1,3.8,3.2c0.1,0.1,0.3,0.3,0.4,0.3c1.3,1,2.6,2.1,3.8,3.1c0.1,0.1,0.2,0.1,0.3,0.3
					c1.4,1.1,2.7,2.1,4,3.1l0.1,0.1c1.4,1,2.7,2.1,4.1,3.1c0.1,0.1,0.1,0.1,0.2,0.1c1.3,0.9,2.6,1.9,3.8,2.7
					c0.1,0.1,0.3,0.2,0.3,0.3c1.2,0.8,2.5,1.7,3.7,2.5c0.1,0.1,0.3,0.2,0.5,0.3c1.2,0.8,2.4,1.6,3.6,2.3c0.1,0.1,0.3,0.2,0.5,0.3
					c1.2,0.7,2.4,1.5,3.6,2.1c0.1,0.1,0.1,0.1,0.2,0.1c0.1,0.1,0.1,0.1,0.3,0.1c0.6,0.4,1.2,0.7,1.8,1c0.1,0.1,0.2,0.1,0.3,0.2
					c0.7,0.4,1.4,0.8,2.1,1.2c0.2,0.1,0.4,0.2,0.6,0.3c0.5,0.3,1,0.5,1.5,0.8c0.3,0.1,0.5,0.3,0.7,0.4c0.5,0.3,1,0.5,1.4,0.7
					c0.1,0.1,0.3,0.1,0.5,0.2c0.1,0,0.1,0.1,0.1,0.1c1,0.5,2.1,1,3.1,1.5c0.1,0.1,0.3,0.1,0.4,0.2c1,0.5,2,0.9,3,1.4
					c0.1,0.1,0.1,0.1,0.2,0.1c0.1,0,0.1,0.1,0.2,0.1c0.8,0.3,1.6,0.7,2.5,1c0.1,0.1,0.3,0.1,0.5,0.2c0.8,0.3,1.6,0.7,2.5,0.9h0.1
					c0.1,0,0.1,0.1,0.2,0.1c0.7,0.3,1.3,0.5,2,0.7c0.1,0.1,0.3,0.1,0.5,0.1c0.7,0.3,1.4,0.5,2.1,0.7c0.1,0,0.1,0,0.1,0
					s0.2,0.1,0.3,0.1c0.5,0.1,1.1,0.3,1.6,0.5c0.2,0.1,0.3,0.1,0.5,0.1c0.7,0.1,1.2,0.3,1.9,0.5c0,0,0,0,0.1,0s0.1,0,0.2,0.1
					c0.5,0.1,1,0.2,1.6,0.3c0.2,0,0.3,0.1,0.5,0.1c0.5,0.1,0.9,0.1,1.4,0.2c0.1,0,0.2,0,0.3,0.1h0.1c0.5,0.1,1.1,0.1,1.6,0.2
					c0.1,0,0.3,0,0.4,0.1c0.4,0.1,0.8,0.1,1.2,0.1c0.1,0,0.2,0,0.3,0c0.1,0,0.1,0,0.2,0c0.5,0,0.8,0,1.3,0c0.1,0,0.1,0,0.2,0
					c0.5,0,1,0,1.4-0.1c0.1,0,0.1,0,0.1,0c0.1,0,0.2,0,0.3,0c0.3,0,0.7-0.1,1-0.1c0.1,0,0.3,0,0.4-0.1c0.4-0.1,0.8-0.1,1.2-0.2h0.1
					l0,0c0.5-0.1,0.8-0.2,1.2-0.3c0.1,0,0.3-0.1,0.3-0.1c0.3-0.1,0.7-0.2,0.9-0.3c0.1,0,0.1-0.1,0.2-0.1c0.1,0,0.1,0,0.1-0.1
					c0.4-0.1,0.8-0.3,1.2-0.5c0.1,0,0.1-0.1,0.2-0.1c0.3-0.1,0.7-0.3,0.9-0.5c0.1,0,0.1-0.1,0.2-0.1s0.1-0.1,0.1-0.1
					c0.4-0.2,0.7-0.5,1-0.7l0.1-0.1c0.3-0.3,0.6-0.5,0.9-0.8c0.1-0.1,0.1-0.1,0.1-0.1c0.1-0.1,0.2-0.2,0.3-0.3l50.9-50.8
					C1251.5,401.7,1251.4,401.8,1251.2,401.9z"/>
			</g>
			<g>
				<path class="st3" d="M1173.7,327.5c-42-42-64.2-87.9-49.6-102.4c14.6-14.6,60.4,7.6,102.3,49.6c42,42,64.2,87.8,49.6,102.4
					C1261.5,391.7,1215.7,369.6,1173.7,327.5z"/>
				<path class="st4" d="M1275.6,377.6c-0.3,0.3-0.6,0.5-0.9,0.8l-0.1,0.1c-0.3,0.3-0.7,0.5-1,0.7c-0.1,0.1-0.2,0.1-0.3,0.2
					c-0.3,0.2-0.6,0.3-0.9,0.5c-0.1,0.1-0.1,0.1-0.2,0.1c-0.4,0.2-0.8,0.3-1.2,0.5c-0.1,0.1-0.2,0.1-0.3,0.1
					c-0.3,0.1-0.6,0.2-0.9,0.3c-0.1,0.1-0.3,0.1-0.3,0.1c-0.4,0.1-0.8,0.2-1.3,0.3h-0.1c-0.4,0.1-0.8,0.1-1.2,0.2
					c-0.1,0-0.3,0.1-0.4,0.1c-0.3,0.1-0.7,0.1-1,0.1c-0.1,0-0.3,0-0.4,0c-0.5,0-1,0.1-1.4,0.1c-0.1,0-0.1,0-0.2,0
					c-0.5,0-0.8,0-1.3,0c-0.1,0-0.3,0-0.5,0c-0.4,0-0.8-0.1-1.2-0.1c-0.1,0-0.3,0-0.4-0.1c-0.5-0.1-1-0.1-1.6-0.2
					c-0.1,0-0.2-0.1-0.3-0.1c-0.5-0.1-0.9-0.1-1.4-0.2c-0.2,0-0.3-0.1-0.5-0.1c-0.5-0.1-1-0.2-1.6-0.3c-0.1,0-0.1,0-0.3-0.1
					c-0.6-0.1-1.2-0.3-1.9-0.5c-0.1-0.1-0.3-0.1-0.5-0.1c-0.5-0.1-1-0.3-1.6-0.5c-0.1-0.1-0.3-0.1-0.4-0.1c-0.7-0.2-1.4-0.4-2.1-0.7
					c-0.1-0.1-0.3-0.1-0.5-0.1c-0.7-0.2-1.3-0.5-2-0.7c-0.1,0-0.1-0.1-0.3-0.1c-0.8-0.3-1.6-0.6-2.4-0.9c-0.1-0.1-0.3-0.1-0.5-0.2
					c-0.8-0.3-1.6-0.7-2.5-1c-0.1-0.1-0.3-0.1-0.4-0.2c-1-0.5-2-0.9-3-1.4c-0.1-0.1-0.3-0.1-0.4-0.2c-1-0.5-2-1-3.1-1.5
					c-0.2-0.1-0.4-0.2-0.6-0.3c-0.5-0.3-1-0.5-1.4-0.7c-0.3-0.1-0.5-0.3-0.7-0.4c-0.5-0.3-1-0.5-1.5-0.8c-0.2-0.1-0.4-0.2-0.6-0.3
					c-0.7-0.4-1.4-0.8-2.1-1.2c-0.1-0.1-0.2-0.1-0.3-0.2c-0.6-0.3-1.2-0.7-1.8-1c-0.1-0.1-0.3-0.2-0.5-0.3c-1.2-0.7-2.3-1.4-3.6-2.1
					c-0.1-0.1-0.3-0.2-0.5-0.3c-1.2-0.7-2.4-1.5-3.6-2.3c-0.1-0.1-0.3-0.2-0.5-0.3c-1.2-0.8-2.5-1.6-3.7-2.5
					c-0.1-0.1-0.3-0.1-0.3-0.3c-1.3-0.9-2.6-1.8-3.9-2.7c-0.1-0.1-0.1-0.1-0.2-0.1c-1.4-1-2.7-2-4.1-3.1l-0.1-0.1
					c-1.4-1-2.7-2.1-4-3.1c-0.1-0.1-0.2-0.1-0.3-0.3c-1.3-1-2.6-2.1-3.8-3.1c-0.1-0.1-0.3-0.2-0.4-0.3c-1.2-1-2.5-2.1-3.8-3.2
					c-0.1-0.1-0.3-0.2-0.4-0.3c-2.1-1.8-4.2-3.6-6.3-5.6c-0.1-0.1-0.1-0.1-0.3-0.2c-1.6-1.5-3.3-3.1-5-4.6c-0.1-0.1-0.3-0.3-0.4-0.4
					c-1.4-1.3-2.8-2.7-4.2-4c-0.3-0.3-0.5-0.5-0.8-0.8c-1.2-1.2-2.4-2.4-3.6-3.6c-0.1-0.1-0.1-0.1-0.2-0.2c-1.4-1.4-2.7-2.8-4-4.2
					c-0.1-0.1-0.1-0.1-0.2-0.2c-1.2-1.4-2.5-2.7-3.6-4c-0.1-0.1-0.2-0.3-0.3-0.4c-1.2-1.3-2.3-2.6-3.4-3.9c-0.1-0.1-0.3-0.3-0.4-0.5
					c-1.1-1.3-2.2-2.6-3.3-3.8c-0.1-0.1-0.3-0.3-0.4-0.5c-1.1-1.4-2.2-2.7-3.3-4c-0.1-0.1-0.1-0.2-0.2-0.3c-1.2-1.5-2.3-2.9-3.4-4.4
					c-0.1-0.1-0.1-0.1-0.2-0.3c-1.1-1.5-2.2-3-3.3-4.4c-0.1-0.1-0.2-0.3-0.3-0.4c-1.2-1.6-2.3-3.2-3.4-4.8c-0.1-0.2-0.2-0.3-0.3-0.5
					c-0.5-0.7-0.9-1.4-1.4-2c-0.1-0.2-0.3-0.4-0.4-0.6c-0.5-0.8-1-1.6-1.6-2.4c-0.1-0.1-0.2-0.3-0.3-0.5c-0.6-1-1.2-1.9-1.8-2.8
					c-0.1-0.1-0.1-0.1-0.1-0.2c-0.6-1-1.1-1.9-1.7-2.9c-0.1-0.1-0.2-0.3-0.3-0.5c-0.7-1.2-1.4-2.5-2.1-3.8c-0.1-0.1-0.1-0.1-0.1-0.2
					c-0.7-1.3-1.4-2.5-2-3.8c-0.1-0.3-0.3-0.5-0.4-0.8c-0.2-0.3-0.3-0.7-0.5-1c-0.1-0.3-0.3-0.5-0.4-0.8c-0.1-0.3-0.3-0.7-0.5-1
					c-0.1-0.3-0.3-0.5-0.4-0.8c-0.1-0.3-0.3-0.7-0.4-0.9c-0.1-0.3-0.3-0.5-0.3-0.8c-0.1-0.3-0.3-0.6-0.4-0.9
					c-0.1-0.3-0.2-0.5-0.3-0.8c-0.1-0.3-0.3-0.6-0.4-0.9c-0.1-0.3-0.2-0.5-0.3-0.8c-0.1-0.3-0.2-0.6-0.3-0.8
					c-0.1-0.3-0.2-0.5-0.3-0.8c-0.1-0.3-0.2-0.6-0.3-0.8c-0.1-0.3-0.2-0.5-0.3-0.8c-0.1-0.3-0.2-0.6-0.3-0.8s-0.2-0.5-0.3-0.8
					c-0.1-0.3-0.2-0.6-0.3-0.8c-0.1-0.3-0.1-0.5-0.2-0.7c-0.1-0.3-0.2-0.5-0.3-0.8c-0.1-0.3-0.1-0.5-0.2-0.7
					c-0.1-0.3-0.1-0.5-0.2-0.8c-0.1-0.3-0.1-0.5-0.2-0.7c-0.1-0.3-0.1-0.5-0.2-0.8c-0.1-0.3-0.1-0.5-0.2-0.7
					c-0.1-0.3-0.1-0.5-0.2-0.8c-0.1-0.3-0.1-0.5-0.1-0.7c-0.1-0.3-0.1-0.5-0.1-0.7c-0.1-0.2-0.1-0.5-0.1-0.7
					c-0.1-0.3-0.1-0.5-0.1-0.7c-0.1-0.2-0.1-0.5-0.1-0.7c-0.1-0.3-0.1-0.5-0.1-0.7c0-0.2-0.1-0.5-0.1-0.7c0-0.3-0.1-0.5-0.1-0.7
					c0-0.2-0.1-0.4-0.1-0.7c0-0.2,0-0.5-0.1-0.7c0-0.2,0-0.4,0-0.6c0-0.2,0-0.5,0-0.7c0-0.2,0-0.4,0-0.6c0-0.2,0-0.5,0-0.7
					s0-0.4,0-0.6s0-0.4,0.1-0.6c0-0.2,0-0.4,0.1-0.6c0-0.2,0.1-0.4,0.1-0.6c0-0.2,0.1-0.4,0.1-0.5c0-0.2,0.1-0.4,0.1-0.6
					c0-0.2,0.1-0.3,0.1-0.5c0.1-0.2,0.1-0.4,0.1-0.6c0.1-0.2,0.1-0.3,0.1-0.5c0.1-0.2,0.1-0.4,0.1-0.5c0.1-0.1,0.1-0.3,0.1-0.5
					c0.1-0.2,0.1-0.3,0.2-0.5c0.1-0.1,0.1-0.3,0.1-0.5c0.1-0.2,0.1-0.3,0.2-0.5c0.1-0.1,0.1-0.3,0.2-0.5c0.1-0.2,0.1-0.3,0.3-0.5
					c0.1-0.1,0.1-0.3,0.2-0.4c0.1-0.2,0.2-0.3,0.3-0.5c0.1-0.1,0.1-0.3,0.2-0.4c0.1-0.2,0.2-0.3,0.3-0.5c0.1-0.1,0.1-0.2,0.2-0.3
					c0.1-0.2,0.3-0.3,0.4-0.5c0.1-0.1,0.1-0.2,0.2-0.3c0.2-0.3,0.5-0.5,0.7-0.7l-24.5,24.4c-0.3,0.3-0.5,0.5-0.7,0.7
					c-0.1,0.1-0.1,0.2-0.2,0.3c-0.1,0.2-0.3,0.3-0.4,0.5c-0.1,0.1-0.1,0.2-0.2,0.3c-0.1,0.1-0.2,0.3-0.3,0.5
					c-0.1,0.1-0.1,0.3-0.2,0.4c-0.1,0.1-0.2,0.3-0.3,0.5c-0.1,0.1-0.1,0.3-0.2,0.4c-0.1,0.2-0.2,0.3-0.3,0.5
					c-0.1,0.1-0.1,0.3-0.2,0.5c-0.1,0.2-0.1,0.3-0.2,0.5c-0.1,0.1-0.1,0.3-0.1,0.5c-0.1,0.2-0.1,0.3-0.2,0.5
					c-0.1,0.1-0.1,0.3-0.1,0.5c-0.1,0.2-0.1,0.4-0.1,0.5c-0.1,0.2-0.1,0.3-0.1,0.5c-0.1,0.2-0.1,0.4-0.1,0.6
					c-0.1,0.2-0.1,0.3-0.1,0.5c-0.1,0.2-0.1,0.4-0.1,0.6c0,0.2-0.1,0.4-0.1,0.5c0,0.2-0.1,0.4-0.1,0.6c0,0.2,0,0.4-0.1,0.6
					c0,0.2,0,0.4-0.1,0.7c0,0.2,0,0.4,0,0.6c0,0.2,0,0.5,0,0.7s0,0.4,0,0.6s0,0.5,0,0.7s0,0.4,0,0.6c0,0.2,0,0.5,0.1,0.7
					c0,0.2,0,0.4,0.1,0.7c0,0.3,0.1,0.5,0.1,0.7c0,0.2,0.1,0.5,0.1,0.7c0,0.3,0.1,0.5,0.1,0.7c0,0.2,0.1,0.5,0.1,0.7
					c0.1,0.3,0.1,0.5,0.1,0.7c0.1,0.2,0.1,0.5,0.1,0.7c0.1,0.3,0.1,0.5,0.1,0.7c0.1,0.3,0.1,0.5,0.1,0.7c0.1,0.3,0.1,0.5,0.2,0.8
					c0.1,0.3,0.1,0.5,0.2,0.7c0.1,0.3,0.1,0.5,0.2,0.8c0.1,0.3,0.1,0.5,0.2,0.7c0.1,0.3,0.1,0.5,0.2,0.8c0.1,0.3,0.1,0.5,0.2,0.7
					c0.1,0.3,0.1,0.5,0.3,0.8c0.1,0.3,0.1,0.5,0.3,0.7c0.1,0.3,0.2,0.5,0.3,0.8c0.1,0.3,0.2,0.5,0.3,0.8c0.1,0.3,0.2,0.6,0.3,0.8
					c0.1,0.3,0.2,0.5,0.3,0.8c0.1,0.3,0.2,0.6,0.3,0.8c0.1,0.3,0.2,0.5,0.3,0.8c0.1,0.3,0.2,0.6,0.3,0.8c0.1,0.3,0.2,0.5,0.3,0.8
					c0.1,0.3,0.3,0.6,0.4,0.9c0.1,0.3,0.2,0.5,0.3,0.8c0.1,0.3,0.3,0.6,0.4,0.9c0.1,0.3,0.3,0.5,0.3,0.8c0.1,0.3,0.3,0.6,0.4,0.9
					c0.1,0.3,0.3,0.5,0.4,0.8c0.1,0.3,0.3,0.7,0.5,1c0.1,0.3,0.3,0.5,0.4,0.8c0.1,0.3,0.3,0.7,0.5,1c0.1,0.3,0.2,0.5,0.3,0.7v0.1
					c0.7,1.2,1.3,2.5,2,3.8c0.1,0.1,0.1,0.1,0.1,0.2c0.7,1.2,1.4,2.5,2.1,3.7c0,0.1,0.1,0.1,0.1,0.2c0.1,0.1,0.1,0.2,0.2,0.3
					c0.5,0.9,1.1,1.9,1.7,2.9c0.1,0.1,0.1,0.1,0.1,0.2c0.6,0.9,1.2,1.9,1.8,2.8c0.1,0.1,0.1,0.2,0.2,0.3c0,0.1,0.1,0.1,0.1,0.1
					c0.5,0.8,1,1.6,1.6,2.5c0.1,0.2,0.3,0.4,0.4,0.6c0.5,0.7,0.9,1.4,1.4,2.1c0.1,0.1,0.2,0.3,0.3,0.4c0,0.1,0.1,0.1,0.1,0.1
					c1.1,1.6,2.2,3.2,3.4,4.8c0.1,0.1,0.1,0.1,0.1,0.1c0.1,0.1,0.1,0.1,0.1,0.2c1,1.5,2.1,2.9,3.3,4.4c0.1,0.1,0.1,0.1,0.1,0.1
					l0.1,0.1c1.1,1.5,2.3,2.9,3.4,4.4l0.1,0.1c0.1,0.1,0.1,0.1,0.1,0.2c1,1.4,2.1,2.7,3.3,4c0.1,0.1,0.1,0.1,0.1,0.2
					c0.1,0.1,0.1,0.1,0.2,0.3c1,1.3,2.1,2.6,3.3,3.8c0.1,0.1,0.1,0.1,0.2,0.3c0.1,0.1,0.1,0.1,0.2,0.2c1.1,1.3,2.3,2.6,3.4,3.9
					c0.1,0.1,0.1,0.1,0.2,0.2c0.1,0.1,0.1,0.1,0.1,0.1c1.2,1.4,2.4,2.7,3.6,4c0.1,0.1,0.1,0.1,0.1,0.1l0.1,0.1
					c1.3,1.4,2.6,2.8,4,4.2c0,0,0,0.1,0.1,0.1c0.1,0.1,0.1,0.1,0.1,0.1c1.2,1.2,2.3,2.4,3.6,3.6c0.2,0.2,0.4,0.4,0.6,0.6
					c0.1,0.1,0.1,0.1,0.2,0.2c1.4,1.4,2.7,2.7,4.2,4c0.1,0.1,0.1,0.1,0.2,0.2c0.1,0.1,0.1,0.1,0.2,0.1c1.6,1.6,3.3,3.1,4.9,4.6
					c0.1,0.1,0.1,0.1,0.1,0.1c0.1,0.1,0.1,0.1,0.1,0.1c2.1,1.9,4.2,3.8,6.3,5.5c0.1,0.1,0.1,0.1,0.1,0.1c0.1,0.1,0.1,0.1,0.2,0.2
					c1.2,1.1,2.5,2.1,3.8,3.2c0.1,0.1,0.3,0.3,0.4,0.3c1.3,1,2.6,2.1,3.8,3.1c0.1,0.1,0.2,0.1,0.3,0.3c1.4,1,2.7,2.1,4,3.1l0.1,0.1
					c1.4,1,2.7,2.1,4.1,3.1c0.1,0.1,0.1,0.1,0.2,0.1c1.3,0.9,2.6,1.9,3.8,2.7c0.1,0.1,0.3,0.2,0.3,0.3c1.2,0.8,2.5,1.7,3.7,2.5
					c0.1,0.1,0.3,0.2,0.5,0.3c1.2,0.8,2.4,1.6,3.6,2.3c0.1,0.1,0.3,0.2,0.5,0.3c1.2,0.7,2.4,1.5,3.6,2.1c0.1,0.1,0.1,0.1,0.2,0.1
					c0.1,0.1,0.1,0.1,0.3,0.1c0.6,0.4,1.2,0.7,1.8,1c0.1,0.1,0.2,0.1,0.3,0.2c0.7,0.4,1.4,0.8,2.1,1.2c0.2,0.1,0.4,0.2,0.6,0.3
					c0.5,0.3,1,0.5,1.5,0.8c0.3,0.1,0.5,0.3,0.7,0.4c0.5,0.3,1,0.5,1.4,0.7c0.1,0.1,0.3,0.1,0.5,0.2c0.1,0,0.1,0.1,0.1,0.1
					c1,0.5,2.1,1,3.1,1.5c0.1,0.1,0.3,0.1,0.4,0.2c1,0.5,2,0.9,3,1.4c0.1,0.1,0.1,0.1,0.2,0.1c0.1,0,0.1,0.1,0.2,0.1
					c0.8,0.3,1.6,0.7,2.5,1c0.1,0.1,0.3,0.1,0.5,0.2c0.8,0.3,1.6,0.7,2.5,0.9h0.1c0.1,0,0.1,0.1,0.2,0.1c0.7,0.3,1.3,0.5,2,0.7
					c0.1,0.1,0.3,0.1,0.5,0.1c0.7,0.2,1.4,0.5,2.1,0.7c0.1,0,0.1,0,0.1,0.1c0.1,0,0.2,0.1,0.3,0.1c0.5,0.1,1.1,0.3,1.6,0.5
					c0.2,0.1,0.3,0.1,0.5,0.1c0.7,0.1,1.2,0.3,1.9,0.5c0,0,0,0,0.1,0s0.1,0,0.2,0.1c0.5,0.1,1,0.2,1.6,0.3c0.2,0,0.3,0.1,0.5,0.1
					c0.5,0.1,0.9,0.1,1.4,0.2c0.1,0,0.2,0,0.3,0.1h0.1c0.5,0.1,1.1,0.1,1.6,0.2c0.1,0,0.3,0,0.4,0c0.4,0.1,0.8,0.1,1.2,0.1
					c0.1,0,0.2,0,0.3,0c0.1,0,0.1,0,0.2,0c0.5,0,0.8,0,1.3,0c0.1,0,0.1,0,0.2,0c0.5,0,1,0,1.4-0.1c0.1,0,0.1,0,0.1,0
					c0.1,0,0.2,0,0.3,0c0.3,0,0.7-0.1,1-0.1c0.1,0,0.3,0,0.4-0.1c0.4-0.1,0.8-0.1,1.2-0.2h0.1l0,0c0.5-0.1,0.8-0.2,1.2-0.3
					c0.1,0,0.3-0.1,0.3-0.1c0.3-0.1,0.7-0.2,0.9-0.3c0.1,0,0.1-0.1,0.2-0.1c0.1,0,0.1,0,0.1-0.1c0.4-0.1,0.8-0.3,1.2-0.5
					c0.1,0,0.1-0.1,0.2-0.1c0.3-0.1,0.7-0.3,0.9-0.5c0.1,0,0.1-0.1,0.2-0.1c0.1,0,0.1-0.1,0.1-0.1c0.4-0.2,0.7-0.5,1-0.7l0.1-0.1
					c0.3-0.3,0.6-0.5,0.9-0.8c0.1-0.1,0.1-0.1,0.1-0.1c0.1-0.1,0.2-0.2,0.3-0.3l24.5-24.4C1275.9,377.3,1275.8,377.4,1275.6,377.6z"
					/>
			</g>
			<path class="st2" d="M1314.3,1059.3l-231.6-231.6c-15.7-15.7-15.7-41.2,0-56.9l118.2-118.2c15.7-15.7,41.2-15.7,56.9,0
				l231.6,231.6c15.7,15.7,15.7,41.2,0,56.9l-118.2,118.2C1355.4,1075,1330,1075,1314.3,1059.3z"/>
			<path class="st1" d="M588.3,910.4C469.2,791.3,396.1,671.3,425.1,642.3c29-29,149,44.1,268.1,163.2
				c119.1,119.1,192.2,239.2,163.2,268.1C827.4,1102.6,707.4,1029.6,588.3,910.4z"/>
			<path class="st2" d="M500.6,1000.7c-1.7-1.7-2.7-3.9-2.9-6.4c-0.3-5.5,3.8-10.2,9.3-10.5l323.6-18.9c5.5-0.3,10.2,3.8,10.5,9.3
				c0.3,5.5-3.8,10.2-9.3,10.5l-323.6,18.9C505.2,1003.7,502.5,1002.6,500.6,1000.7z"/>
			<path class="st2" d="M500.6,1000.7c-2-2-3.1-4.7-2.9-7.6l19-324.5c0.3-5.5,5-9.6,10.5-9.3c5.5,0.3,9.6,5,9.3,10.5l-19,324.5
				c-0.3,5.5-5,9.6-10.5,9.3C504.5,1003.4,502.3,1002.3,500.6,1000.7z"/>
			<path class="st2" d="M500.6,1000.7c-3.9-3.9-3.9-10.2,0-14.1l186.9-186.9c3.9-3.9,10.2-3.9,14.1,0c3.9,3.9,3.9,10.2,0,14.1
				l-186.9,186.9C510.7,1004.6,504.5,1004.6,500.6,1000.7z"/>
			<path class="st1" d="M496.9,1004.3c-13.9-13.9-20.5-30-14.6-35.9c5.9-5.9,21.9,0.7,35.9,14.6c13.9,13.9,20.5,30,14.6,35.9
				S510.9,1018.2,496.9,1004.3z"/>
			<g>
				<path class="st4" d="M484.4,1016.8c7.9,7.9,12.2,16.7,9.4,19.4c-2.7,2.7-11.5-1.4-19.4-9.4c-7.9-7.9-12.2-16.7-9.4-19.4
					C467.7,1004.6,476.5,1008.9,484.4,1016.8z"/>
				<path class="st3" d="M465.1,1007.3c0.1-0.1,0.1-0.1,0.2-0.1l0,0c0.1-0.1,0.1-0.1,0.2-0.1h0.1c0.1-0.1,0.1-0.1,0.2-0.1
					c0,0,0,0,0.1,0c0.1-0.1,0.1-0.1,0.2-0.1h0.1c0.1,0,0.1-0.1,0.2-0.1h0.1c0.1,0,0.1-0.1,0.3-0.1l0,0c0.1,0,0.1,0,0.3-0.1h0.1
					c0.1,0,0.1,0,0.2,0h0.1c0.1,0,0.2,0,0.3,0c0,0,0,0,0.1,0c0.1,0,0.1,0,0.3,0h0.1c0.1,0,0.1,0,0.3,0h0.1c0.1,0,0.2,0,0.3,0.1h0.1
					c0.1,0,0.2,0,0.3,0.1h0.1c0.1,0,0.2,0.1,0.3,0.1c0,0,0,0,0.1,0c0.1,0,0.3,0.1,0.3,0.1h0.1c0.1,0,0.2,0.1,0.3,0.1h0.1
					c0.1,0.1,0.3,0.1,0.4,0.1h0.1c0.1,0.1,0.3,0.1,0.4,0.1c0,0,0,0,0.1,0c0.1,0.1,0.3,0.1,0.5,0.2c0,0,0.1,0,0.1,0.1
					c0.1,0.1,0.3,0.1,0.5,0.2h0.1c0.2,0.1,0.4,0.2,0.6,0.3c0,0,0.1,0,0.1,0.1c0.2,0.1,0.4,0.2,0.6,0.3c0.1,0,0.1,0.1,0.1,0.1
					c0.1,0.1,0.2,0.1,0.3,0.1c0.1,0,0.1,0.1,0.1,0.1c0.1,0.1,0.2,0.1,0.3,0.1c0.1,0,0.1,0.1,0.1,0.1c0.1,0.1,0.3,0.1,0.4,0.2
					c0,0,0.1,0,0.1,0.1c0.1,0.1,0.2,0.1,0.3,0.2l0.1,0.1c0.2,0.1,0.5,0.3,0.7,0.4l0.1,0.1c0.2,0.1,0.5,0.3,0.7,0.5l0.1,0.1
					c0.3,0.1,0.5,0.3,0.7,0.5c0,0,0.1,0,0.1,0.1c0.3,0.2,0.5,0.3,0.7,0.5c0,0,0,0,0.1,0c0.3,0.2,0.5,0.4,0.8,0.6l0,0
					c0.3,0.2,0.5,0.4,0.8,0.6c0,0,0.1,0,0.1,0.1c0.3,0.2,0.5,0.4,0.7,0.6l0.1,0.1c0.3,0.2,0.5,0.4,0.7,0.6l0.1,0.1
					c0.4,0.3,0.8,0.7,1.2,1c0,0,0,0,0.1,0.1c0.3,0.3,0.7,0.6,0.9,0.8l0.1,0.1c0.3,0.3,0.5,0.5,0.8,0.8c0.1,0.1,0.1,0.1,0.1,0.1
					c0.3,0.3,0.5,0.5,0.7,0.7c0,0,0,0,0.1,0.1c0.3,0.3,0.5,0.5,0.8,0.8c0,0,0,0,0,0.1c0.3,0.3,0.5,0.5,0.7,0.8l0.1,0.1
					c0.2,0.3,0.5,0.5,0.7,0.7l0.1,0.1c0.2,0.3,0.4,0.5,0.7,0.7l0.1,0.1c0.2,0.3,0.4,0.5,0.6,0.8c0,0,0,0.1,0.1,0.1
					c0.2,0.3,0.5,0.6,0.7,0.8c0,0,0,0,0.1,0.1c0.2,0.3,0.4,0.6,0.7,0.8l0.1,0.1c0.2,0.3,0.5,0.6,0.7,0.9l0.1,0.1
					c0.1,0.1,0.2,0.3,0.3,0.4c0,0.1,0.1,0.1,0.1,0.1c0.1,0.1,0.2,0.3,0.3,0.5l0.1,0.1c0.1,0.2,0.2,0.4,0.3,0.5c0,0,0,0,0,0.1
					c0.1,0.2,0.2,0.4,0.3,0.5l0.1,0.1c0.1,0.3,0.3,0.5,0.4,0.7c0,0,0,0,0,0.1c0.1,0.3,0.3,0.5,0.4,0.7c0,0.1,0.1,0.1,0.1,0.1
					c0,0.1,0.1,0.1,0.1,0.2c0,0.1,0.1,0.1,0.1,0.1c0,0.1,0.1,0.1,0.1,0.2c0,0.1,0.1,0.1,0.1,0.1c0,0.1,0.1,0.1,0.1,0.2
					s0.1,0.1,0.1,0.1c0,0.1,0.1,0.1,0.1,0.2c0,0.1,0.1,0.1,0.1,0.1c0,0.1,0.1,0.1,0.1,0.2c0,0.1,0.1,0.1,0.1,0.1
					c0,0.1,0.1,0.1,0.1,0.2c0,0.1,0.1,0.1,0.1,0.1c0,0.1,0.1,0.1,0.1,0.1c0,0.1,0.1,0.1,0.1,0.1s0.1,0.1,0.1,0.1
					c0,0.1,0,0.1,0.1,0.1c0,0.1,0.1,0.1,0.1,0.1c0,0.1,0,0.1,0.1,0.1c0,0.1,0,0.1,0.1,0.1c0,0.1,0,0.1,0.1,0.1c0,0.1,0,0.1,0.1,0.1
					c0,0.1,0,0.1,0.1,0.1c0,0.1,0,0.1,0.1,0.1c0,0.1,0,0.1,0,0.1c0,0.1,0,0.1,0,0.1s0,0.1,0,0.1s0,0.1,0,0.1c0,0.1,0,0.1,0,0.1
					s0,0.1,0,0.1c0,0.1,0,0.1,0,0.1c0,0.1,0,0.1,0,0.1c0,0.1,0,0.1,0,0.1c0,0.1,0,0.1,0,0.1c0,0.1,0,0.1,0,0.1c0,0.1,0,0.1,0,0.1
					s0,0.1,0,0.1c0,0.1,0,0.1,0,0.1c0,0.1,0,0.1,0,0.1c0,0.1,0,0.1,0,0.1c0,0.1,0,0.1,0,0.1c0,0.1,0,0.1,0,0.1c0,0.1,0,0.1,0,0.1
					s0,0.1,0,0.1c0,0.1,0,0.1,0,0.1c0,0.1,0,0.1,0,0.1s0,0.1,0,0.1c0,0.1,0,0.1,0,0.1v0.1c0,0.1,0,0.1,0,0.1v0.1
					c0,0.1,0,0.1-0.1,0.1v0.1c0,0.1,0,0.1-0.1,0.1c0,0,0,0.1-0.1,0.1c0,0,0,0.1-0.1,0.1c0,0,0,0.1-0.1,0.1l-0.1,0.1
					c0,0,0,0.1-0.1,0.1l-0.1,0.1c0,0,0,0.1-0.1,0.1c0,0.1-0.1,0.1-0.1,0.1s0,0.1-0.1,0.1c-0.1,0.1-0.1,0.1-0.1,0.1l23.2-23.2
					c0.1-0.1,0.1-0.1,0.1-0.1c0,0,0-0.1,0.1-0.1l0.1-0.1c0,0,0-0.1,0.1-0.1l0.1-0.1c0,0,0-0.1,0.1-0.1l0.1-0.1c0,0,0-0.1,0.1-0.1
					c0,0,0-0.1,0.1-0.1c0,0,0-0.1,0.1-0.1c0-0.1,0-0.1,0.1-0.1v-0.1c0-0.1,0-0.1,0.1-0.1v-0.1c0-0.1,0-0.1,0-0.1v-0.1
					c0-0.1,0-0.1,0-0.1c0-0.1,0-0.1,0-0.1c0-0.1,0-0.1,0-0.1c0-0.1,0-0.1,0-0.1s0-0.1,0-0.1c0-0.1,0-0.1,0-0.1c0-0.1,0-0.1,0-0.1
					c0-0.1,0-0.1,0-0.1c0-0.1,0-0.1,0-0.1c0-0.1,0-0.1,0-0.1c0-0.1,0-0.1,0-0.1s0-0.1,0-0.1c0-0.1,0-0.1,0-0.1c0-0.1,0-0.1,0-0.1
					c0-0.1,0-0.1,0-0.1c0-0.1,0-0.1,0-0.1c0-0.1,0-0.1,0-0.1c0-0.1,0-0.1,0-0.1c0-0.1,0-0.1,0-0.1s0-0.1,0-0.1c0-0.1,0-0.1,0-0.1
					c0-0.1,0-0.1,0-0.1c0-0.1,0-0.1,0-0.1c0-0.1,0-0.1,0-0.1c0-0.1,0-0.1-0.1-0.1c0-0.1,0-0.1-0.1-0.1c0-0.1,0-0.1-0.1-0.1
					c0-0.1,0-0.1-0.1-0.1c0-0.1,0-0.1-0.1-0.1c0-0.1,0-0.1-0.1-0.1c0-0.1-0.1-0.1-0.1-0.1c0-0.1,0-0.1-0.1-0.1
					c0-0.1-0.1-0.1-0.1-0.1c0-0.1-0.1-0.1-0.1-0.1c0-0.1-0.1-0.1-0.1-0.1c0-0.1-0.1-0.1-0.1-0.1c0-0.1-0.1-0.1-0.1-0.2
					c0-0.1-0.1-0.1-0.1-0.1c0-0.1-0.1-0.1-0.1-0.2c0-0.1-0.1-0.1-0.1-0.1c0-0.1-0.1-0.1-0.1-0.2c0-0.1-0.1-0.1-0.1-0.1
					c0-0.1-0.1-0.1-0.1-0.2c0-0.1-0.1-0.1-0.1-0.1c0-0.1-0.1-0.1-0.1-0.2c0-0.1-0.1-0.1-0.1-0.1c0-0.1-0.1-0.1-0.1-0.2
					c0-0.1-0.1-0.1-0.1-0.1l0,0c-0.1-0.3-0.3-0.5-0.4-0.7c0,0,0,0,0-0.1c-0.1-0.3-0.3-0.5-0.4-0.7l0,0c0,0,0-0.1-0.1-0.1
					c-0.1-0.2-0.2-0.3-0.3-0.5v-0.1c-0.1-0.2-0.2-0.3-0.3-0.5v-0.1l0,0c-0.1-0.2-0.2-0.3-0.3-0.5c0-0.1-0.1-0.1-0.1-0.1
					c-0.1-0.1-0.2-0.3-0.3-0.4c0,0,0-0.1-0.1-0.1l0,0c-0.2-0.3-0.4-0.6-0.7-0.9l0,0c0,0,0,0,0-0.1c-0.2-0.3-0.4-0.6-0.7-0.8l0,0l0,0
					c-0.2-0.3-0.5-0.6-0.7-0.8l0,0l0,0c-0.2-0.3-0.4-0.5-0.7-0.8c0,0,0,0,0-0.1c0,0,0,0-0.1-0.1c-0.2-0.3-0.4-0.5-0.7-0.7
					c0,0,0,0-0.1-0.1c0,0,0,0-0.1-0.1c-0.2-0.3-0.5-0.5-0.7-0.7c0,0,0,0-0.1-0.1l0,0c-0.2-0.3-0.5-0.5-0.7-0.8l0,0l0,0
					c-0.3-0.3-0.5-0.5-0.8-0.8l0,0l0,0c-0.3-0.3-0.5-0.5-0.7-0.7c-0.1-0.1-0.1-0.1-0.1-0.1c0,0,0,0-0.1-0.1
					c-0.3-0.3-0.5-0.5-0.8-0.8c0,0,0,0-0.1-0.1l0,0c-0.3-0.3-0.7-0.6-0.9-0.8l0,0l0,0c-0.4-0.4-0.8-0.7-1.2-1l0,0c0,0,0,0-0.1-0.1
					c-0.3-0.2-0.5-0.4-0.7-0.6l-0.1-0.1c-0.3-0.2-0.5-0.4-0.7-0.6c0,0-0.1,0-0.1-0.1c-0.3-0.2-0.5-0.4-0.8-0.6l0,0
					c-0.3-0.2-0.5-0.4-0.8-0.6l0,0c-0.3-0.2-0.5-0.4-0.7-0.5c0,0-0.1,0-0.1-0.1c-0.3-0.1-0.5-0.3-0.7-0.5l-0.1-0.1
					c-0.3-0.1-0.5-0.3-0.7-0.5l-0.1-0.1c-0.2-0.1-0.5-0.3-0.7-0.4l0,0c0,0-0.1,0-0.1-0.1c-0.1-0.1-0.3-0.1-0.3-0.2h-0.1
					c-0.1-0.1-0.3-0.1-0.4-0.2c-0.1,0-0.1-0.1-0.1-0.1c-0.1-0.1-0.2-0.1-0.3-0.1c-0.1,0-0.1-0.1-0.1-0.1c-0.1-0.1-0.2-0.1-0.3-0.1
					c0,0-0.1,0-0.1-0.1l0,0c-0.2-0.1-0.4-0.2-0.6-0.3c0,0-0.1,0-0.1-0.1c-0.2-0.1-0.4-0.2-0.6-0.3l0,0h-0.1
					c-0.1-0.1-0.3-0.1-0.5-0.2c0,0-0.1,0-0.1-0.1c-0.1-0.1-0.3-0.1-0.5-0.2l0,0h-0.1c-0.1-0.1-0.3-0.1-0.4-0.1h-0.1
					c-0.1-0.1-0.3-0.1-0.4-0.1l0,0h-0.1c-0.1,0-0.2-0.1-0.3-0.1H493c-0.1,0-0.3-0.1-0.3-0.1l0,0l0,0c-0.1,0-0.2-0.1-0.3-0.1h-0.1
					c-0.1,0-0.2,0-0.3-0.1l0,0l0,0c-0.1,0-0.2,0-0.3-0.1h-0.1c-0.1,0-0.1,0-0.3,0h-0.1c0,0,0,0-0.1,0s-0.2,0-0.3,0l0,0
					c-0.1,0-0.2,0-0.3,0l0,0c0,0,0,0-0.1,0c-0.1,0-0.1,0-0.2,0h-0.1c-0.1,0-0.1,0-0.3,0.1l0,0l0,0c-0.1,0-0.1,0.1-0.3,0.1h-0.1
					c-0.1,0-0.1,0.1-0.2,0.1l0,0l0,0c-0.1,0-0.1,0.1-0.2,0.1l0,0c-0.1,0.1-0.1,0.1-0.2,0.1l0,0l0,0c-0.1,0.1-0.1,0.1-0.2,0.1l0,0
					c-0.1,0.1-0.1,0.1-0.2,0.1l0,0l-0.1,0.1l-23.2,23.2C465,1007.4,465.1,1007.4,465.1,1007.3z"/>
			</g>
			<path class="st3" d="M693.3,805.5c119.1,119.1,192.2,239.1,163.2,268.1c48.7-48.7,0.9-194.1-118.2-313.1S473.9,593.6,425.1,642.4
				C454.1,613.4,574.1,686.4,693.3,805.5z"/>
			<path class="st3" d="M1300.1,856l80.6-80.6l-14.1-14.1l-80.5,80.6l-137.3-137.3l-14.1,14.1L1272,856l-80.6,80.5l0,0l14.1,14.1
				l0,0l80.6-80.5l137.2,137.2l14.1-14L1300.1,856z"/>
			<path class="st2" d="M1207.4,303.8c-2.5,0-5.1-1-7-2.9c-3.9-3.9-3.9-10.2,0-14.1l36.3-36.3c3.9-3.9,10.2-3.9,14.1,0
				c3.9,3.9,3.9,10.2,0,14.1l-36.3,36.3C1212.5,302.8,1209.9,303.8,1207.4,303.8z"/>
		</g>
	</g>
</g>
</svg>
