SATELLITE.svg<?xml version="1.0" standalone="no"?><!DOCTYPE svg PUBLIC "-//W3C//DTD SVG 1.1//EN" "http://www.w3.org/Graphics/SVG/1.1/DTD/svg11.dtd"><svg t="1721047781043" class="icon" viewBox="0 0 1024 1024" version="1.1" xmlns="http://www.w3.org/2000/svg" p-id="9708" xmlns:xlink="http://www.w3.org/1999/xlink" width="32" height="32"><path d="M621.148 254.216L260.242 615.124l149.204 149.202L770.352 403.42l-149.204-149.204zM278.646 615.124l342.502-342.502 130.798 130.796L409.444 745.92l-130.798-130.796z" fill="#4B555F" p-id="9709"></path><path d="M300.116 615.12L621.14 294.1l109.32 109.32L409.44 724.444z" fill="#F58E70" p-id="9710"></path><path d="M705.804 197.17l-80.054 80.056 121.592 121.592 80.052-80.056-121.59-121.592z m-61.648 80.054l61.648-61.648 103.188 103.186-61.648 61.648-103.188-103.186z" fill="#4B555F" p-id="9711"></path><path d="M665.632 277.248l40.174-40.172 81.71 81.71-40.172 40.174z" fill="#71CBDF" p-id="9712"></path><path d="M826.938 220.16l-22.528-22.528c-13.23-13.232-30.82-20.518-49.532-20.518s-36.302 7.286-49.532 20.518l-8.742 8.742 121.592 121.592 8.742-8.742c13.232-13.23 20.518-30.822 20.518-49.532 0-18.712-7.288-36.302-20.518-49.532z m-8.746 89.396l-103.182-103.182c10.716-10.482 24.848-16.246 39.866-16.246 15.232 0 29.558 5.932 40.33 16.704l22.528 22.528c10.772 10.772 16.706 25.096 16.706 40.33 0 15.018-5.764 29.148-16.248 39.866z" fill="#4B555F" p-id="9713"></path><path d="M806.998 240.098l-22.53-22.528a41.574 41.574 0 0 0-29.592-12.258c-5.66 0-11.146 1.116-16.212 3.244l77.332 77.33c6.356-15.206 3.358-33.43-8.998-45.788z" fill="#F58E70" p-id="9714"></path><path d="M592.574 562.792l-36.928 36.928 77.084 77.084 36.928-36.928-77.084-77.084z m-18.522 36.926l18.52-18.52 58.678 58.676-18.522 18.522-58.676-58.678zM384.694 354.912l-36.928 36.928 77.082 77.084 36.928-36.928-77.082-77.084z m-18.524 36.928l18.522-18.522 58.676 58.676-18.522 18.522-58.676-58.676z" fill="#4B555F" p-id="9715"></path><path d="M757.014 534.11L534.112 757.014 801.1 1024 1024 801.098 757.014 534.11zM552.518 757.014l204.496-204.496 248.582 248.58L801.1 1005.594l-248.582-248.58z" fill="#4B555F" p-id="9716"></path><path d="M573.986 757.012l183.018-183.02L984.108 801.1l-183.018 183.02z" fill="#71CBDF" p-id="9717"></path><path d="M731.246 605.896l9.202 9.204 9.202-9.202-9.202-9.204-9.202 9.202z m-18.406-18.406l9.202 9.204 9.202-9.202-9.202-9.204-9.202 9.202z m55.22 55.218l9.202 9.204 9.202-9.202-9.202-9.204-9.202 9.202z m-18.408-18.406l9.202 9.202 9.202-9.202-9.202-9.202-9.202 9.202z m101.288 82.88l-9.262 9.146 9.306-9.098-0.044-0.048z m-18.46-18.456l-9.202 9.202 9.202 9.204 9.202-9.202-9.202-9.204z m-46.014-27.612l9.202 9.204 9.202-9.202-9.202-9.204-9.202 9.202z m18.406 18.408l9.202 9.204 9.202-9.202-9.202-9.204-9.202 9.202zM636.674 774.094l9.202 9.202 9.202-9.202-9.202-9.202-9.202 9.202zM599.86 737.28l9.202 9.204 9.202-9.202-9.202-9.204-9.202 9.202z m-18.406-18.406l9.202 9.204 9.202-9.202-9.202-9.204-9.202 9.202z m36.814 36.814l9.202 9.204 9.202-9.202-9.202-9.204-9.202 9.202z m73.626 73.624l9.202 9.204 9.202-9.202-9.202-9.204-9.202 9.202z m27.554 9.154l-9.052 9.352 9.1-9.304-0.048-0.048zM655.08 792.5l9.202 9.204 9.202-9.202-9.202-9.204-9.202 9.202z m18.406 18.406l9.202 9.204 9.202-9.202-9.202-9.204-9.202 9.202z" fill="#4B555F" p-id="9718"></path><path d="M896.952 771.6l9.202 9.202 9.202-9.202-9.202-9.202-9.202 9.202z m-18.408-18.406l9.202 9.204 9.202-9.202-9.202-9.204-9.202 9.202z m-18.406-18.406l9.202 9.204 9.202-9.202-9.202-9.204-9.202 9.202z m-18.406-18.408l9.202 9.204 9.202-9.202-9.202-9.204-9.202 9.202z m110.438 110.438l9.202 9.204 9.202-9.202-9.202-9.204-9.202 9.202z m-36.812-36.812l9.202 9.204 9.202-9.202-9.202-9.204-9.202 9.202z m64.368 45.966l-9.052 9.352 9.1-9.304-0.048-0.048z m-45.962-27.56l9.202 9.204 9.202-9.202-9.202-9.204-9.202 9.202zM765.566 902.984l9.202 9.204 9.202-9.202-9.202-9.204-9.202 9.202z m-18.406-18.404l9.202 9.202 9.202-9.202-9.202-9.202-9.202 9.202z m-18.408-18.408l9.202 9.204 9.202-9.202-9.202-9.204-9.202 9.202z m-18.406-18.406l9.202 9.204 9.202-9.202-9.202-9.204-9.202 9.202z m73.626 73.626l9.202 9.204 9.202-9.202-9.202-9.204-9.202 9.202z m64.474 46.068l-9.262 9.146 9.306-9.098-0.044-0.048z m-18.458-18.458l-9.202 9.202 9.202 9.204 9.202-9.202-9.202-9.204z m-27.61-9.204l9.202 9.204 9.202-9.202-9.202-9.204-9.202 9.202z" fill="#4B555F" p-id="9719"></path><path d="M667.596 881.3L881.292 667.6l9.202 9.204L676.8 890.5zM222.898 0L0 222.902l266.984 266.986 222.902-222.902L222.898 0zM18.404 222.902L222.898 18.406l248.582 248.58-204.496 204.496-248.58-248.58z" fill="#4B555F" p-id="9720"></path><path d="M39.876 222.9l183.02-183.02L450 266.988l-183.02 183.02z" fill="#71CBDF" p-id="9721"></path><path d="M178.724 53.378l9.202 9.204 9.202-9.202-9.202-9.204-9.202 9.202z m55.22 55.22l9.202 9.202 9.202-9.202-9.202-9.202-9.202 9.202z m-18.406-18.408l9.202 9.204 9.202-9.202-9.202-9.204-9.202 9.202z m-18.408-18.406l9.202 9.204 9.202-9.202-9.202-9.204-9.202 9.202z m73.626 73.626l9.202 9.204 9.202-9.202-9.202-9.204-9.202 9.202z m45.964 27.56l-9.052 9.352 9.1-9.304-0.048-0.048z m-64.37-45.968l9.202 9.204 9.202-9.202-9.202-9.204-9.202 9.202z m36.814 36.814l9.202 9.204 9.202-9.202-9.202-9.204-9.202 9.202zM102.558 239.982l9.202 9.204 9.202-9.202-9.202-9.204-9.202 9.202z m-18.406-18.406l9.202 9.202 9.202-9.202-9.202-9.202-9.202 9.202z m-18.406-18.406l9.202 9.204 9.202-9.202-9.202-9.204-9.202 9.202z m-18.408-18.406l9.202 9.204 9.202-9.202-9.202-9.204-9.202 9.202z m138.102 119.692l-9.262 9.146 9.306-9.098-0.044-0.048zM166.98 286l-9.202 9.202 9.202 9.204 9.202-9.202L166.98 286z m-46.016-27.612l9.202 9.204 9.202-9.202-9.202-9.204-9.202 9.202z m18.408 18.406l9.202 9.204 9.202-9.202-9.202-9.204-9.202 9.202z" fill="#4B555F" p-id="9722"></path><path d="M445.718 301.964l-9.262 9.146 9.306-9.098-0.044-0.048z m-119.696-101.288l9.202 9.204 9.202-9.202-9.202-9.204-9.202 9.202z m18.408 18.406l9.202 9.202 9.202-9.202-9.202-9.202-9.202 9.202z m-36.814-36.812l9.202 9.204 9.202-9.202-9.202-9.204-9.202 9.202z m55.22 55.218l9.202 9.204 9.202-9.202-9.202-9.204-9.202 9.202z m64.422 46.018l-9.202 9.202 9.202 9.204 9.202-9.202-9.202-9.204z m-27.61-9.204l9.202 9.204 9.202-9.202-9.202-9.204-9.202 9.202z m-18.406-18.408l9.202 9.204 9.202-9.202-9.202-9.204-9.202 9.202zM213.044 350.468l9.202 9.204 9.202-9.202-9.202-9.204-9.202 9.202z m18.406 18.406l9.202 9.202 9.202-9.202-9.202-9.202-9.202 9.202zM194.638 332.06l9.202 9.204 9.202-9.202-9.202-9.204-9.202 9.202z m-18.408-18.406l9.202 9.204 9.202-9.202-9.202-9.204-9.202 9.202z m110.44 110.438l9.202 9.204 9.202-9.202-9.202-9.204-9.202 9.202z m-36.814-36.812l9.202 9.204 9.202-9.202-9.202-9.204-9.202 9.202z m64.37 45.966l-9.052 9.352 9.1-9.304-0.048-0.048z m-45.962-27.56l9.202 9.204 9.202-9.202-9.202-9.204-9.202 9.202z" fill="#4B555F" p-id="9723"></path><path d="M133.49 347.192L347.186 133.496l9.2 9.202L142.694 356.394zM327.236 663.73l-46.19 46.192 5.472 4.562a204.808 204.808 0 0 1 26.04 26.04l4.562 5.47 46.19-46.192-36.074-36.072z m-17.908 53.986a217.91 217.91 0 0 0-9.09-8.582l26.998-26.998 17.668 17.668-26.998 26.998a220.316 220.316 0 0 0-8.578-9.086z" fill="#4B555F" p-id="9724"></path><path d="M309.336 717.704c-41.448-41.446-96.57-64.272-155.21-64.272-31.518 0-61.988 6.552-90.566 19.472l-8.578 3.876 295.288 295.286 3.876-8.574c12.938-28.61 19.498-59.056 19.498-90.496 0-58.674-22.838-113.824-64.308-155.292z m36.668 231.69L77.656 681.048c24.326-9.694 50.004-14.602 76.47-14.602 55.164 0 107.018 21.472 146.008 60.462 39.01 39.008 60.494 90.892 60.494 146.09 0 26.398-4.916 52.052-14.624 76.396z" fill="#4B555F" p-id="9725"></path><path d="M289.396 737.644c-36.12-36.12-84.158-56.014-135.27-56.014-16.48 0-32.626 2.052-48.288 6.124l233.47 233.468a190.776 190.776 0 0 0 6.138-48.226c-0.002-51.14-19.906-99.208-56.05-135.352z" fill="#F58E70" p-id="9726"></path><path d="M180.334 783.726l-59.276 85.452 8.626 2.556c0.552 0.164 1.106 0.346 1.994 0.676 0.454 0.146 0.908 0.306 1.362 0.506l0.406 0.162c0.402 0.146 0.804 0.324 1.21 0.534l0.574 0.264c0.37 0.15 0.726 0.33 1.082 0.536l0.38 0.206c0.458 0.228 0.916 0.474 1.65 0.924 0.916 0.51 1.804 1.11 2.776 1.82 0.564 0.396 1.106 0.812 1.894 1.47 0.232 0.178 0.47 0.364 0.704 0.598l0.516 0.462c0.52 0.42 1.014 0.906 1.51 1.402 0.736 0.734 1.444 1.514 2.13 2.318 0.224 0.26 0.438 0.498 0.63 0.758l0.312 0.394c0.18 0.208 0.322 0.42 0.586 0.788 0.42 0.558 0.812 1.114 1.176 1.646 0.586 0.88 1.126 1.782 1.59 2.628l0.6 1.15c0.234 0.448 0.458 0.872 0.636 1.336l0.252 0.57c0.15 0.3 0.28 0.62 0.496 1.158 0.124 0.288 0.23 0.578 0.296 0.758l0.376 1.064c0.072 0.198 0.14 0.396 0.206 0.596l0.016 1.696 5.658 5.892 82.62-57.338-62.988-62.982z m-16.052 101.19l-0.674-1.288a49.534 49.534 0 0 0-2.24-3.698c-0.51-0.75-1.02-1.47-1.5-2.108a24.44 24.44 0 0 0-1.012-1.334 54.36 54.36 0 0 0-3.908-4.388 34.62 34.62 0 0 0-2.27-2.108 17.02 17.02 0 0 0-1.506-1.294 35.668 35.668 0 0 0-2.462-1.904c-1.428-1.046-2.746-1.902-3.75-2.452a28.82 28.82 0 0 0-2.272-1.274 22.872 22.872 0 0 0-1.128-0.604l40.59-58.516 40.954 40.954-58.516 40.61c-0.1-0.198-0.2-0.396-0.306-0.596z" fill="#4B555F" p-id="9727"></path><path d="M184.264 827.536l-21.542 31.056 0.08 0.076c0.98 0.842 1.94 1.748 2.882 2.692 0.972 0.974 1.924 1.994 2.786 2.968l31.042-21.542-15.248-15.25z" fill="#71CBDF" p-id="9728"></path><path d="M154.95 872.094c-9.608-9.608-22.382-14.9-35.97-14.9-13.59 0-26.364 5.292-35.97 14.9-9.608 9.608-14.9 22.382-14.9 35.97 0 13.588 5.292 26.362 14.9 35.968 9.606 9.608 22.38 14.9 35.97 14.9 13.586 0 26.36-5.292 35.97-14.9 19.834-19.83 19.834-52.102 0-71.938z m-9.202 62.738c-7.152 7.15-16.656 11.088-26.768 11.088s-19.618-3.938-26.768-11.088a37.602 37.602 0 0 1-11.088-26.766c0-10.112 3.938-19.618 11.088-26.768 7.15-7.15 16.658-11.088 26.768-11.088s19.616 3.938 26.768 11.088c14.758 14.76 14.758 38.774 0 53.534z" fill="#4B555F" p-id="9729"></path><path d="M135.012 892.036a22.532 22.532 0 0 0-16.034-6.64 22.526 22.526 0 0 0-16.03 6.64 22.526 22.526 0 0 0-6.638 16.03c0 6.054 2.358 11.748 6.642 16.03a22.52 22.52 0 0 0 16.03 6.64c6.054 0 11.748-2.358 16.03-6.64 8.838-8.838 8.838-23.222 0-32.06z" fill="#71CBDF" p-id="9730"></path></svg>