<?xml version="1.0" standalone="no"?><!DOCTYPE svg PUBLIC "-//W3C//DTD SVG 1.1//EN" "http://www.w3.org/Graphics/SVG/1.1/DTD/svg11.dtd"><svg t="1721047905817" class="icon" viewBox="0 0 1024 1024" version="1.1" xmlns="http://www.w3.org/2000/svg" p-id="16108" xmlns:xlink="http://www.w3.org/1999/xlink" width="32" height="32"><path d="M440 852h-112.016a8 8 0 0 1 0-16H440a8 8 0 0 1 0 16zM55.984 852H24c-13.232 0-24-10.768-24-24v-112c0-13.232 10.768-24 24-24h640a8 8 0 0 1 0 16h-640c-4.4 0-8 3.6-8 8v112c0 4.4 3.6 8 8 8h31.984a8 8 0 0 1 0 16z" fill="#263238" p-id="16109"></path><path d="M938.224 402.704a80 80 0 0 0-75.888-54.704H680a16 16 0 0 0-16 16v464a16 16 0 0 0 16 16h48a104 104 0 1 1 208 0H976a40 40 0 0 0 40-40v-168l-77.776-233.296z" fill="#FF5252" p-id="16110"></path><path d="M192 956c-61.744 0-112-50.256-112-112s50.256-112 112-112 112 50.256 112 112-50.256 112-112 112z m0-208c-52.944 0-96 43.056-96 96s43.056 96 96 96 96-43.056 96-96-43.056-96-96-96z" fill="#263238" p-id="16111"></path><path d="M192 908c-35.296 0-64-28.704-64-64s28.704-64 64-64 64 28.704 64 64-28.704 64-64 64z m0-112c-26.464 0-48 21.536-48 48s21.536 48 48 48 48-21.536 48-48-21.536-48-48-48z" fill="#263238" p-id="16112"></path><path d="M776 452v104a80 80 0 0 0 80 80h160l-74.672-224H816a40 40 0 0 0-40 40z" fill="#FFFFFF" p-id="16113"></path><path d="M1016 644h-160a88.112 88.112 0 0 1-88-88v-104c0-26.464 21.536-48 48-48h125.328c3.44 0 6.496 2.208 7.6 5.472l74.672 224a7.984 7.984 0 0 1-7.6 10.528z m-200-224c-17.648 0-32 14.352-32 32v104c0 39.696 32.304 72 72 72h148.912l-69.344-208H816z" fill="#263238" p-id="16114"></path><path d="M949.392 596a8.048 8.048 0 0 1-7.6-5.472l-42.656-128a8 8 0 0 1 15.184-5.072l42.656 128a8.032 8.032 0 0 1-7.584 10.544zM504 708h-336a7.936 7.936 0 0 1-6.48-3.328 7.936 7.936 0 0 1-1.104-7.2l28.336-85.056a24 24 0 0 1 22.784-16.4H460.48c10.336 0 19.504 6.592 22.768 16.4l28.352 85.056a7.984 7.984 0 0 1-7.6 10.528z m-324.912-16h313.808l-24.864-74.528a7.952 7.952 0 0 0-7.584-5.472H211.536a8.048 8.048 0 0 0-7.616 5.488l-24.832 74.512zM616 892h-128c-13.232 0-24-10.768-24-24v-48c0-13.232 10.768-24 24-24h128c13.232 0 24 10.768 24 24v48c0 13.232-10.768 24-24 24z m-128-80c-4.4 0-8 3.6-8 8v48c0 4.4 3.6 8 8 8h128c4.4 0 8-3.6 8-8v-48c0-4.4-3.6-8-8-8h-128z" fill="#263238" p-id="16115"></path><path d="M423.52 467.76c74.976-74.976 74.976-196.544 0-271.536L152 467.76c74.976 74.992 196.544 74.992 271.52 0z" fill="#FFD740" p-id="16116"></path><path d="M287.76 532c-53.44 0-103.664-20.8-141.424-58.576a8 8 0 0 1 0-11.312l271.536-271.536a8.064 8.064 0 0 1 11.328 0c77.968 77.984 77.968 204.864 0 282.848a198.752 198.752 0 0 1-141.44 58.576z m-124.32-64.352a182.592 182.592 0 0 0 124.336 48.352c49.136 0 95.36-19.136 130.112-53.888 69.824-69.84 71.664-182.336 5.536-254.432L163.44 467.648z m260.096 0.112h0.16-0.16zM185.936 270.16a39.936 39.936 0 0 1-40-39.984 40.032 40.032 0 0 1 79.984 0c0 10.688-4.16 20.736-11.712 28.288a39.872 39.872 0 0 1-28.272 11.696z m0-63.968a23.952 23.952 0 0 0-24 23.984c0 6.416 2.496 12.432 7.024 16.976a24.048 24.048 0 0 0 33.936 0 23.84 23.84 0 0 0 7.024-16.976 23.904 23.904 0 0 0-23.984-23.984z" fill="#263238" p-id="16117"></path><path d="M245.168 337.344a8 8 0 0 1-6.288-3.04l-53.472-67.712a8 8 0 1 1 12.56-9.904l53.472 67.712a8 8 0 0 1-6.272 12.944zM285.088 297.408a8.048 8.048 0 0 1-4.96-1.712l-67.696-53.456a8 8 0 1 1 9.904-12.56l67.696 53.456a8 8 0 0 1-4.944 14.272zM192 116H128a8 8 0 0 1 0-16h64a8 8 0 0 1 0 16z" fill="#263238" p-id="16118"></path><path d="M160 148a8 8 0 0 1-8-8v-64a8 8 0 0 1 16 0v64a8 8 0 0 1-8 8zM88 212h-64a8 8 0 0 1 0-16h64a8 8 0 0 1 0 16z" fill="#263238" p-id="16119"></path><path d="M56 244a8 8 0 0 1-8-8v-64a8 8 0 0 1 16 0v64a8 8 0 0 1-8 8zM375.984 612a8 8 0 0 1-7.904-6.88l-8.976-62.72a8 8 0 0 1 15.84-2.24l8.976 62.72a8 8 0 0 1-7.936 9.12zM296.016 612a8 8 0 0 1-7.936-9.12l6.976-48.832a8 8 0 0 1 15.84 2.24l-6.976 48.832a8 8 0 0 1-7.904 6.88zM808 276h-224a8 8 0 0 1 0-16h224a8 8 0 0 1 0 16zM872 276h-32a8 8 0 0 1 0-16h32a8 8 0 0 1 0 16zM632 956h-224a8 8 0 0 1 0-16h224a8 8 0 0 1 0 16zM376 956h-32a8 8 0 0 1 0-16h32a8 8 0 0 1 0 16z" fill="#263238" p-id="16120"></path><path d="M760 108a32 32 0 1 0-64 0 32 32 0 1 0 0 64h64a32 32 0 1 0 0-64z" fill="#4FC3F7" p-id="16121"></path><path d="M832 956c-61.744 0-112-50.256-112-112s50.256-112 112-112 112 50.256 112 112-50.256 112-112 112z m0-208c-52.944 0-96 43.056-96 96s43.056 96 96 96 96-43.056 96-96-43.056-96-96-96z" fill="#263238" p-id="16122"></path><path d="M832 908c-35.296 0-64-28.704-64-64s28.704-64 64-64 64 28.704 64 64-28.704 64-64 64z m0-112c-26.464 0-48 21.536-48 48s21.536 48 48 48 48-21.536 48-48-21.536-48-48-48z" fill="#263238" p-id="16123"></path><path d="M976 852h-8a8 8 0 0 1 0-16h8c17.648 0 32-14.352 32-32V637.296l-77.36-232.064a71.888 71.888 0 0 0-68.32-49.232H680c-4.4 0-8 3.6-8 8v464c0 4.4 3.6 8 8 8h16a8 8 0 0 1 0 16h-16c-13.232 0-24-10.768-24-24v-464c0-13.232 10.768-24 24-24h182.336a87.936 87.936 0 0 1 83.504 60.176l77.76 233.296a8.432 8.432 0 0 1 0.4 2.528v168c0 26.464-21.536 48-48 48z" fill="#263238" p-id="16124"></path><path d="M389.584 441.808a8 8 0 0 1-5.664-13.648 136.352 136.352 0 0 0 26.56-154.8 7.968 7.968 0 1 1 14.432-6.88 152.384 152.384 0 0 1-29.68 172.992 8 8 0 0 1-5.648 2.336z" fill="#263238" p-id="16125"></path></svg>